<?xml version="1.0" standalone="no"?><!DOCTYPE svg PUBLIC "-//W3C//DTD SVG 1.1//EN" "http://www.w3.org/Graphics/SVG/1.1/DTD/svg11.dtd"><svg width="150" height="150" version="1.1" xmlns="http://www.w3.org/2000/svg" xmlns:xlink="http://www.w3.org/1999/xlink"><defs xmlns="http://www.w3.org/1999/xhtml"><style type="text/css"><![CDATA[
body { background: transparent; }
.stroke { fill: none; stroke: rgb(0, 0, 0); stroke-width: 1px; }
.fill { fill: rgb(255, 255, 255); }
.graticule { fill: none; stroke: gray; stroke-width: 1px; stroke-opacity: 0.5; }
.land { fill: rgb(34, 34, 34); }
.boundary { fill: none; stroke: rgb(255, 255, 255); stroke-width: 0.5px; }]]></style></defs><defs><path id="sphere" d="M-3.5398163397448315,35.730091830127584L75,35.730091830127584L153.53981633974485,35.730091830127584L153.53981633974485,45.54756887259569L153.53981633974485,55.365045915063796L153.53981633974485,65.1825229575319L153.53981633974485,75L153.53981633974485,84.8174770424681L153.53981633974485,94.6349540849362L153.53981633974485,104.45243112740431L153.53981633974485,114.26990816987242L75,114.26990816987242L-3.5398163397448315,114.26990816987242L-3.5398163397448315,104.45243112740431L-3.5398163397448315,94.6349540849362L-3.5398163397448315,84.8174770424681L-3.5398163397448315,75L-3.5398163397448315,65.1825229575319L-3.5398163397448315,55.365045915063796L-3.5398163397448315,45.54756887259569L-3.5398163397448315,35.730091830127584Z"/></defs><use class="stroke" xlink:href="#sphere"/><use class="fill" xlink:href="#sphere"/><path class="land" d="M49.008575630741525,109.9262219576633L48.757223083199584,110.34252461452965L46.07089273134512,110.02047916299153L48.552999138321766,109.74556231411754ZM5.524584905986302,109.69057894434275L4.691979592253631,109.74556231411754L3.560893128314916,109.28998582169777L4.6448509895895285,109.20358338348024ZM55.29238931928996,109.05434280837721L56.09357556457989,109.91836719055263L51.36500576394718,110.18542927231593L53.76856449981696,109.05434280837721ZM22.113853043754183,107.06708672937377L22.67939627572354,107.13777963336993L23.197810905028796,107.05923196226308L22.538010467731205,107.32629404402638L21.50118120912071,107.13777963336993ZM20.888509374487242,107.23203683869815L19.458941760342476,107.0513771951524L19.773132444769892,106.95711998982416L20.21299940296828,107.05923196226308ZM31.806635658340163,106.38372199074412L33.031979327607104,106.64292930539675L30.345648975752646,106.36801245652275L30.62842059173733,106.2894647854159ZM45.12832067806286,105.9595645667671L43.98152467990276,106.63507453828606L42.26918544977332,106.26590048408383L43.55736725592574,106.06167653920602L44.34284396699431,105.05626634903827ZM-3.5398163397448315,111.9606016629566L-3.53973779992846,111.96060663933086L-3.539816339744803,114.26990816987242L-3.5398163397448315,114.26990816987242L-3.1313684499891963,114.22989794990278L-3.1313684499891963,114.18988772993319L-3.131368449989182,114.10986728999193L-3.131368449989182,113.94982641011217L-3.131368449989182,113.62974465035158L-3.131368449989182,112.98958113083069L-3.131368449989182,111.70925409178892L4.029106824961303,112.02339128654161L12.562456237160546,112.1098472144339L7.9909817787415705,111.51288491402178L8.305172463168986,110.79810110694939L6.561414164596798,110.38965321719375L11.117179088794401,110.05189823143428L7.221214601894374,109.50206453368628L5.901613727299207,108.55163771329333L8.964972900466577,108.77157119239253L11.242855362565386,108.37097806974757L11.211436294122649,107.89183727599575L16.00284423164082,107.42055124935462L23.517023361982183,107.8452380557986L31.31964009747766,107.67190379689656L29.764396209561916,106.68220314095018L35.80624347052383,107.17375135892868L42.31631405243743,107.23203683869815L45.599606704703994,106.62721977117538L45.44251136249028,104.3807563775193L47.51616987971127,103.20254131091647L50.02969535513064,102.71554575005396L49.41702352049717,102.99046259892796L49.41702352049717,102.99046259892796L47.940327303688285,103.27323421491263L46.353664347329804,104.64781845928262L48.03458450901651,105.85745259432818L48.45874193299353,107.1534891675913L44.201458159001966,108.44167097374373L41.295194328048304,108.47309004218647L42.86614775018542,108.99150467149173L40.94958457517814,109.5491931363504L44.27824953218064,110.4823240041465L49.58982839693225,111.30866096914397L57.22194620205329,110.79499439462525L62.55019412956342,110.05189823143428L59.4554158879533,109.66701464301067L59.392577751067826,109.18001908214818L63.85133060072159,108.55068906462967L67.35731160130297,107.78187053644615L68.25275505192113,106.91784615427073L72.00733373082882,105.95170979965641L79.50340111802878,106.19091338919921L86.82142450158177,105.7474858547786L89.77481693519954,104.89131623971386L91.8641849866419,105.44900470457253L95.62354767534684,104.66829531049764L98.79208957826657,103.72095594022173L101.80832014876981,104.64781845928262L105.06019373259363,104.63996369217193L105.40580348546379,105.20550692414129L104.65174584283798,106.35230292230138L105.48435115657065,106.53296256584714L107.22810945514284,105.48827854012598L110.55319640692029,104.75242931022669L113.38624686992031,103.88590604954611L116.79521579595784,104.40432067885136L119.87428450334659,103.61098920067212L121.3352711859341,104.20795150108422L124.57143523553654,103.74452024155377L127.28918465583375,104.34933730907656L133.93431763147373,103.49316769401185L134.97114689008424,104.21580626819491L138.47437302145,104.20009673397354L143.46070809950493,105.44658213071652L149.7066899897303,106.2816100183052L148.27228222960815,107.28967223944412L146.37626873479965,108.26886609730866L147.8686744858299,109.36067872569396L145.59079202373107,109.54133836923971L144.72676764155568,110.31896031319758L146.42871275189958,110.95848038833512L148.92121327866175,111.57572305090727L153.53981633974485,111.9606016629566L153.53981633974485,114.26990816987242L75,114.26990816987242L-3.5398163397448315,114.26990816987242ZM45.44251136249028,98.49753581161582L46.62072642909311,98.86670986581805L44.79842045941406,99.21231961868821L42.426280791987026,98.05766885341744L43.9658151456814,98.59179301694405L44.73558232252858,97.9162830454251ZM49.44844258893991,97.29575644368094L49.66837606803911,97.64922096366179L48.30164659077982,97.62565666232973L48.820061220085066,97.35859458056642ZM105.6728655672271,96.69093937615816L104.99735559570814,96.7223584446009L105.075903266815,96.21965334951702L105.76712277255533,96.40816776017347ZM138.44295395300725,92.8028296563688L139.6997166907169,92.83424872481154L139.54262134850322,93.85536844920067L138.72572556899192,94.00460902430369ZM150.49216670079886,92.8578130261436L151.02629086432546,93.03847266968937L150.5235857692416,94.13814006518535L148.889794210219,95.34777420023093L147.72728867783758,95.16711455668515ZM151.1833862065392,90.77629974181193L152.89572543666867,91.4439549462202L151.46615782252388,93.18771324479239L150.3193618243638,90.06937070185023ZM147.915803088494,84.66529092969857L147.2088740485323,84.46106698482075L146.5647831454561,83.76984747908041L147.00465010365448,83.92694282129413ZM152.83288729978318,82.56806811114552L152.91143497089,82.92153263112638L152.3930203415848,82.92938739823707L152.51869661535574,82.5837776453669ZM-3.5398163397448315,82.01041221744862L-3.53973779992846,82.01037964628685L-3.539816339744803,82.22245835827536L-3.5398163397448315,82.22248905516764L-3.5398163397448315,82.01041221744862ZM153.53981633974485,82.22248905516764L153.25704472376017,82.33242509782495L153.25704472376017,82.33242509782495L152.92714450511141,82.26173219382879L153.53981633974485,82.01041221744862L153.53981633974485,82.22248905516764ZM-3.508397271302087,82.1988940569433L-3.5398163397448315,82.01037964628685L-3.445559134416598,81.98681534495479ZM148.08860796492908,82.24602265960742L147.96293169115813,81.93183197518L148.22999377292143,82.18318452272193ZM147.97864122537948,81.86899383829451L147.71157914361618,81.38199827743202L147.915803088494,81.51552931831367ZM96.84410733481654,80.91856701790157L95.5559255286641,85.88277983185483L94.22061511984757,85.90634413318689L94.39341999628265,82.07321778317234L96.46707851350364,80.25091181349329ZM137.6417677077173,81.0049694561191L141.82050381060202,86.37763015982802L141.7105370710524,88.80475319702985L140.45377433334272,91.32613343955992L138.83569230854152,92.03306247952162L136.36929543578623,91.58534075421254L135.301047108733,90.00653256496474L134.70408480832089,90.38356138627765L135.1282422322979,89.35458689477784L134.34276552122935,90.22646604406394L132.30052607245113,88.74191506014436L126.5037079447652,90.29715894806012L125.18410707017001,89.92013012674721L125.48258822037607,88.79689842991917L124.44575896176558,86.39333969404939L124.80707824885712,84.49248605326349L127.72905161403213,83.58918783553464L129.83412919969587,81.20919340099692L131.5621779640467,81.53123885253504L132.75610256487087,79.85817345795901L134.56269900032856,80.17236414238643L134.12283204213017,81.54694838675641L136.18078102512982,82.72516345335924L137.18619121529753,79.65394951308119ZM145.73217783172345,79.57540184197434L145.55937295528835,79.72464241707736L145.38656807885326,79.44972556820336L145.65363016061656,79.55969230775297ZM127.66621347714664,79.46543510242473L127.49340860071158,79.47328986953542L126.91215583452083,79.16695395221868L127.3206037242765,79.08840628111183ZM145.18234413397545,79.30833976021103L144.74247717577705,79.27692069176828L144.67963903889157,79.03342291133703L144.9781201890976,79.1041158153332ZM145.54366342106698,79.19051825355074L145.4808252841815,79.2690659246576L145.07237739442587,78.63282978869206L145.2137632024182,78.63282978869206ZM129.30000503616924,79.4261612668713L128.87584761219222,79.46543510242473L129.58277665215394,78.7742155966844L130.55676777387893,78.66424885713481ZM126.44086980787972,78.53071781625316L126.97499397140633,78.79777989801647L125.93816471279584,78.93916570600881L126.09526005500953,78.68781315846687ZM128.6244950646503,78.53071781625316L128.5616569277648,78.7742155966844L127.3206037242765,78.84490850068057L127.66621347714664,78.59355595313863ZM144.7581867099984,78.64068455580275L144.77389624421977,78.7270869940203L144.03554813581536,78.24009143315779L144.30261021757866,78.29507480293259ZM143.7370669856093,78.20867236471504L143.45429536962462,78.1301246936082L143.2972000274109,77.87877214606625L143.5642621091742,78.0672865567227ZM122.40351951298734,77.95731981717311L123.33038203204822,77.82378877629145L125.48258822037607,78.64853932291344L120.97395189884256,77.98873888561585ZM133.77722228926,77.71382203674186L133.55728881016083,78.0123031869479L133.68296508393178,77.37606705098237ZM143.01442841142625,77.97302935139449L142.7002377269988,77.8552078447342L142.4174661110141,77.24253601010072L143.0772665483117,77.8552078447342ZM141.31779871551817,77.39177658520376L140.54803153867095,77.75309587229529L139.7154262249383,77.50959809186404L141.1135747706403,76.8183785861237ZM130.35254382900112,76.6534284767993L129.97551500768822,76.38636639503599L130.41538196588658,76.36280209370395L130.5253487054362,76.51204266880697ZM131.92349725113823,76.34709255948258L132.08059259335192,76.68484754524205L130.80812032142086,76.48062360036423L130.90237752674912,76.23712581993297ZM141.82050381060202,76.95976439411604L141.67911800260967,77.07758590077633L140.73654594932742,76.19785198437954L141.42776545506774,76.40993069636806ZM133.52586974171808,75.49877771152853L134.1071225079088,76.47276883325354L135.3638852456185,75.74227549195979L138.08163466591571,76.68484754524205L140.7522554835488,79.61467567752776L138.16018233702255,78.32649387137533L137.23331981796167,79.07269674689046L135.04969456119107,78.6721036242455L135.17537083496205,77.35250274965033L133.0231646466342,76.79481428479164L132.59900722265718,76.22927105282228L133.33735533106162,75.97006373816966L131.95491631958095,75.41237527331099ZM129.6456147890394,74.38340078181118L128.97010481752045,74.89396064400574L127.44627999804746,74.89396064400574L127.76047068247487,75.61659921818881L128.81300947530676,75.27098946531865L128.0118232300168,75.82867793017732L128.7344618041999,77.32893844831827L127.79188975091762,76.14286861460475L127.0849607109559,77.34464798253964L127.36773232694058,74.75257483601341ZM131.15373007429105,74.50907705558215L130.90237752674912,74.84683204134163L130.88666799252772,75.38881097197894L130.82382985564226,74.05350056316239ZM121.17817584372038,77.55672669452815L119.76431776379698,76.84194288745576L116.57528231685865,72.60822341479624L120.31415146154498,74.95679878089123L121.30385211749136,76.33923779237189ZM126.42516027365834,74.20274113826541L126.9278653687422,74.60333426091039L125.68681216525388,76.74768568212752L123.09473901872767,76.2763996554864L122.60774345786515,75.20029656132247L122.84338647118571,74.12419346715856L124.30437315377324,73.64505267340674L125.93816471279584,71.97984204594141L127.00641303984908,72.63964248323899L126.18951726033778,73.59006930363194ZM130.14831988412328,71.3278963757545L129.7084529259249,72.56109481213213L128.9386857490777,71.57924892329643L128.20033764067327,71.86202053928112L129.72416246014626,70.73878884245309ZM110.43285443630256,72.29403273036883L109.85160167011182,72.05053494993757L109.9772779438828,70.71522454112103L110.68420698384449,71.72063473128878ZM48.411613330329416,70.58954826735007L48.050294043237884,70.63667687001417L47.97174637213103,70.59740303446074L48.33306565922256,70.25179328159058ZM129.09578109129143,70.5188553633539L128.6716236673144,71.06083429399119L128.4045615855511,70.76235314378515L129.14290969395552,70.10255270648756ZM126.70793188964302,70.93515802022023L126.12667912345228,71.35146067708656L127.14779884784141,70.03971456960207L127.22634651894825,70.39317908958292ZM128.1846281064519,69.81192632339219L128.7187522699785,69.94545736427385L128.231756709116,70.44816245935772L128.24746624333739,70.01615026827001ZM129.755581528589,69.69410481673191L129.88125780235995,70.1811003775944L129.45710037838296,70.58169350023938L129.22145736506238,69.52129994029683ZM127.9175660246886,69.67054051539985L127.49340860071158,69.12070681765186L127.87043742202448,69.13641635187324L128.0275327642382,69.29351169408694ZM127.93327555890995,66.9292267937706L128.4516901882152,67.54189862840407L128.1217899695664,68.75153276344965L129.08007155707006,68.98717577677021L129.14290969395552,69.52915470740751L127.38344186116197,68.46876114746496ZM46.38508341577255,67.04704830043087L45.67815437581085,67.17272457420185L45.662444841589476,66.98421016354538L46.0866022655665,66.92137202665991ZM41.310903862269676,67.27483654664076L40.82390830140717,67.04704830043087L41.75077082046807,67.1962888755339L41.45228967026202,67.2041436426446ZM43.33743377682655,66.3322644933585L44.484229774986645,66.42652169868671L45.191158814948345,66.88209819110648L42.50482846309388,66.99991969776677L43.43169098215478,66.85067912266373ZM123.14186762139178,66.85067912266373L122.40351951298734,66.92137202665991L122.40351951298734,66.55219797245769L123.34609156626959,66.23800728803027ZM7.126957396566155,66.67001947911797L6.9541525201310606,66.68572901333934L6.985571588573819,66.15945961692341L7.456857615214943,66.4893598355722ZM6.891314383245586,65.99450950759902L6.74992857525325,66.02592857604176L6.6242523014822865,65.86883323382804L6.812766712138725,65.87668800093873ZM6.6085427672609,65.75886649427845L6.592833233039542,65.80599509694257L6.357190219718973,65.79814032983187L6.388609288161703,65.74315696005708ZM6.215804411726623,65.69602835739296L6.011580466848812,65.70388312450365L5.933032795741937,65.58606161784337L6.042999535291543,65.52322348095788ZM5.273232358444361,65.37398290585486L5.461746769100813,65.30329000185868L5.477456303322185,65.4054019742976L5.414618166436696,65.45253057696172ZM40.22694600099507,65.06764698853812L40.80819876718581,65.17761372808772L42.63050473686486,66.15160484981273L41.075260848949114,66.34011926046918L39.315793016155546,65.12263035831292L37.917644470453524,65.44467580985102L39.11156907127772,64.87913257788166ZM41.16951805427734,64.63563479745042L40.792489232964435,64.27431551035887L40.88674643829266,63.99939866148489L41.01242271206363,64.01510819570626ZM127.87043742202448,65.05193745431674L127.39915139538336,64.72203723566795L128.0118232300168,63.96012482593146L128.21604717489464,64.09365586681311ZM40.541136685422494,63.308179155744554L41.028132246285,63.29246962152319L41.04384178050637,63.40243636107278L40.57255575386524,63.47312926506895ZM41.32661339649105,63.70877227838952L41.05955131472774,63.198212416194956L41.4051610675979,63.394581593962094ZM133.74580322081727,60.10343417458485L133.55728881016083,60.5118820643405L132.75610256487087,60.606139269668724L132.99174557819146,60.13485324302759ZM90.08900761962695,59.43577897017657L89.39778811388663,59.914919763928395L89.06788789523785,59.68713151771851L89.38207857966526,59.56145524394755ZM85.34472828477288,59.420069435955206L85.58037129809345,59.569310011058235L86.47581474871161,59.60072907950098L85.78459524297128,59.765679188825374ZM81.77866401652166,58.320402040459236L81.5901496058652,59.01947631331024L80.42764407348373,58.58746412222254L80.49048221036921,58.367530643123345ZM79.01378599356033,57.01651070008542L79.21800993843816,57.90409938359289L78.84098111712525,58.021920890253185L78.55820950114057,57.13433220674572ZM136.51068124377858,58.79168806710037L136.19649055935116,59.67142198349715L134.24850831590115,60.4019153247909L133.93431763147373,59.90706499681771L132.15914026445878,60.213400914134446L132.59900722265718,60.535446365672556L131.81353051158862,61.289504008298366L131.46792075871846,60.47260822878707L132.86606930442048,59.53789094261549L134.20137971323703,59.49861710706206L136.68348612021367,56.94581779608926ZM79.0294955277817,56.94581779608926L78.73101437757566,56.56093420766567L79.0923336646672,56.23103398901688L79.17088133577406,56.60806281032977ZM137.79886304993101,55.728328893932996L138.50579208989274,56.12106724946727L136.07081428558018,56.85941535787171L136.95054820197697,55.12351182641021ZM47.21768872950521,54.691499635322515L47.531879413932636,54.74648300509731L47.940327303688285,54.73862823798662L47.56329848237539,54.94285218286444L46.90349804507779,54.61295196421565ZM48.03458450901651,53.57612270560516L47.24910779794796,53.442591664723494L46.84065990819231,53.238367719845684L47.57900801659675,53.30906062384185ZM21.10844285358644,53.83533002025778L20.165870800304162,53.693944212265436L18.987655733701338,52.8456293643114L20.134451731861425,53.05770807629991ZM50.50098138177178,52.88490319986484L50.218209765787094,53.26193202117773L51.66348691415324,53.51328456871967L51.85200132480969,54.644371032658384L49.13425190451249,54.22806837579206L50.83088160042057,52.49216484433055ZM17.086802092915434,51.42391651727731L17.510959516892456,51.38464268172388L17.762312064434397,52.23295752967793L16.945416284923084,51.69097859904062ZM137.67318677616004,52.85348413142208L138.11305373435843,53.63110607537996L137.46896283128223,53.489720267387625L137.61034863927455,54.87215927886827L136.99767680464112,54.94285218286444L137.0448054073052,51.33751407905977ZM72.03875279927156,52.1936836941245L70.64060425356953,52.39005287189164L70.76628052734051,51.4867546541628L72.05446233349294,50.92906618930412L72.52574836013406,51.19612827106743ZM80.27054873127003,51.08616153151783L79.75213410196477,50.66200410754081L80.396225005041,50.520618299548474L80.53761081303334,50.732697011536985ZM7.802467368085104,50.24570145067449L7.519695752100418,49.931510766247065L8.619363147596403,49.868672629361576L8.242334326283512,50.08075134135009ZM73.68825389251552,49.41309613694182L73.2169678658744,49.88438216358294L74.1438303849353,49.829398793808146L73.64112528985142,50.57560166932328L75.73049334129377,51.98945974924668L75.63623613596555,52.61784111810152L72.71426277079051,53.19909388429225L73.51544901608044,52.56285774832672L72.69855323656914,52.31150520078478L72.99703438677521,51.65955953059788L73.71967296095828,51.44748081860938L72.32152441525625,50.22213714934242L72.80851997611875,49.420950904052496ZM2.4769352670403038,48.92610057607931L1.9271015692923044,48.72973139831217L2.712578280360873,48.69045756275875L2.7597068830249754,48.86326243919383ZM40.41546041165153,47.881416550358125L40.24265553521645,48.109204796568015L39.92846485078902,47.93639992013293L40.11697926144547,47.77930457791922ZM39.268664413491436,47.637918769926884L38.75024978418619,47.881416550358125L38.35751142865191,47.747885509476475L38.671702113079334,47.55151633170934ZM0.07337653117052412,47.166632743285746L0.6075006946971513,47.205906578839176L1.3929774057656914,47.37871145527426L1.0316581186741587,47.52009726326659ZM37.83909679934666,46.34973696377445L37.917644470453524,46.546106141541586L40.05414112455999,47.19805181172849L36.94365334872851,47.27659948283535ZM68.67691247589815,46.00412721090428L69.05394129721105,46.585379977095016L66.85460650621908,47.29230901705672L65.0637196049828,47.095939839289585L65.50358656318119,46.89957066152244L64.54530497567755,46.687491949533936L65.29936261830335,46.475413237545425L64.38820963346384,46.373301265106505ZM41.892156628460405,45.69779129358756L41.4051610675979,45.7213555949196L41.295194328048304,45.50927688293109L42.2220568471092,45.32861723938534ZM-1.3719006171956067,45.94914384112949L0.8745627764604507,46.20835115578211L-0.46074763235608884,46.96240879840792L-2.974273107775474,46.15336778600731L-3.5398163397448315,46.6482181139805L-3.5398163397448315,44.91231458251899ZM33.26762234092768,44.84947644563351L33.00056025916437,44.998717020736535L31.461025905469995,44.71594540475185L32.13653587698895,44.39389995321374ZM153.53981633974485,44.095422489324875L153.06853031310374,44.118983104339755L152.98998264199687,43.97759729634741L153.53981633974485,43.796962651989645L153.53981633974485,44.095422489324875ZM-3.5398163397448315,43.796962651989645L-3.53973779992846,43.796937652801645L-3.539816339744803,44.09541880300769L-3.539816339744803,44.09541880300769L-3.5398163397448315,44.095422489324875L-3.5398163397448315,43.796962651989645ZM-2.974273107775474,44.06399973456495L-3.5398163397448315,44.09541880300769L-3.5398163397448315,43.796937652801645L-2.4872775469129635,43.89904962524055ZM35.49837620036237,44.67667156919842L36.88081521184303,45.682081759366184L37.682001457132955,44.51172145987403L38.95447372906401,44.60597866520225L39.551436029476115,45.50142211582041L36.68106978336031,46.66740789701864L34.35158020220228,47.93639992013293L33.691779764904695,49.27956509606015L34.72860902351519,50.08860610846078L39.095859537056356,50.93692095641481L40.132688795666844,52.657114953654954L40.69823202763621,52.06800742035353L40.164107864109596,51.14899966840332L41.60938501247573,50.33210388889202L40.74536063030032,49.34240323294564L41.248065725384194,48.88682674052588L40.9181655067354,47.81072364636196L42.787600079078565,47.755740276587154L44.64132511720035,48.36055734410995L45.489639965154396,49.60161054759826L46.824950373970935,48.67474802853738L48.03458450901651,50.41850632710957L49.98256675246654,51.16470920262469L50.705205326649605,52.248667063899305L48.8043516858637,53.081272377631976L46.02376412868101,53.081272377631976L43.98152467990276,54.573678128662216L46.62072642909311,53.52113933583036L46.87207897663505,54.82503067620416L48.600127740985876,54.487275690444676L48.89860889119193,54.9664164841965L46.479340621100775,56.003245742806996L46.1337308682306,55.59479785305135L46.887788510856424,55.2413333330705L45.709573444253586,55.304171469955975L44.154329556337856,56.223179221906186L44.46852024076527,56.83585105653967L42.04925197067412,57.76271357560056L42.253475915551945,58.24185436935237L41.86073756001767,58.76026899865762L41.68793268358259,57.919808917814265L41.954994765345894,59.490762339951374L39.504307426812005,61.28164924118769L39.92846485078902,63.99939866148489L38.3103828259878,61.870756774489095L34.05309905199623,62.035706883813496L32.859174451172024,62.64837871844696L32.293631219202666,65.20903279653047L32.98485072494299,66.56790750667906L34.83857576306478,66.83496958844236L35.60834293991197,65.8374141653853L37.022201019835364,65.60177115206474L36.1895957061027,68.06816802482L38.608863976193845,68.33523010658331L38.436059099758765,70.15753607626236L39.47288835836926,71.16294626643011L40.27407460365919,70.80948174644925L41.46799920448339,71.23363917042627L43.69875306391808,69.57628331007163L43.71446259813946,71.04512475976982L44.484229774986645,69.69410481673191L45.238287417612455,70.39317908958292L48.00316544057377,70.32248618558675L50.061114423573386,72.39614470280773L52.6060589674355,73.16591187965493L53.01450685719115,75.03534645199808L55.5437418668319,76.17428768304748L57.55456224716741,76.25283535415434L59.47112542217467,77.25039077721141L59.848154243487585,78.20081759760436L58.12010547913677,80.69863353880237L57.13040482319039,84.57103372437034L54.20843145801536,85.85921553052277L53.67430729448874,87.50871662376674L51.5221011061609,90.00653256496474L49.5112807258254,89.79445385297623L50.218209765787094,91.09834519335004L47.79894149569594,91.93880527419338L47.62613661926086,92.90494162880772L46.58930736065037,92.92065116302908L47.31194593483344,93.57259683321598L45.63102577314673,94.87648817358979L46.21227853933746,95.99971987041782L44.829839527856805,97.13866110146722L45.2697064860552,97.84559014142893L44.01294374834551,98.48968104450515L42.300604518216055,97.8063163058755L42.00212336801001,96.23536288373839L42.661923805307595,95.48130524111258L41.98641383378864,95.3556289673416L43.27459563994107,93.49404916210914L42.56766659997937,93.86322321631135L43.59485121132098,88.7491941949981L44.38997256965841,83.62060690397739L41.829318491574924,81.38985304454269L39.551436029476115,77.67454820118843L40.19552693255233,76.15857814882612L39.69282183746846,75.4595038759751L41.34232293071241,73.32300722186864L40.88674643829266,71.36717021130794L40.28978413788056,71.10010812954462L39.70853137168982,71.84631100505975L37.619163320247466,70.66809593845691L36.81797707495755,69.19925448875871L29.84294388066877,67.01562923198813L27.52085028000321,64.02371770327443L24.925859669379612,61.12455389897397L27.250870734142538,64.88698734499235L26.056946133318334,64.20362260636271L23.826192273883642,60.58257496833667L22.365205591296125,59.89921022970702L20.715704498052155,57.4092490556197L20.590028224281184,53.97671582825012L21.51689074334209,54.448001854891245L21.406924003792483,53.623251308269275L19.396103623456995,52.82206506297934L18.072779824121014,51.211656381965824L16.489839792503332,49.6408843831517L10.802988404366985,48.43125024810612L8.80787755825287,49.185307890731934L9.279163584893993,48.25844537167104L5.870194658856462,50.5677469022126L3.10531663589515,51.258966407952926L6.4828664934899365,49.295274630281526L4.330660305162098,49.397386602720445L2.508354335483048,48.16418816634281L4.849074934467339,46.72676578508736L1.6443299533076328,46.34973696377445L4.456336578933062,46.15336778600731L2.2412922537197346,45.171521897171615L6.671380904146389,43.86763055679782L11.31610837014616,44.2794523592365L15.437300999671464,44.93587888385105L19.081912939029557,44.244659378110725L23.581926980941944,44.80237344485337L27.486513747463107,45.59567932114863L28.68043834828731,44.98300748651516L30.738387331286923,45.485712581599046L32.38788842453089,45.077264691843396L33.063398396049855,45.63495315670207L33.88029417556114,44.865185979854886L32.90630305383613,44.417464254545806L33.456136751584125,43.61627800925587ZM25.192921751142926,43.09786337995064L27.80070443189053,43.734099515916164L27.706447226562304,43.10571814706131L28.523343006073596,43.113572914172L30.895482673500638,44.637397733645L25.55424103823446,45.09297422606477L23.79477320544089,44.47244762432061L25.94697939376873,44.29964274788553L22.899329754822737,43.77337335146958ZM28.33482859541715,42.9486228048476L29.073176703821588,42.87007513374074L29.403076922470376,42.964332339068974L29.02604810115748,43.254958722164346ZM41.68793268358259,43.10571814706131L40.321203206323304,43.262813489275025L39.70853137168982,43.003606174622405L40.93387504095677,42.86222036663007ZM37.22642496471319,43.08215384572925L39.08015000283498,42.82294653107663L39.77136950857531,43.55343987237039L43.47881958481889,43.78122811858027L45.77241158113907,44.81020261008008L44.971225335849155,45.01442655495791L48.01887497479514,45.82346756735852L47.107721989955614,46.640363346869805L45.316835088719316,46.090529649121834L46.777821771306826,47.339437619720826L44.98693487007052,47.18234227750712L46.1337308682306,47.97567375568636L42.34773312088017,46.78174915486214L41.090970383170486,46.978118332629286L41.01242271206363,46.50683230598816L42.724761942193076,46.43613940199199L43.18033843461284,45.44643874604561L40.541136685422494,44.38604518610306L35.78114781634705,43.92261392657261L35.969662227003504,43.09000861283994ZM31.20967335792806,42.77581792841252L32.51356469830186,42.81509176396596L32.79633631428654,43.734099515916164L30.282810838867164,43.364925461713945ZM137.65747724193866,43.0585895443972L136.99767680464112,43.0585895443972L136.0236856829161,42.98789664040103L136.98196727041972,42.77581792841252ZM34.33587066798091,43.24710395505366L33.3618795462559,43.55343987237039L33.110526998713965,42.956477571958295L35.514085734583745,42.77581792841252ZM22.44375326240298,43.84406625546575L21.29695726424289,44.06399973456495L20.05590406075457,43.63984231058794L20.91992844292998,42.854365599519376L20.495771018952958,42.58730351775606L24.595959450730817,42.940768037736916ZM140.76796501777017,42.24169376488591L140.26525992268625,42.41449864132099L138.75714463743466,42.20241992933247L138.86711137698427,42.061034121340136ZM34.147356257324454,42.28096760043933L33.91171324400389,42.45377247687441L32.749207711622425,42.304531901771384L33.61323209379784,41.99034121734397ZM138.3015681450149,42.0296150528974L135.63094732738182,42.44591770976373L134.7669229452064,42.16314609377905L135.58381872471767,41.77826250535546ZM32.02656913743936,41.526909957813515L32.167954945431696,42.273112833328646L30.282810838867164,42.0296150528974L30.25139177042442,41.69186006713792ZM27.784994897669158,41.74684343691272L28.884662293165135,42.06888888845083L23.637677863227182,42.17885562800043L24.643088053394933,41.629021930252435ZM100.11169045286172,44.14254740567181L97.45677916945002,43.577004173702456L99.27908513912905,42.24169376488591L105.04448419837226,41.59760286180968L100.52013834261737,42.57944875064539L99.18482793380085,43.41990883148873ZM33.691779764904695,41.36195984848913L36.0796289665531,42.00605075156533L40.164107864109596,42.31238666888208L35.82827641901116,42.48519154531715L32.623531437851454,41.51120042359215ZM24.29747830052478,41.118462068057866L23.904739944990496,41.60545762892038L21.391214469571118,41.78611727246614L23.025006028593722,41.181300204943355ZM96.43565944506089,56.98509163164269L96.98549314280888,57.43281335695177L96.46707851350364,58.60317365644391L98.49360842806051,58.870235738207214L97.99090333297663,57.534925329390674L98.88634678359477,57.13433220674572L98.4464798253964,56.623772344551156L98.03803193564075,57.04792976852818L96.95407407436615,55.53195971616586L98.14799867519034,55.24918810018117L98.14799867519034,54.55796859444085L95.36741111800765,55.53195971616586ZM-3.5398163397448315,44.91229601941167L-3.53973779992846,44.91231458251899L-3.539816339744803,46.6482181139805L-3.5398163397448315,46.64822873022107L-3.5398163397448315,44.91229601941167ZM153.53981633974485,46.64822873022107L152.40872987580613,46.8131682233049L153.2099161210961,47.81857841347265L149.31395163419603,48.871117206304504L146.36055920057828,48.8789719734152L145.7007587632807,49.5859010133769L146.20346385836456,49.8608178622509L145.73217783172345,51.06259723018579L143.40716676696053,52.74351739187249L143.0301379456476,50.229991916453116L144.7380826853128,48.93904915797306L146.76900709033393,47.708611673923045L144.868153449548,48.580490823209146L143.37574769851776,48.195607234785555L142.29178983724316,48.92610057607931L142.6531091243347,49.19316265784261L137.0448054073052,49.24029126050674L133.96573669991648,51.11758059996059L136.03939521713747,51.353223613281145L136.68348612021367,52.209393228345874L135.31675664295437,54.79361160776142L132.8588506199364,56.16895387426862L130.65102497920716,57.65274683605095L131.3265349507261,59.6949862848292L130.19544848678743,59.99346743503525L129.67703385748214,57.73914927426849L127.82330881936036,58.029775657363864L128.0746613669023,57.13433220674572L126.5037079447652,57.896244616482214L126.88073676607809,58.6581570262187L128.38885205132974,58.6581570262187L126.99070350562769,59.765679188825374L128.1846281064519,61.17168250163808L128.09037090112366,62.687652554000394L125.5611358914829,65.05979222142743L123.18899622405587,66.12804054848067L122.35639091032323,65.52322348095788L121.19388537794177,66.37939309602261L122.70200066319339,69.14427111898392L122.65487206052927,69.90618352872042L120.87969469351435,71.24934870464764L118.68035990252238,69.15212588609461L118.2876215469881,70.96657708866297L119.9214131060107,72.59251388057488L120.47124680375867,74.43838415158598L119.24590313449174,73.79429324850976L117.9105927256752,71.6028132246285L117.39217809636995,67.61259153240023L116.10399629021754,68.00532988793451L114.89436215517196,65.06764698853812L112.94637991172193,65.61748068628611L110.05582561498963,68.06031325770931L109.85160167011182,70.47958152780046L108.8304819457227,71.52426555352164L106.69398529161622,65.68031882317159L105.75141323833397,65.8923975351601L103.96052633709766,63.905141456156656L100.04885231597625,63.771610415275L99.65611396044197,63.15893858064153L97.47248870367139,62.84474789621411L96.85981686903791,61.847192473157044L95.93295434997701,61.91788537715321L97.59816497744235,64.51781329079013L99.59327582355648,63.480984032179634L99.7974997684343,64.42355608546191L101.10139110880812,65.26401616630525L99.12198979691536,67.47906049151858L93.96926257230562,69.48988087185408L93.6079432852141,67.6832844363964L90.2303934276193,62.12996408914172L89.80623600364228,62.93900510154233L89.14643556634469,61.972868746928015L91.36147989155802,66.8742434239958L93.63936235365684,69.88261922738836L94.4719676673895,70.44030769224703L97.2996838272363,69.7569429536174L97.26826475879356,70.3539052540295L95.83869714464879,73.15805711254424L92.09982799996247,77.0383120652229L92.7910475057028,81.41341734587475L90.18326482495519,83.63631643819876L90.52887457782535,85.34080090121752L89.20927370323018,86.228389584725L89.05217836101647,87.54799045932016L86.25588126961242,89.8101633871976L83.01971722000997,89.89656582541515L80.14487245749906,82.88225879557295L80.97747777123172,79.68536858152393L78.84098111712525,75.48306817730716L79.10804319888855,73.37013582453275L77.56850884519419,73.14234757832287L76.89299887367524,72.26261366192608L71.06476167754656,72.89099503078093L67.75004995683726,69.68625004962122L67.59295461462355,65.45253057696172L69.84237077662199,62.37548281924326L72.41578162058447,59.396505134623155L75.75072720901873,58.941785598219816L79.15517180155268,58.70528562888282L79.846391307293,58.901654806649965L79.5164910886442,60.26052951679856L83.3339079044374,61.79220910338224L84.40215623149062,60.668977406554205L89.74339786675681,61.48587318606551L90.78022712536729,59.01162154619956L87.05706751490234,59.00376677908888L86.41297661182612,57.77842310982192L89.61772159298583,56.66304618010457L91.73850871287092,57.13433220674572L93.19949539545846,56.68661048143663L91.00016060446649,55.257042867291865L92.06840893151971,54.37730895089508L90.26181249606203,54.80932114198279L90.85877479647415,55.31202623706667L89.79052646942091,55.641926455715456L89.16214510056608,55.225623798849114L89.5234643876576,54.895723580200325L88.42379699216163,54.67579010110114L87.07277704912372,56.419548399673324L87.57548214420758,57.087203604081594L84.87344225813176,57.43281335695177L85.48611409276523,58.57175458800117L84.81060412124627,59.11373351863847L83.52242231509385,56.79657722098624L80.74183475791115,55.04496415530336L80.49048221036921,55.75974796237574L83.06684582267408,57.4720871925052L82.35991678271239,57.35426568584491L82.03001656406359,58.42251401289815L81.73153541385753,57.52707056227999L78.872400185568,55.641926455715456L76.35887471014863,56.20746968768482L74.06528271382844,58.99591201197819L71.11189028021067,58.909509573760644L70.90766633533285,56.223179221906186L74.39518293247724,55.791167030818485L74.47373060358409,54.919287881532384L72.99703438677521,53.756782349150924L74.30092572714901,53.7724918833723L74.15953991915667,53.277641555399114L78.5424999669192,51.64384999637652L78.73101437757566,50.08075134135009L79.61074829397243,49.81368925958677L79.21800993843816,50.79553514842247L79.76784363618614,51.431771284388006L83.58526045197934,51.25111164084223L84.41786576571201,49.94722030046844L85.51753316120796,50.12002517690351L85.18763294255918,49.17745312362125L87.70115841797856,48.80827906941903L84.3078990261624,48.501943152102285L84.40215623149062,47.425840057938366L86.08307639317732,46.5932347442057L84.68492784747531,46.32617266244239L82.78407420668941,47.62220923570551L82.46988352226198,48.23488107033897L83.19252209644506,48.78471476808697L81.93575935873537,50.520618299548474L80.64757755258293,50.84266375108658L79.5164910886442,49.05177684985028L77.47425163986597,49.436660438273876L77.17577048965993,47.959964221464986L79.07249698253233,46.653078219876264L81.43305426365148,45.41501967760287L85.70604757186443,44.009016364790156L89.60943951547355,44.70110874024166L92.91672377947377,45.56426025270589L91.7542182470923,46.20049638867142L89.4763357849935,45.925579539797425L91.15725594668021,47.14306844195369L91.22009408356568,46.57752520998433L94.17348651718346,46.16907732022868L93.95355303808427,45.077264691843396L95.17889670735121,45.21865049983573L95.22602531001532,45.90987000557606L98.4464798253964,44.951588418072426L101.14851971147223,45.21079573272504L101.41558179323553,44.51957622698471L104.88738885615854,45.2893434038319L104.10191214508998,44.009016364790156L105.18587000636461,43.215684886610916L106.67827575739484,43.24710395505366L106.34837553874605,43.84406625546575L107.149561784036,45.14795759583956L106.09702299120411,46.059110580679075L106.599728086288,46.12980348467525L107.74652408444808,45.43072921182424L106.89820923649405,43.82835672124438L107.57371920801302,43.223539653721595L108.31206731641745,43.95403299501535L110.55853071007351,43.69482568036274L110.13437328609649,42.86222036663007L112.88354177483643,42.7365440928591L113.04063711705015,42.22598423066454L117.07671969188605,41.734586799334615L121.68088093880425,41.41694321826393L121.68088093880425,41.41694321826393L124.80707824885712,41.90393877912643L122.73341973163612,42.634432120420186L130.39967243166524,42.90149420218349L132.28481653822976,44.11112833722906L136.0236856829161,43.80479241991233L135.70949499848865,43.40419929726737L136.29074776467937,43.215684886610916L143.32088942531055,43.87495886841589L148.99976094976864,45.030136089179265L149.37678977108152,44.417464254545806L151.6703817674017,44.51172145987403L153.53981633974485,44.91229601941167L153.53981633974485,46.64822873022107ZM34.05309905199623,41.17344543783267L33.031979327607104,41.1577359036113L32.922012588057505,41.03991439695102L33.801746504454286,41.0477691640617ZM25.459983832906232,41.07918823250445L27.06235632348608,40.96922149295485L26.920970515493742,41.09489776672582L26.10407473598245,41.220574040496786ZM85.78459524297128,41.032059629840326L84.81060412124627,41.20486450627542L84.04083694439909,41.11060730094719L84.98340899768137,40.76499754807701ZM27.15661352881432,40.70215941119154L26.62248936528769,40.78856184940908L25.899850791104626,40.78856184940908L26.355427283524385,40.59219267164194ZM33.18907466982082,40.93780242451211L32.18366447965307,40.929947657401414L31.963731000553878,40.58433790453126L33.29904140937042,40.780707082298385ZM31.335349631699025,40.82783568496251L29.104595772264332,40.79641661651977L29.528753196241354,40.6707403427488L28.96320996427199,40.3958234938748ZM120.84827562507161,40.83569045207319L118.38187875231633,41.00064056139759L119.54438428469777,40.38011395965343ZM82.95687908312448,40.22301861743972L84.40215623149062,40.54506406897783L81.93575935873537,41.503345656481464L79.56361969130833,40.24658291877178ZM86.96281030957412,40.065923275226005L82.57985026181157,39.95595653567641L84.99911853190272,39.80671596057339L86.09878592739871,39.916682700122976ZM97.31539336145767,39.8538445632375L95.76014947354193,40.08948757655807L94.56622487271773,39.83813502901613L97.48819823789275,39.79100642635201ZM118.60181223141552,40.58433790453126L116.43389650886631,40.513645000535085L114.78439541562236,39.94810176856573L116.85805393284332,39.54750864592076ZM37.037910554056744,40.23872815166109L37.556325183361984,40.38011395965343L35.3726999265914,40.87496428762662L32.79633631428654,40.02664943967258L34.681480420851074,39.54750864592076ZM45.11261114384149,38.73846763352015L48.01887497479514,38.94269157839797L44.12482733425952,39.63294837375423L41.436580136040654,40.387968726764115L42.09638057333823,40.733578479634275L39.849917179682166,41.762552971134085L35.95395269278213,41.629021930252435L36.48807685630875,41.008495328508275L37.917644470453524,41.16559067072198L36.61375313007972,40.80427138363045L37.870515867789415,40.38011395965343L37.06932962249948,39.987375604119144L39.28437394771281,39.893118398790925L35.042799707942606,39.26473702993608ZM63.178575498418255,38.55780798997438L65.91203445293684,38.90341774284455L61.07349791275453,39.13120598905443L69.66661313184453,39.53179911169939L66.257644205807,40.0187946725619L67.26305439597475,40.03450420678327L66.39903001379933,40.63932127430604L66.93315417732596,41.40908845115324L65.53500563162393,41.566183793366946L66.54041582179167,42.57944875064539L64.183985688586,43.44347313282079L65.50358656318119,44.166111707003864L63.85408546993722,43.836211488355076L63.49276618284568,44.354626117660324L65.25223401563925,44.40175472032443L61.05980129810896,45.31843394359541L57.63310991827426,46.43613940199199L56.07786603035852,48.776860000976285L53.941369376252055,48.44695978232748L52.464673159443166,47.23732564728192L51.459262969275414,45.682081759366184L52.81028291231333,44.48815715854197L51.145072284847984,44.629542966534316L51.286458092840334,44.09541880300769L52.574639898992764,44.205385542557295L50.642367189764116,43.734099515916164L51.12936275062662,43.32565162616052L49.43273305471854,42.05317935422946L45.11261114384149,41.809681573798194L43.840138871910426,41.401233684042545L45.8666687864673,41.23628357471816L43.023243092399134,40.945657191622786L46.32224527888707,40.35654965832137L45.316835088719316,40.04235897389395L47.657555687703606,39.319720399710874L55.57516093527464,39.366849002374984L54.60116981354963,38.95054634550866Z"/><path class="graticule" d="M-3.5398163397448315,114.2699077335401L-3.5398163397448315,104.452430691072L-3.5398163397448315,94.6349536486039L-3.5398163397448315,84.81747660613578L-3.5398163397448315,74.99999956366769L-3.5398163397448315,65.18252273936574L-3.5398163397448315,55.36504591506379L-3.5398163397448315,45.54756909076185L-3.5398163397448315,35.7300922664599M9.550153050212643,114.2699077335401L9.550153050212643,104.452430691072L9.550153050212643,94.6349536486039L9.550153050212643,84.8174766061358L9.550153050212643,74.99999956366769L9.550153050212643,65.18252273936574L9.550153050212643,55.36504591506379L9.550153050212643,45.54756909076185L9.550153050212643,35.7300922664599M22.640122440170117,114.2699077335401L22.640122440170117,104.452430691072L22.640122440170117,94.6349536486039L22.640122440170117,84.8174766061358L22.640122440170117,74.99999956366769L22.640122440170117,65.18252273936574L22.640122440170117,55.36504591506379L22.640122440170117,45.54756909076185L22.640122440170117,35.7300922664599M35.730091830127584,114.2699077335401L35.730091830127584,104.452430691072L35.730091830127584,94.6349536486039L35.730091830127584,84.81747660613578L35.730091830127584,74.99999956366769L35.730091830127584,65.18252273936574L35.730091830127584,55.36504591506379L35.730091830127584,45.54756909076185L35.730091830127584,35.7300922664599M48.82006122008506,114.2699077335401L48.82006122008506,104.452430691072L48.82006122008506,94.6349536486039L48.82006122008506,84.81747660613578L48.82006122008506,74.99999956366769L48.82006122008506,65.18252273936574L48.82006122008506,55.36504591506379L48.82006122008506,45.54756909076185L48.82006122008506,35.7300922664599M61.910030610042526,114.2699077335401L61.910030610042526,104.452430691072L61.910030610042526,94.6349536486039L61.910030610042526,84.8174766061358L61.910030610042526,74.99999956366769L61.910030610042526,65.18252273936574L61.910030610042526,55.36504591506379L61.910030610042526,45.54756909076185L61.910030610042526,35.7300922664599M75,114.2699077335401L75,104.452430691072L75,94.6349536486039L75,84.81747660613578L75,74.99999956366769L75,65.18252273936574L75,55.36504591506379L75,45.54756909076185L75,35.7300922664599M88.08996938995747,114.2699077335401L88.08996938995747,104.452430691072L88.08996938995747,94.6349536486039L88.08996938995747,84.8174766061358L88.08996938995747,74.99999956366769L88.08996938995747,65.18252273936574L88.08996938995747,55.36504591506379L88.08996938995747,45.54756909076185L88.08996938995747,35.7300922664599M101.17993877991495,114.2699077335401L101.17993877991495,104.452430691072L101.17993877991495,94.6349536486039L101.17993877991495,84.81747660613578L101.17993877991495,74.99999956366769L101.17993877991495,65.18252273936574L101.17993877991495,55.36504591506379L101.17993877991495,45.54756909076185L101.17993877991495,35.7300922664599M114.26990816987242,114.2699077335401L114.26990816987242,104.452430691072L114.26990816987242,94.6349536486039L114.26990816987242,84.81747660613578L114.26990816987242,74.99999956366769L114.26990816987242,65.18252273936574L114.26990816987242,55.36504591506379L114.26990816987242,45.54756909076185L114.26990816987242,35.7300922664599M127.35987755982988,114.2699077335401L127.35987755982988,104.452430691072L127.35987755982988,94.6349536486039L127.35987755982988,84.8174766061358L127.35987755982988,74.99999956366769L127.35987755982988,65.18252273936574L127.35987755982988,55.36504591506379L127.35987755982988,45.54756909076185L127.35987755982988,35.7300922664599M140.44984694978734,114.2699077335401L140.44984694978734,104.452430691072L140.44984694978734,94.6349536486039L140.44984694978734,84.8174766061358L140.44984694978734,74.99999956366769L140.44984694978734,65.18252273936574L140.44984694978734,55.36504591506379L140.44984694978734,45.54756909076185L140.44984694978734,35.7300922664599M-3.5398163397448315,101.17993877991495L-2.4489855572483776,101.17993877991495L-1.3581547747519238,101.17993877991495L-0.26732399225547,101.17993877991495L0.823506790240998,101.17993877991495L1.9143375727374519,101.17993877991495L3.0051683552339057,101.17993877991495L4.0959991377303595,101.17993877991495L5.1868299202268275,101.17993877991495L6.277660702723281,101.17993877991495L7.368491485219735,101.17993877991495L8.459322267716189,101.17993877991495L9.550153050212643,101.17993877991495L10.640983832709097,101.17993877991495L11.73181461520555,101.17993877991495L12.822645397702018,101.17993877991495L13.913476180198472,101.17993877991495L15.004306962694926,101.17993877991495L16.09513774519138,101.17993877991495L17.185968527687834,101.17993877991495L18.276799310184288,101.17993877991495L19.36763009268074,101.17993877991495L20.458460875177195,101.17993877991495L21.54929165767365,101.17993877991495L22.640122440170117,101.17993877991495L23.73095322266657,101.17993877991495L24.821784005163025,101.17993877991495L25.912614787659486,101.17993877991495L27.00344557015594,101.17993877991495L28.094276352652393,101.17993877991495L29.185107135148847,101.17993877991495L30.275937917645308,101.17993877991495L31.366768700141762,101.17993877991495L32.457599482638216,101.17993877991495L33.54843026513467,101.17993877991495L34.63926104763113,101.17993877991495L35.730091830127584,101.17993877991495L36.82092261262404,101.17993877991495L37.9117533951205,101.17993877991495L39.00258417761695,101.17993877991495L40.093414960113414,101.17993877991495L41.18424574260987,101.17993877991495L42.27507652510632,101.17993877991495L43.365907307602775,101.17993877991495L44.456738090099236,101.17993877991495L45.54756887259569,101.17993877991495L46.638399655092144,101.17993877991495L47.7292304375886,101.17993877991495L48.82006122008506,101.17993877991495L49.91089200258151,101.17993877991495L51.00172278507797,101.17993877991495L52.09255356757443,101.17993877991495L53.18338435007088,101.17993877991495L54.274215132567335,101.17993877991495L55.36504591506379,101.17993877991495L56.45587669756025,101.17993877991495L57.54670748005671,101.17993877991495L58.637538262553164,101.17993877991495L59.72836904504962,101.17993877991495L60.81919982754607,101.17993877991495L61.910030610042526,101.17993877991495L63.00086139253899,101.17993877991495L64.09169217503543,101.17993877991495L65.1825229575319,101.17993877991495L66.27335374002836,101.17993877991495L67.36418452252481,101.17993877991495L68.45501530502126,101.17993877991495L69.54584608751772,101.17993877991495L70.63667687001417,101.17993877991495L71.72750765251064,101.17993877991495L72.81833843500709,101.17993877991495L73.90916921750355,101.17993877991495L75,101.17993877991495L76.09083078249645,101.17993877991495L77.18166156499291,101.17993877991495L78.27249234748936,101.17993877991495L79.36332312998583,101.17993877991495L80.45415391248228,101.17993877991495L81.54498469497874,101.17993877991495L82.63581547747519,101.17993877991495L83.72664625997164,101.17993877991495L84.8174770424681,101.17993877991495L85.90830782496457,101.17993877991495L86.99913860746102,101.17993877991495L88.08996938995747,101.17993877991495L89.18080017245393,101.17993877991495L90.27163095495038,101.17993877991495L91.36246173744684,101.17993877991495L92.45329251994329,101.17993877991495L93.54412330243974,101.17993877991495L94.63495408493621,101.17993877991495L95.72578486743267,101.17993877991495L96.81661564992912,101.17993877991495L97.90744643242557,101.17993877991495L98.99827721492203,101.17993877991495L100.0891079974185,101.17993877991495L101.17993877991495,101.17993877991495L102.2707695624114,101.17993877991495L103.36160034490786,101.17993877991495L104.45243112740431,101.17993877991495L105.54326190990076,101.17993877991495L106.63409269239722,101.17993877991495L107.72492347489367,101.17993877991495L108.81575425739013,101.17993877991495L109.90658503988658,101.17993877991495L110.99741582238305,101.17993877991495L112.0882466048795,101.17993877991495L113.17907738737597,101.17993877991495L114.26990816987242,101.17993877991495L115.36073895236888,101.17993877991495L116.45156973486533,101.17993877991495L117.54240051736178,101.17993877991495L118.63323129985824,101.17993877991495L119.72406208235469,101.17993877991495L120.81489286485115,101.17993877991495L121.9057236473476,101.17993877991495L122.99655442984405,101.17993877991495L124.08738521234051,101.17993877991495L125.17821599483698,101.17993877991495L126.26904677733343,101.17993877991495L127.35987755982988,101.17993877991495L128.45070834232635,101.17993877991495L129.5415391248228,101.17993877991495L130.63236990731926,101.17993877991495L131.7232006898157,101.17993877991495L132.81403147231217,101.17993877991495L133.90486225480862,101.17993877991495L134.99569303730507,101.17993877991495L136.08652381980153,101.17993877991495L137.17735460229798,101.17993877991495L138.26818538479444,101.17993877991495L139.35901616729092,101.17993877991495L140.44984694978734,101.17993877991495L141.54067773228383,101.17993877991495L142.63150851478025,101.17993877991495L143.72233929727673,101.17993877991495L144.81317007977316,101.17993877991495L145.90400086226964,101.17993877991495L146.9948316447661,101.17993877991495L148.08566242726255,101.17993877991495L149.176493209759,101.17993877991495L150.26732399225546,101.17993877991495L151.35815477475194,101.17993877991495L152.44898555724836,101.17993877991495L153.53981633974485,101.17993877991495M-3.5398163397448315,88.08996938995747L-2.4489855572483776,88.08996938995747L-1.3581547747519238,88.08996938995747L-0.26732399225547,88.08996938995747L0.823506790240998,88.08996938995747L1.9143375727374519,88.08996938995747L3.0051683552339057,88.08996938995747L4.0959991377303595,88.08996938995747L5.1868299202268275,88.08996938995747L6.277660702723281,88.08996938995747L7.368491485219735,88.08996938995747L8.459322267716189,88.08996938995747L9.550153050212643,88.08996938995747L10.640983832709097,88.08996938995747L11.73181461520555,88.08996938995747L12.822645397702018,88.08996938995747L13.913476180198472,88.08996938995747L15.004306962694926,88.08996938995747L16.09513774519138,88.08996938995747L17.185968527687834,88.08996938995747L18.276799310184288,88.08996938995747L19.36763009268074,88.08996938995747L20.458460875177195,88.08996938995747L21.54929165767365,88.08996938995747L22.640122440170117,88.08996938995747L23.73095322266657,88.08996938995747L24.821784005163025,88.08996938995747L25.912614787659486,88.08996938995747L27.00344557015594,88.08996938995747L28.094276352652393,88.08996938995747L29.185107135148847,88.08996938995747L30.275937917645308,88.08996938995747L31.366768700141762,88.08996938995747L32.457599482638216,88.08996938995747L33.54843026513467,88.08996938995747L34.63926104763113,88.08996938995747L35.730091830127584,88.08996938995747L36.82092261262404,88.08996938995747L37.9117533951205,88.08996938995747L39.00258417761695,88.08996938995747L40.093414960113414,88.08996938995747L41.18424574260987,88.08996938995747L42.27507652510632,88.08996938995747L43.365907307602775,88.08996938995747L44.456738090099236,88.08996938995747L45.54756887259569,88.08996938995747L46.638399655092144,88.08996938995747L47.7292304375886,88.08996938995747L48.82006122008506,88.08996938995747L49.91089200258151,88.08996938995747L51.00172278507797,88.08996938995747L52.09255356757443,88.08996938995747L53.18338435007088,88.08996938995747L54.274215132567335,88.08996938995747L55.36504591506379,88.08996938995747L56.45587669756025,88.08996938995747L57.54670748005671,88.08996938995747L58.637538262553164,88.08996938995747L59.72836904504962,88.08996938995747L60.81919982754607,88.08996938995747L61.910030610042526,88.08996938995747L63.00086139253899,88.08996938995747L64.09169217503543,88.08996938995747L65.1825229575319,88.08996938995747L66.27335374002836,88.08996938995747L67.36418452252481,88.08996938995747L68.45501530502126,88.08996938995747L69.54584608751772,88.08996938995747L70.63667687001417,88.08996938995747L71.72750765251064,88.08996938995747L72.81833843500709,88.08996938995747L73.90916921750355,88.08996938995747L75,88.08996938995747L76.09083078249645,88.08996938995747L77.18166156499291,88.08996938995747L78.27249234748936,88.08996938995747L79.36332312998583,88.08996938995747L80.45415391248228,88.08996938995747L81.54498469497874,88.08996938995747L82.63581547747519,88.08996938995747L83.72664625997164,88.08996938995747L84.8174770424681,88.08996938995747L85.90830782496457,88.08996938995747L86.99913860746102,88.08996938995747L88.08996938995747,88.08996938995747L89.18080017245393,88.08996938995747L90.27163095495038,88.08996938995747L91.36246173744684,88.08996938995747L92.45329251994329,88.08996938995747L93.54412330243974,88.08996938995747L94.63495408493621,88.08996938995747L95.72578486743267,88.08996938995747L96.81661564992912,88.08996938995747L97.90744643242557,88.08996938995747L98.99827721492203,88.08996938995747L100.0891079974185,88.08996938995747L101.17993877991495,88.08996938995747L102.2707695624114,88.08996938995747L103.36160034490786,88.08996938995747L104.45243112740431,88.08996938995747L105.54326190990076,88.08996938995747L106.63409269239722,88.08996938995747L107.72492347489367,88.08996938995747L108.81575425739013,88.08996938995747L109.90658503988658,88.08996938995747L110.99741582238305,88.08996938995747L112.0882466048795,88.08996938995747L113.17907738737597,88.08996938995747L114.26990816987242,88.08996938995747L115.36073895236888,88.08996938995747L116.45156973486533,88.08996938995747L117.54240051736178,88.08996938995747L118.63323129985824,88.08996938995747L119.72406208235469,88.08996938995747L120.81489286485115,88.08996938995747L121.9057236473476,88.08996938995747L122.99655442984405,88.08996938995747L124.08738521234051,88.08996938995747L125.17821599483698,88.08996938995747L126.26904677733343,88.08996938995747L127.35987755982988,88.08996938995747L128.45070834232635,88.08996938995747L129.5415391248228,88.08996938995747L130.63236990731926,88.08996938995747L131.7232006898157,88.08996938995747L132.81403147231217,88.08996938995747L133.90486225480862,88.08996938995747L134.99569303730507,88.08996938995747L136.08652381980153,88.08996938995747L137.17735460229798,88.08996938995747L138.26818538479444,88.08996938995747L139.35901616729092,88.08996938995747L140.44984694978734,88.08996938995747L141.54067773228383,88.08996938995747L142.63150851478025,88.08996938995747L143.72233929727673,88.08996938995747L144.81317007977316,88.08996938995747L145.90400086226964,88.08996938995747L146.9948316447661,88.08996938995747L148.08566242726255,88.08996938995747L149.176493209759,88.08996938995747L150.26732399225546,88.08996938995747L151.35815477475194,88.08996938995747L152.44898555724836,88.08996938995747L153.53981633974485,88.08996938995747M-3.5398163397448315,75L-2.4489855572483776,75L-1.3581547747519238,75L-0.26732399225547,75L0.823506790240998,75L1.9143375727374519,75L3.0051683552339057,75L4.0959991377303595,75L5.1868299202268275,75L6.277660702723281,75L7.368491485219735,75L8.459322267716189,75L9.550153050212643,75L10.640983832709097,75L11.73181461520555,75L12.822645397702018,75L13.913476180198472,75L15.004306962694926,75L16.09513774519138,75L17.185968527687834,75L18.276799310184288,75L19.36763009268074,75L20.458460875177195,75L21.54929165767365,75L22.640122440170117,75L23.73095322266657,75L24.821784005163025,75L25.912614787659486,75L27.00344557015594,75L28.094276352652393,75L29.185107135148847,75L30.275937917645308,75L31.366768700141762,75L32.457599482638216,75L33.54843026513467,75L34.63926104763113,75L35.730091830127584,75L36.82092261262404,75L37.9117533951205,75L39.00258417761695,75L40.093414960113414,75L41.18424574260987,75L42.27507652510632,75L43.365907307602775,75L44.456738090099236,75L45.54756887259569,75L46.638399655092144,75L47.7292304375886,75L48.82006122008506,75L49.91089200258151,75L51.00172278507797,75L52.09255356757443,75L53.18338435007088,75L54.274215132567335,75L55.36504591506379,75L56.45587669756025,75L57.54670748005671,75L58.637538262553164,75L59.72836904504962,75L60.81919982754607,75L61.910030610042526,75L63.00086139253899,75L64.09169217503543,75L65.1825229575319,75L66.27335374002836,75L67.36418452252481,75L68.45501530502126,75L69.54584608751772,75L70.63667687001417,75L71.72750765251064,75L72.81833843500709,75L73.90916921750355,75L75,75L76.09083078249645,75L77.18166156499291,75L78.27249234748936,75L79.36332312998583,75L80.45415391248228,75L81.54498469497874,75L82.63581547747519,75L83.72664625997164,75L84.8174770424681,75L85.90830782496457,75L86.99913860746102,75L88.08996938995747,75L89.18080017245393,75L90.27163095495038,75L91.36246173744684,75L92.45329251994329,75L93.54412330243974,75L94.63495408493621,75L95.72578486743267,75L96.81661564992912,75L97.90744643242557,75L98.99827721492203,75L100.0891079974185,75L101.17993877991495,75L102.2707695624114,75L103.36160034490786,75L104.45243112740431,75L105.54326190990076,75L106.63409269239722,75L107.72492347489367,75L108.81575425739013,75L109.90658503988658,75L110.99741582238305,75L112.0882466048795,75L113.17907738737597,75L114.26990816987242,75L115.36073895236888,75L116.45156973486533,75L117.54240051736178,75L118.63323129985824,75L119.72406208235469,75L120.81489286485115,75L121.9057236473476,75L122.99655442984405,75L124.08738521234051,75L125.17821599483698,75L126.26904677733343,75L127.35987755982988,75L128.45070834232635,75L129.5415391248228,75L130.63236990731926,75L131.7232006898157,75L132.81403147231217,75L133.90486225480862,75L134.99569303730507,75L136.08652381980153,75L137.17735460229798,75L138.26818538479444,75L139.35901616729092,75L140.44984694978734,75L141.54067773228383,75L142.63150851478025,75L143.72233929727673,75L144.81317007977316,75L145.90400086226964,75L146.9948316447661,75L148.08566242726255,75L149.176493209759,75L150.26732399225546,75L151.35815477475194,75L152.44898555724836,75L153.53981633974485,75M-3.5398163397448315,61.910030610042526L-2.4489855572483776,61.910030610042526L-1.3581547747519238,61.910030610042526L-0.26732399225547,61.910030610042526L0.823506790240998,61.910030610042526L1.9143375727374519,61.910030610042526L3.0051683552339057,61.910030610042526L4.0959991377303595,61.910030610042526L5.1868299202268275,61.910030610042526L6.277660702723281,61.910030610042526L7.368491485219735,61.910030610042526L8.459322267716189,61.910030610042526L9.550153050212643,61.910030610042526L10.640983832709097,61.910030610042526L11.73181461520555,61.910030610042526L12.822645397702018,61.910030610042526L13.913476180198472,61.910030610042526L15.004306962694926,61.910030610042526L16.09513774519138,61.910030610042526L17.185968527687834,61.910030610042526L18.276799310184288,61.910030610042526L19.36763009268074,61.910030610042526L20.458460875177195,61.910030610042526L21.54929165767365,61.910030610042526L22.640122440170117,61.910030610042526L23.73095322266657,61.910030610042526L24.821784005163025,61.910030610042526L25.912614787659486,61.910030610042526L27.00344557015594,61.910030610042526L28.094276352652393,61.910030610042526L29.185107135148847,61.910030610042526L30.275937917645308,61.910030610042526L31.366768700141762,61.910030610042526L32.457599482638216,61.910030610042526L33.54843026513467,61.910030610042526L34.63926104763113,61.910030610042526L35.730091830127584,61.910030610042526L36.82092261262404,61.910030610042526L37.9117533951205,61.910030610042526L39.00258417761695,61.910030610042526L40.093414960113414,61.910030610042526L41.18424574260987,61.910030610042526L42.27507652510632,61.910030610042526L43.365907307602775,61.910030610042526L44.456738090099236,61.910030610042526L45.54756887259569,61.910030610042526L46.638399655092144,61.910030610042526L47.7292304375886,61.910030610042526L48.82006122008506,61.910030610042526L49.91089200258151,61.910030610042526L51.00172278507797,61.910030610042526L52.09255356757443,61.910030610042526L53.18338435007088,61.910030610042526L54.274215132567335,61.910030610042526L55.36504591506379,61.910030610042526L56.45587669756025,61.910030610042526L57.54670748005671,61.910030610042526L58.637538262553164,61.910030610042526L59.72836904504962,61.910030610042526L60.81919982754607,61.910030610042526L61.910030610042526,61.910030610042526L63.00086139253899,61.910030610042526L64.09169217503543,61.910030610042526L65.1825229575319,61.910030610042526L66.27335374002836,61.910030610042526L67.36418452252481,61.910030610042526L68.45501530502126,61.910030610042526L69.54584608751772,61.910030610042526L70.63667687001417,61.910030610042526L71.72750765251064,61.910030610042526L72.81833843500709,61.910030610042526L73.90916921750355,61.910030610042526L75,61.910030610042526L76.09083078249645,61.910030610042526L77.18166156499291,61.910030610042526L78.27249234748936,61.910030610042526L79.36332312998583,61.910030610042526L80.45415391248228,61.910030610042526L81.54498469497874,61.910030610042526L82.63581547747519,61.910030610042526L83.72664625997164,61.910030610042526L84.8174770424681,61.910030610042526L85.90830782496457,61.910030610042526L86.99913860746102,61.910030610042526L88.08996938995747,61.910030610042526L89.18080017245393,61.910030610042526L90.27163095495038,61.910030610042526L91.36246173744684,61.910030610042526L92.45329251994329,61.910030610042526L93.54412330243974,61.910030610042526L94.63495408493621,61.910030610042526L95.72578486743267,61.910030610042526L96.81661564992912,61.910030610042526L97.90744643242557,61.910030610042526L98.99827721492203,61.910030610042526L100.0891079974185,61.910030610042526L101.17993877991495,61.910030610042526L102.2707695624114,61.910030610042526L103.36160034490786,61.910030610042526L104.45243112740431,61.910030610042526L105.54326190990076,61.910030610042526L106.63409269239722,61.910030610042526L107.72492347489367,61.910030610042526L108.81575425739013,61.910030610042526L109.90658503988658,61.910030610042526L110.99741582238305,61.910030610042526L112.0882466048795,61.910030610042526L113.17907738737597,61.910030610042526L114.26990816987242,61.910030610042526L115.36073895236888,61.910030610042526L116.45156973486533,61.910030610042526L117.54240051736178,61.910030610042526L118.63323129985824,61.910030610042526L119.72406208235469,61.910030610042526L120.81489286485115,61.910030610042526L121.9057236473476,61.910030610042526L122.99655442984405,61.910030610042526L124.08738521234051,61.910030610042526L125.17821599483698,61.910030610042526L126.26904677733343,61.910030610042526L127.35987755982988,61.910030610042526L128.45070834232635,61.910030610042526L129.5415391248228,61.910030610042526L130.63236990731926,61.910030610042526L131.7232006898157,61.910030610042526L132.81403147231217,61.910030610042526L133.90486225480862,61.910030610042526L134.99569303730507,61.910030610042526L136.08652381980153,61.910030610042526L137.17735460229798,61.910030610042526L138.26818538479444,61.910030610042526L139.35901616729092,61.910030610042526L140.44984694978734,61.910030610042526L141.54067773228383,61.910030610042526L142.63150851478025,61.910030610042526L143.72233929727673,61.910030610042526L144.81317007977316,61.910030610042526L145.90400086226964,61.910030610042526L146.9948316447661,61.910030610042526L148.08566242726255,61.910030610042526L149.176493209759,61.910030610042526L150.26732399225546,61.910030610042526L151.35815477475194,61.910030610042526L152.44898555724836,61.910030610042526L153.53981633974485,61.910030610042526M-3.5398163397448315,48.82006122008506L-2.4489855572483776,48.82006122008506L-1.3581547747519238,48.82006122008506L-0.26732399225547,48.82006122008506L0.823506790240998,48.82006122008506L1.9143375727374519,48.82006122008506L3.0051683552339057,48.82006122008506L4.0959991377303595,48.82006122008506L5.1868299202268275,48.82006122008506L6.277660702723281,48.82006122008506L7.368491485219735,48.82006122008506L8.459322267716189,48.82006122008506L9.550153050212643,48.82006122008506L10.640983832709097,48.82006122008506L11.73181461520555,48.82006122008506L12.822645397702018,48.82006122008506L13.913476180198472,48.82006122008506L15.004306962694926,48.82006122008506L16.09513774519138,48.82006122008506L17.185968527687834,48.82006122008506L18.276799310184288,48.82006122008506L19.36763009268074,48.82006122008506L20.458460875177195,48.82006122008506L21.54929165767365,48.82006122008506L22.640122440170117,48.82006122008506L23.73095322266657,48.82006122008506L24.821784005163025,48.82006122008506L25.912614787659486,48.82006122008506L27.00344557015594,48.82006122008506L28.094276352652393,48.82006122008506L29.185107135148847,48.82006122008506L30.275937917645308,48.82006122008506L31.366768700141762,48.82006122008506L32.457599482638216,48.82006122008506L33.54843026513467,48.82006122008506L34.63926104763113,48.82006122008506L35.730091830127584,48.82006122008506L36.82092261262404,48.82006122008506L37.9117533951205,48.82006122008506L39.00258417761695,48.82006122008506L40.093414960113414,48.82006122008506L41.18424574260987,48.82006122008506L42.27507652510632,48.82006122008506L43.365907307602775,48.82006122008506L44.456738090099236,48.82006122008506L45.54756887259569,48.82006122008506L46.638399655092144,48.82006122008506L47.7292304375886,48.82006122008506L48.82006122008506,48.82006122008506L49.91089200258151,48.82006122008506L51.00172278507797,48.82006122008506L52.09255356757443,48.82006122008506L53.18338435007088,48.82006122008506L54.274215132567335,48.82006122008506L55.36504591506379,48.82006122008506L56.45587669756025,48.82006122008506L57.54670748005671,48.82006122008506L58.637538262553164,48.82006122008506L59.72836904504962,48.82006122008506L60.81919982754607,48.82006122008506L61.910030610042526,48.82006122008506L63.00086139253899,48.82006122008506L64.09169217503543,48.82006122008506L65.1825229575319,48.82006122008506L66.27335374002836,48.82006122008506L67.36418452252481,48.82006122008506L68.45501530502126,48.82006122008506L69.54584608751772,48.82006122008506L70.63667687001417,48.82006122008506L71.72750765251064,48.82006122008506L72.81833843500709,48.82006122008506L73.90916921750355,48.82006122008506L75,48.82006122008506L76.09083078249645,48.82006122008506L77.18166156499291,48.82006122008506L78.27249234748936,48.82006122008506L79.36332312998583,48.82006122008506L80.45415391248228,48.82006122008506L81.54498469497874,48.82006122008506L82.63581547747519,48.82006122008506L83.72664625997164,48.82006122008506L84.8174770424681,48.82006122008506L85.90830782496457,48.82006122008506L86.99913860746102,48.82006122008506L88.08996938995747,48.82006122008506L89.18080017245393,48.82006122008506L90.27163095495038,48.82006122008506L91.36246173744684,48.82006122008506L92.45329251994329,48.82006122008506L93.54412330243974,48.82006122008506L94.63495408493621,48.82006122008506L95.72578486743267,48.82006122008506L96.81661564992912,48.82006122008506L97.90744643242557,48.82006122008506L98.99827721492203,48.82006122008506L100.0891079974185,48.82006122008506L101.17993877991495,48.82006122008506L102.2707695624114,48.82006122008506L103.36160034490786,48.82006122008506L104.45243112740431,48.82006122008506L105.54326190990076,48.82006122008506L106.63409269239722,48.82006122008506L107.72492347489367,48.82006122008506L108.81575425739013,48.82006122008506L109.90658503988658,48.82006122008506L110.99741582238305,48.82006122008506L112.0882466048795,48.82006122008506L113.17907738737597,48.82006122008506L114.26990816987242,48.82006122008506L115.36073895236888,48.82006122008506L116.45156973486533,48.82006122008506L117.54240051736178,48.82006122008506L118.63323129985824,48.82006122008506L119.72406208235469,48.82006122008506L120.81489286485115,48.82006122008506L121.9057236473476,48.82006122008506L122.99655442984405,48.82006122008506L124.08738521234051,48.82006122008506L125.17821599483698,48.82006122008506L126.26904677733343,48.82006122008506L127.35987755982988,48.82006122008506L128.45070834232635,48.82006122008506L129.5415391248228,48.82006122008506L130.63236990731926,48.82006122008506L131.7232006898157,48.82006122008506L132.81403147231217,48.82006122008506L133.90486225480862,48.82006122008506L134.99569303730507,48.82006122008506L136.08652381980153,48.82006122008506L137.17735460229798,48.82006122008506L138.26818538479444,48.82006122008506L139.35901616729092,48.82006122008506L140.44984694978734,48.82006122008506L141.54067773228383,48.82006122008506L142.63150851478025,48.82006122008506L143.72233929727673,48.82006122008506L144.81317007977316,48.82006122008506L145.90400086226964,48.82006122008506L146.9948316447661,48.82006122008506L148.08566242726255,48.82006122008506L149.176493209759,48.82006122008506L150.26732399225546,48.82006122008506L151.35815477475194,48.82006122008506L152.44898555724836,48.82006122008506L153.53981633974485,48.82006122008506"/></svg>