<?xml version="1.0" standalone="no"?><!DOCTYPE svg PUBLIC "-//W3C//DTD SVG 1.1//EN" "http://www.w3.org/Graphics/SVG/1.1/DTD/svg11.dtd"><svg width="150" height="150" version="1.1" xmlns="http://www.w3.org/2000/svg" xmlns:xlink="http://www.w3.org/1999/xlink"><defs xmlns="http://www.w3.org/1999/xhtml"><style type="text/css"><![CDATA[
body { background: transparent; }
.stroke { fill: none; stroke: rgb(0, 0, 0); stroke-width: 3px; }
.fill { fill: rgb(255, 255, 255); }
.graticule { fill: none; stroke: gray; stroke-width: 1px; stroke-opacity: 0.5; }
.land { fill: rgb(34, 34, 34); }
.boundary { fill: none; stroke: rgb(255, 255, 255); stroke-width: 0.5px; }]]></style></defs><defs><path id="sphere" d="M75,148L71.17947519426521,147.89995603708388L67.36942218146126,147.60009836188397L63.58028405206318,147.10124886344505L59.82244657030359,146.4047748535678L56.10620970751603,145.51258531910202L52.441759410628876,144.42712568954624L48.83913968319312,143.15137113429574L45.30822505546663,141.68881840790988L41.85869351901314,140.04347626575088L38.50000000000008,138.21985447626406L35.241350443903094,136.22295146001602L32.09167658264955,134.05824058937122L29.059611453361953,131.73165518635895L26.153465735803444,129.24957225984986L23.381204973382133,126.61879502661807L20.75042774015033,123.84653426419676L18.268344813641228,120.94038854663826L15.941759410628933,117.90832341735069L13.77704853998415,114.75864955609714L11.780145523736081,111.50000000000017L9.956523734249245,108.14130648098711L8.311181592090222,104.69177494453362L6.848628865704356,101.16086031680713L5.572874310453869,97.5582405893714L4.487414680898084,93.89379029248425L3.5952251464322416,90.17755342969669L2.898751136554992,86.41971594793712L2.399901638116077,82.63057781853898L2.100043962916132,78.82052480573519L2,75.00000000000031L2.1000439629160894,71.17947519426542L2.399901638116006,67.36942218146163L2.8987511365548926,63.58028405206348L3.5952251464321137,59.82244657030391L4.487414680897928,56.106209707516335L5.57287431045367,52.44175941062919L6.8486288657041285,48.83913968319344L8.31118159208998,45.30822505546695L9.956523734248961,41.85869351901344L11.780145523735769,38.50000000000036L13.77704853998381,35.24135044390338L15.941759410628578,32.09167658264982L18.268344813640837,29.059611453362216L20.75042774014991,26.153465735803692L23.381204973381692,23.381204973382367L26.15346573580299,20.750427740150542L29.059611453361477,18.26834481364144L32.09167658264906,15.941759410629139L35.24135044390259,13.777048539984328L38.499999999999545,11.780145523736245L41.85869351901259,9.956523734249402L45.30822505546608,8.31118159209035L48.83913968319254,6.84862886570447L52.44175941062831,5.572874310453969L56.10620970751544,4.487414680898155L59.82244657030297,3.5952251464323126L63.58028405206255,2.8987511365550347L67.36942218146072,2.3999016381161056L71.1794751942649,2.100043962916118L75,2L78.8205248057345,2.1000439629160894L82.63057781853804,2.3999016381159777L86.41971594793617,2.8987511365548357L90.17755342969576,3.5952251464320426L93.89379029248335,4.487414680897828L97.5582405893705,5.572874310453571L101.16086031680626,6.848628865704015L104.69177494453274,8.311181592089838L108.14130648098626,9.956523734248805L111.49999999999936,11.780145523735612L114.75864955609634,13.777048539983639L117.90832341734992,15.941759410628393L120.94038854663754,18.268344813640645L123.8465342641961,20.750427740149718L126.61879502661745,23.381204973381507L129.2495722598493,26.153465735802797L131.7316551863584,29.059611453361292L134.05824058937074,32.09167658264887L136.22295146001557,35.24135044390241L138.21985447626366,38.499999999999375L140.04347626575054,41.85869351901245L141.68881840790957,45.30822505546593L143.15137113429546,48.839139683192414L144.427125689546,52.441759410628165L145.5125853191018,56.106209707515305L146.4047748535677,59.82244657030289L147.10124886344494,63.58028405206247L147.60009836188388,67.36942218146062L147.89995603708385,71.17947519426443L148,74.99999999999933L147.89995603708394,78.82052480573424L147.60009836188402,82.63057781853804L147.10124886344516,86.4197159479362L146.40477485356794,90.17755342969579L145.51258531910213,93.8937902924834L144.42712568954641,97.55824058937056L143.15137113429597,101.16086031680632L141.6888184079101,104.69177494453284L140.04347626575114,108.14130648098636L138.21985447626435,111.49999999999946L136.22295146001628,114.75864955609646L134.0582405893715,117.90832341735005L131.73165518635926,120.94038854663765L129.24957225985017,123.84653426419621L126.61879502661839,126.61879502661756L123.84653426419709,129.24957225984937L120.94038854663859,131.7316551863585L117.908323417351,134.05824058937083L114.75864955609747,136.22295146001562L111.50000000000051,138.21985447626372L108.14130648098744,140.0434762657506L104.69177494453395,141.68881840790962L101.16086031680747,143.15137113429552L97.55824058937172,144.42712568954602L93.89379029248457,145.51258531910185L90.17755342969699,146.4047748535677L86.4197159479374,147.10124886344497L82.63057781853928,147.6000983618839L78.8205248057351,147.89995603708388L75,148Z"/></defs><use class="stroke" xlink:href="#sphere"/><use class="fill" xlink:href="#sphere"/><path class="land" d="M86.32163138875269,121.13055576040145L85.29821933221456,121.35553362456855L85.0718205137278,121.29229440462387L86.07085331075734,120.39823710394168ZM80.3429468892682,113.28079403890209L78.39180254946677,113.68673274848564L78.33994342996843,113.2209040439975L79.50967738297693,113.01360925938718ZM66.27231551388691,113.58137992153667L64.9598007241593,112.87891953563559L67.495078419419,113.49707104541693L66.67019542172723,113.44404736637918ZM71.92713940440521,111.59616721186049L75.07560128417322,111.88661093382905L77.03214707474412,113.00554988551156L69.5952612984285,113.15995277357302L72.16527656012386,112.90555071909466ZM6.222569031956837,63.74980233420714L6.172292268161428,63.41420577028509L6.69407973861388,62.521809151314855L6.472748749613302,64.11253382752506ZM6.843898013502425,62.025629677641945L6.78644666134646,61.78704587825028L6.9280695370489696,61.24142830098137L6.951378789755708,61.64873001508933ZM7.040785040818761,61.01101455706581L6.988848314920446,61.06294903753542L6.964019388336041,60.557698035952555L7.025946202584464,60.52481680273957ZM7.054844199352601,60.08082798118995L7.02592142478737,59.66952021258962L7.144908803695046,59.297193749520126L7.222123599764572,59.414420336053816ZM7.345233906439091,57.55480161870629L7.426718080181686,57.82203872623477L7.314998449005813,58.033134160133585L7.261829239495071,57.98521944161892ZM63.66526821231754,107.67346177034113L65.1929333009783,108.14575386777463L70.00238279954503,111.05179737203434L65.74086356982751,111.18828295132397L61.24237140292058,107.46498755451974L57.484974072119755,107.61996648984982L60.76278431598502,106.74899662037157ZM66.23973762553464,106.84138632178505L65.30489051558855,105.78834792817958L65.60065661762081,105.0916994683912L65.92673004494823,105.16876039059176ZM64.83585677269059,103.15181728140223L66.09432711970584,103.25210878740508L66.11523873333928,103.55028555391218L64.88337425706104,103.60163519993671ZM66.79798193209868,104.4403344824426L66.19232392178857,103.00828609645566L67.05215262949109,103.62248568505541ZM132.3938327453315,36.20063328499516L133.56892533038592,38.01735948569955L133.37092981901856,38.32107534497181L133.00082254606826,37.603616579740404ZM134.15309605418418,44.67687026557308L134.36691522076828,44.463462531165305L134.22364427406285,42.880721394084404L134.65782093632174,44.372687101473424ZM132.17241421061993,49.3843807470319L133.3731241511067,50.83762084487877L132.32292434146842,52.188768862226546L131.95096323644913,51.71351481497352ZM128.9407312671404,51.965880342517L130.66858169103,53.13032758683722L130.72178464613032,53.97653694959339L128.96551407150497,52.91976962135561ZM48.614982619224214,6.93509819432515L46.48647011124267,8.154219199257653L45.05540951706482,8.446001607333585L45.05540951706482,8.446001607333585L44.965572740946044,8.464797443604368L44.96563927616367,8.464767409210353ZM128.81335543472844,51.82073290204428L127.9529304852258,51.6600183939039L127.46107488443036,50.525269703212814L128.22433564809546,51.02342636913056ZM45.77606481372185,9.021208043698678L44.09853901226475,9.706243681082867L47.72458909198514,7.619127048469821L47.926737461665454,8.285675876460857ZM80.53377587782042,79.16670810366278L81.17477730263116,79.26998966571429L81.98761758675312,79.16483800849201L81.28883032143716,79.83370155266364L79.88989219575096,78.98861130340188ZM81.81696756770687,75.77243228371798L80.29456357321966,75.53012618749614L79.47939916746397,74.99682254211153L80.880034019985,75.08532997955919ZM36.11571921051421,61.88616324146159L35.31520388698986,60.43852921767903L35.693425707459085,57.195604571982145L36.44978121910086,59.01601427202094ZM86.07383415388517,73.0979589946609L85.75854683919066,74.27546695186675L88.54869137454337,74.45687190845787L89.60769621959219,77.59639662304319L84.15520298017182,77.39157351415878L86.44024808713951,71.85857770657051ZM36.891254295356674,52.072536404913016L37.3118612999336,52.48872876821164L35.78074703029583,54.46502186988398L36.220333530042026,52.422021765781665ZM49.4191437554411,9.205754380426711L47.75980085566863,9.401849674453729L48.95518386256881,8.900896906599158L47.08251192376902,8.852258371907041L48.045814793490436,8.333551218831772L50.0903251359662,8.627498023738255L52.26430337971794,9.266415551073067ZM114.87961217331983,53.311721189115495L114.08346518107948,55.39504782788744L112.37027725147445,53.422580616569775L112.23442386831196,50.861775011541596L113.15635256556195,50.82167512491546ZM116.67141691438826,41.095019158694235L115.53692565383264,41.17920449222587L115.35190844904106,40.19417738989972L115.89022702186338,40.292643285383285ZM35.175104498449016,38.969887293401996L35.89722996884841,38.24926325923858L36.2493068077172,39.484166644383656L35.65542435639076,39.299467900561886ZM109.96765992239533,46.30477759627317L110.74815413034307,47.640374914131804L111.1901773894999,46.52281333476449L112.56683880523747,48.39267762851355L116.95870608623596,48.301715717861065L118.27712287641864,49.50096529427966L117.475982312329,54.41165924009927L116.77651628479069,52.16736016930062L115.64261144217258,52.72475423868687L114.49104224280003,51.128258709062294L114.53702444825454,49.86364360177549L110.89695089277282,49.236510492534805L109.44139395649611,47.254171008760764ZM38.44797047501684,31.41586352116566L39.03655711386318,30.665889965986935L39.00523800590477,31.504073409622485L38.563201730042714,31.685264028357338ZM69.5114806836212,59.29347912209975L69.18054689310493,59.90829999518897L68.83138105843803,59.361904194519184L69.15563070249952,58.95312556277088ZM68.10376434947098,58.3895750505301L67.2834949022738,58.95646123222592L66.8460443137671,58.487341129198164L67.3751847354797,58.01485343639334ZM43.43002055358518,27.88463493739031L43.196192857772985,28.42068975213941L42.58041997396729,29.28067770400564L42.29222496161819,28.99536930804679ZM67.1289615712214,54.49059050391443L67.08537602442146,55.0485485969143L69.33693330049884,57.30633894589605L65.37051042677352,56.79537379063527ZM99.03632017436459,44.63427032943119L100.5715180450561,45.459245339685694L100.43073860021526,48.595412998897196L98.53152472161958,49.51915108563803L98.52590368209967,48.775518738780775L97.3007313740118,48.98628960481884L97.52315109160305,48.006911710251714L96.56908750589596,48.40049190435174ZM72.09782084041863,53.35308628862084L71.5415183917611,53.371078667550265L71.48962034578254,52.77160329733351L72.55903483061562,52.355950331991025ZM46.97723511193718,26.177731089790143L45.732328458700806,28.231936373945558L44.0995966008526,27.293218887011264L46.99938998989164,24.834215107087637L45.98500337133116,24.39077698540941L50.3675429731095,24.33814332081024ZM63.72977735361823,49.14826869521514L63.29974359542297,49.43509438772039L62.24525421503462,48.146778318621884L63.26945756031878,47.600043615966776ZM52.47230478786595,24.3978885120068L52.57023690016156,24.07034114948197L52.96116007634831,24.03809922290619L53.24747115608197,24.433199576169145ZM52.37469657193425,24.791810620572555L52.47230478786596,24.397888512006787L53.24747115608197,24.43319957616913L52.664140318746604,25.135657674508465ZM71.49601988116737,147.91585646021602L72.30065020585377,147.66513187899642L73.12665772577728,146.83894400862596L73.96750096785465,145.44383575045282L74.81652096917979,143.49085550645765L71.19534421545826,142.22727360951245L67.59083220945995,140.6692299745632L64.17953433460218,137.84345242119818L60.84961278127629,134.54505482092L62.630719644003925,132.22551167253002L61.17573406851485,130.76214923318588L65.9498116154708,127.21782834688105L64.72051041879271,122.97403818248961L63.03581793096852,122.18641648268942L61.32795190084828,123.57569542608815L55.57754006181325,119.94630656007848L53.62875863006855,116.11165363479108L49.196286599528264,113.49297680716093L44.89215189229938,110.68285134835709L40.73776154848205,107.69525369556732L36.7537778397595,104.54504296150685L35.0601110686084,99.58631124172608L33.58355578708108,94.4939294092168L32.332138485116815,89.29557942892609L31.312661812443473,84.01951930401829L31.684338698660625,90.18448478611528L32.37453122759893,96.23779328813312L30.49270758372544,93.00156189706159L30.115201858123243,87.14968546074853L30.04118209636117,81.21565962965029L28.551974060023184,77.54460077547039L29.734956929647005,69.45630526773793L35.27595827106662,61.57671810832462L35.53828557555181,63.759243860405476L36.83285813808493,61.762252202953626L36.139120609548165,57.635111815277895L38.133324859514865,52.789264835532464L40.31831616778161,48.05835962388958L40.37991938971896,40.063126796901315L37.972126141944436,38.84757248143353L40.39812149192547,38.22442408375088L34.18846533116276,36.955919062885755L32.66301218994568,34.13492916793866L37.35559151765602,36.31265682383893L37.07217730315002,33.920241416286L40.37064419813111,30.908529314871892L43.91804316052782,32.22153113508209L45.216362186718655,28.9919524876644L45.45080887504223,31.43455094524417L48.26832663382832,28.959218425074745L51.69691158984448,31.601724225712708L50.90053645386858,39.246255062017326L54.285799143190914,40.627690410260904L57.37853346344676,48.41650771062928L59.420686351572016,47.58620857725215L60.5155147676853,49.75321135384408L62.62283611766734,49.40859633552425L62.60114533130262,51.08941325272954L64.2908589639616,49.39488453675803L63.9186775565771,47.928169830120495L65.35297639294704,46.08827941934403L66.03222742802505,49.39279497152421L66.03222742802505,49.39279497152421L66.55519905636463,52.435633768751075L68.27621540971226,49.48126122700057L69.45984752865256,49.97354660208896L69.57802395408545,52.51120883729152L61.532572163810265,57.67715251593673L59.28193627178839,61.01394452762129L59.95400078071154,63.71506887594687L66.12303431734694,67.71724877263114L67.12879420273576,72.94064914115363L68.35260134219006,71.3606756268586L67.78572677770094,68.59052113194042L70.42514618949276,66.49250972808123L69.40708876805569,63.509800165270114L70.30659595940186,62.284677872457934L70.21508557611247,59.1724675961682L72.74658329624397,59.2178435698376L75.26087011497955,61.00379373487898L76.58849072332147,64.55182286078492L78.41760545092444,61.78193710257803L80.77132598228785,66.62610335550707L84.26499579202977,68.32428265445192L86.08112674726175,71.20488505259466L83.07955089207309,74.16230016591805L77.92495595951871,74.63158784818746L74.05040533701676,79.05065171452729L79.12154824608872,75.84948243560221L79.87061498935878,79.60978474462158L83.21177011502341,78.28315373246707L83.97655837445569,79.58954344666145L79.27674013525046,83.08394649457804L78.49162859912956,81.94066977696048L79.98674748694164,80.81654451645369L77.5794076545322,81.13575262301416L74.35455650217145,83.85135490944216L75.02571552530421,85.62729747218631L69.58435346138546,88.09708184994662L69.96508885650283,89.50008228093077L68.97438738979834,90.90990639371482L68.74254300009534,88.48205390437465L69.06602832588872,92.99514373339807L62.74253811092518,97.30245208009339L63.102311520434,104.77898399837855L59.62721427831971,98.40472135358186L49.3702839120386,96.16680528763601L46.24287618677859,96.7788814249569L43.45267115118021,102.77868468567112L44.48719377178591,106.7832703196452L49.050958902584455,109.03918854992676L51.37911499084197,107.15608113785655L55.10346303741803,107.50560074078564L52.20281653841805,113.02670025164109L58.677225297810736,115.11494536245064L57.914663940777814,119.25952779528555L60.7133024879061,121.99568107036703L63.01390037903923,121.53901860839646L66.39227189897825,122.85068761276901L72.83889766140776,119.48496316947146L72.85993437961801,122.80648968588844L75.0784745091161,119.78222275424888L77.2431216928963,121.34974906716587L85.14074818071892,120.66509350923188L91.14011348011377,124.34806239123463L98.31394834784331,124.394524759405L99.50349648098262,127.74307056921563L106.2886970443399,127.65918335144914L111.47401372865414,125.71015560208471L116.08654475107863,125.1669736753883L116.81205937534132,126.2714572731678L114.45748278626814,129.30636421647824L111.9588678272456,132.14302738884183L110.02889216595594,135.2014412176442L107.8764731134306,137.8775588356991L104.07995590227875,139.88594521024774L100.18057633296135,141.66481537237314L98.08445994267171,143.27937788748505L94.97987897098193,144.68343198588468L91.79861726723581,145.82004819916824L87.1661686294711,146.64216299349718L88.33564772820294,146.71042371517999L82.58088351947,147.5957799121668L82.32039909456864,147.63202982910667L82.32032646253518,147.63203714946943L78.50902709144299,147.9156137522789L74.68810972100252,147.99933372609553ZM60.23086817936541,41.754373693515554L60.80096395233032,44.296744020804056L61.818907596197626,42.84856533046819L62.35641880054772,43.18944001452509L61.85532660930321,47.728814578124386L56.67800880072455,46.211966513478366L56.603467274031985,43.896222646576796L58.44865019459002,44.681379897480824L57.47196221359667,41.99031278264359ZM62.505276217943376,42.744513666791974L63.128244100911644,42.84225314015274L63.20138982983238,43.17792665286976L62.473925732318776,43.70602400913589ZM72.65400305332017,46.264095068646604L71.43259377763286,46.559680696030846L71.04671350851504,45.80123076713868L72.11455749656518,45.555065229570346ZM68.96524434650507,45.62723760073266L70.63910534243048,45.245436428440314L70.81281287756657,47.26934658033434L74.09643628082249,48.17479600819628L76.36424000088384,50.97735911219759L75.54514048727944,51.56456018112525L79.0724533903577,53.595503883459216L78.26585689423409,55.978979752710956L76.01106636757169,54.5522763495498L78.03106155916255,57.982793146978075L75.68460699286993,57.63919131842003L77.30207881416474,59.84405169046631L72.36855588580589,56.42575860624207L70.73873932868395,56.84603125778058L70.81086926288644,55.51397625447733L72.90149474826781,55.48065154895576L73.58825988415347,52.73941102991108L71.13573460342852,49.60636092915294L67.00890031443284,47.49980634512269L67.94644589573316,45.3954443009562ZM64.73859305030228,43.347378339817L65.61516811275027,43.83440004727764L64.66865636043569,46.18051089988286L63.21201378688954,44.43076702724157ZM63.32661979153974,16.6190980884613L63.79432866495264,16.387806527267095L64.5973447302879,16.15703515799416L64.22576411609784,16.746023567125746ZM66.48443114621638,45.405162539761676L65.35071801170622,45.90312625678432L65.87701002175214,44.3496945809417L67.89164569965713,44.49570757343541ZM57.050245323099396,41.88134226268892L55.9035251829058,41.651907945620366L56.18719702615368,40.15455646184999L58.409118446923564,39.2223602079812L58.819906805508246,38.53702847287375L60.18528482259486,41.16033219180742ZM62.733569109932745,18.745821793352746L62.71214985750789,18.356086410440014L63.983205749098374,18.07577776975006L64.15375743946983,18.292140056630338ZM67.420962582227,42.95009964665495L67.05865627348365,43.320191737168614L66.43439651573972,42.661720778394L67.39757490215928,42.1141674618771ZM64.54068545655318,18.14803686497652L65.61976214043985,16.772559676912657L66.57283092000378,16.93836655800152L66.56185938571751,17.70828912631788ZM66.9985791545682,40.627025991662165L66.08485653622763,42.43053683982261L65.22506352119538,41.31932383800022L65.72061968027474,40.53826501762411ZM64.23771228228385,39.90234443662633L64.31739300934757,40.969897996738624L61.223385716954645,39.22728595888511L62.846934686368726,38.55434755570184ZM94.10926099374241,19.454557522894397L94.22407154469758,21.356209801848067L90.27765776523525,21.26695414144463L86.16940312819762,19.569618858217396L90.45978485331028,20.410445788010605L93.00968236768652,20.464404129113213ZM68.19350703735228,40.61323191750909L69.036680424703,42.66610858232507L71.75377854200053,44.03361943814707L68.40744631863565,43.82573950963162L67.37324956251484,40.7329455568018ZM63.731211243197194,37.439911795626L62.54746796260088,38.23022209452648L61.040341312006646,37.54520397451055L63.060561103016724,37.1052147563599ZM122.91658261293674,23.58531943566657L123.05433185989457,23.088577542637942L125.50226318624203,24.763177153880797L123.44334990594358,21.898991208761444L122.04431658365723,21.692966626804214L120.3089190098353,20.176978309015226L120.03278997883561,20.494495623559935L121.2096839297387,21.31479907213612L119.85711984172735,21.95039687153772L118.06500070868974,20.20088131117685L116.84691193485638,19.9077720884502L121.43030151923068,24.170255905162733ZM59.8734964411169,3.5843932317095266L60.139039821032824,3.5323111741808333L62.09968004935969,3.148891830597961L62.09975190047432,3.1488789303139413L64.03593479877792,2.8280575690015723L63.87665506221036,2.878327350393718L66.26603895035241,2.5243632357518493L66.26611142599354,2.524354501827034L70.07116312821307,2.166583444882164L73.88972442969889,2.008443720126138L77.71132891934862,2.0503687775523787L81.5255018448928,2.292243703492673L85.3217888234621,2.733405535587522L89.08978449632492,3.3726450799199057L92.8191610492523,4.208210225331854L96.49969652033833,5.237810745839184L100.1213028176877,6.458624577981837L103.67405337017416,7.8673055559036555L107.14821033548198,9.459992582960368L110.53425129085494,11.232320214717127L113.8228953333952,13.179430624328269L117.005128518373,15.295986917503043L120.0722285658226,17.576187760561865L123.0157887677055,20.01378328148875L127.22699321298865,23.996655208403837L127.21630042740311,23.9900350947726L130.027576897703,27.23872826945132L129.61574912197077,27.184457264774714L130.8429933669466,28.829571746025252L131.35914897450147,28.826187559686794L131.67343621611744,28.988189690141596L128.610099794714,25.452475339318852L128.61014934221186,25.452528949443433L131.1297927725867,28.326170466668657L133.49558834250595,31.327741706386632L135.7010515707569,34.44901557046597L137.74013743593076,37.68143686420227L139.43223679837774,40.68547157314008L139.01212491253,40.17183400163494L138.36514133615637,39.781634371125584L136.40052721662704,39.37663832317904L137.76541442862802,41.301613158264665L136.82944307525483,41.208384819951604L139.26373460066543,42.46271082224494L140.97685509646004,44.082172005103914L141.13561769904263,44.09563021891434L141.13564860337937,44.095696354547535L142.66241827879176,47.5993220400329L144.00372996885903,51.17805107920876L145.1559072314721,54.82207442453314L146.11579202884104,58.52140406130947L146.88075338345703,62.26590038414059L147.44869458941886,66.04529998888238L147.8180589593581,69.84924380392106L147.98783409121097,73.66730548366853L147.95755464314198,77.48901998645078L147.72730360901357,81.30391225845986L146.71703612309778,88.62595793763822L146.77155285588748,87.71510139272877L146.5970709415088,86.76367527809869L146.60533672299144,82.19364058792162L145.6011346389907,85.11482793297606L144.8687925658186,84.87814329262336L143.64903162946922,88.25683785770015L142.19564319172264,91.5904165364839L140.51357344775755,94.86753443977588L138.6085468446948,98.07703882660721L132.27519149758604,97.70465516636408L130.89693140066285,93.28018877809674L129.1176412326024,88.7245719809897L129.34959810969804,83.43700990058832L129.286300872608,78.1036137759398L128.9280933834824,72.75335727388169L128.27692160399488,67.41530565522773L130.50174526745542,60.93411893312378L132.06743817926235,54.61997659341904L132.6792472279961,53.743209892868805L134.81739956107202,56.70065087017662L138.03935410068453,52.10568799046087L136.30839177383876,48.28135880992594L136.3077240652949,43.71997612973664L135.7875329149314,39.42366128413166L131.2573183319559,34.50261037045882L132.25107688173364,37.697217923844285L133.04070590937226,41.02482907287206L131.028729660674,40.542836622862616L127.72945651814965,33.88818371307984L127.33229005173442,30.943229578371827L125.42429026824628,28.239994625408038L124.23540036534413,30.383314497315602L121.80733130980454,28.106411347447036L123.7444898313957,31.101153953424934L124.42727879972284,30.644981632827175L125.65965029835607,32.58756065460555L125.12166916585032,33.15354737436717L124.28546254900633,32.28841593218782L124.29317915072647,33.73862512284178L128.26879226832546,37.7541335889907L129.39829271289003,37.715963711596416L130.64829269009445,42.71786647969137L132.65457596544843,43.22344170330921L133.6954980889566,45.19825784300102L129.4865167929083,44.11431754016302L125.59096293968632,46.04715522078055L126.98865608877593,47.53231764476392L130.76151200259852,45.85862037838339L130.47538593828392,46.88793042412253L132.3980002151735,49.104241241804544L130.70650748963493,48.22272892517345L126.20661311395307,49.90337812569889L126.02935986972088,54.822780179110765L127.74331497473025,59.31489523790166L129.22817306071585,63.8751404615446L126.11721842037059,68.46757797876384L121.49748439594244,63.031417458001876L123.87676548864206,57.05323973077806L122.2577764738651,55.27988276150051L118.82274384899108,55.118562367301585L119.84067599339969,53.376779041288714L118.72459323897772,52.65117725438172L117.46339504680267,44.1101686874511L113.85148503076175,41.624972181864266L113.45606685459572,40.22171679602302L115.70542376747983,42.027190417188294L117.35681512712344,42.21262788398001L117.46482672375424,37.01688778628749L114.29727049119914,34.62926739161504L114.63461271980108,33.458698505478225L112.33616461175961,33.029261332420674L111.01028280301696,29.929130238662033L110.68296491569461,33.43216437055939L107.90736663063569,32.43717209819992L105.59514255811365,30.221419673966317L105.00041212922181,31.347178796366023L108.40639039101208,34.251283868143474L109.96610788325904,35.17272978348369L111.40226994288926,34.92579882583044L115.60821588240725,38.283964417581394L116.17549490911057,40.29665823276076L111.55975796368884,39.34381177303694L111.86427153011648,42.16767437786704L108.13285424441685,40.38738522971366L102.4619389379002,33.48919710731881L98.66067084417065,29.187926044093103L101.11154813220284,23.957173142852213L103.17018985984512,24.954374988542966L103.1900885197482,26.868792904872308L105.76931285127188,25.66218814732919L104.32159794309408,25.48295737190039L102.05646054109602,22.90505348827901L99.46232929670909,23.19414338794305L99.25767368133472,22.253355955129443L100.90547682161076,22.08167609393039L96.88827165601002,20.035203586870203L95.72405974808038,18.12318327295381L94.10504541992375,18.42937197218594L93.04942775108806,15.838713038817566L91.27892156012945,17.394306163908823L89.0753913928864,17.68119412820738L88.13134713995895,17.024237821785846L89.38151600591068,16.503613020783746L90.90515143000628,14.79158468154128L93.33815194530818,14.509599202097213L92.98993495755529,14.169424596472254L90.82284726159997,14.222433122988129L88.9493708486591,16.28197016678049L87.46982920457789,16.700447711125513L88.06934398566837,15.55471970487961L85.91256677769069,15.045222716140621L85.10969760656273,16.272465505292743L82.94715417823858,15.687651027145883L82.273181478671,16.40853999272499L75.86598523733723,16.691541674482025L75.86598523733723,16.691541674482025L73.70878099719697,15.865897340783576L75.20950784328693,14.60707943412762L68.9726941069157,14.860300970171082L66.2808964627513,13.545999988707884L63.46531875334597,15.109095475906656L64.26026954705172,15.510509125076673L64.08163564384913,15.94699045987106L58.029559906998756,18.242619465682466L52.11514543709791,20.99865449928521L53.37199483102826,21.491809559236025L52.104309887748386,23.028263937233305L50.367542973109494,24.338143320810246L45.985003371331146,24.390776985409424L46.08999796693186,23.397416147875703L43.26386099225421,24.242379342302115L43.17810676886259,20.515148296417422L45.52192594065879,17.73727332881152L44.71112399631992,16.99514973523359L43.69741731408149,17.42706335150622L41.842601616227526,16.85920130436419L41.528998018018065,14.43279402008261L46.2643926801221,14.428427900303056L47.60755450934205,18.383173861723698L47.45406792562211,16.512856272562033L49.591329006625955,15.451296348467416L49.35690361402897,14.27793310813906L48.50348448835313,14.455254073232837L51.70750591365619,12.33222059267576L54.98861281543585,10.41658334961204L57.09462975902676,7.458969983275708L53.715923293313644,8.581068832842078L51.72700653163413,8.66324468024618L51.143589516609026,7.038652351083584L54.53329097950599,5.2440690364511084L58.084525784097195,4.000033864182427L57.42261005042451,4.147792112309148L57.42268090264124,4.147774534954607ZM68.62544949541468,40.23340046520453L68.06157141616154,39.98763586456L68.14921451561057,39.6864554868246L68.62897127923269,39.883304826574644ZM64.3228616073068,37.75429725358025L65.26572922020883,38.03253829042341L64.96845554749373,38.249816823457905L64.34576899067669,38.2485267300028ZM90.31391961232157,28.159932253745367L90.8439615353115,28.670592897434354L90.58886508772179,29.008974752677048L89.58429238485559,28.462804584253732ZM65.79699396655622,37.508529643156365L65.40006320892478,37.53150588196651L65.08346906705735,37.315414941029594L65.65449322358847,37.05721725087016ZM68.42381864549294,39.50082709784991L67.89335364951228,39.27166138625836L68.25050982169529,38.42894839314182L68.67750383738849,39.15248415951021ZM67.5926805659552,38.84842430884574L66.53394467432086,38.235624533498545L66.94110677746485,38.069599363675295L67.13274096199488,37.337732522781835ZM76.27063978399093,17.752247982870514L77.80381226707341,17.611935542602254L76.85824054260311,18.642767252025124ZM88.0426531511177,29.139974723906754L88.9678568329849,28.65492679755897L91.66561250365567,30.238248407568427L87.93509594936853,30.505622525941646ZM87.49185807879294,27.534764606278955L87.26792802096931,29.176671126098114L86.83571083381382,28.23709260182114L87.11305246305693,27.849822944776903ZM85.25926391738095,23.964465415803076L86.22596341462244,24.296401811610018L85.83657673363598,24.86537483944528L85.06187568971096,23.963576682771645ZM77.46335253751522,18.33445286729321L78.60263757804765,18.662270799027333L78.95463829200625,19.854528761184902L77.69906277934585,20.371761823141675ZM71.1711039154309,38.42965559154006L71.32093596841487,38.83594631303174L69.69815071326317,39.74777487065307L69.38596895069529,37.30977397111253L70.76817006814977,36.48634368092427ZM75.229877389682,35.126578862789486L76.32844514901737,35.557120665025494L73.37037347822847,39.171884924676476L73.63181524355291,40.08111651095016L71.80364215949214,42.5728515416738L69.30708839383529,41.70077759816867L70.20575506763741,40.247660397186735L70.92798519221026,40.83374707048118L70.45894540950921,39.761941884785294L71.48446210152481,38.87057928430692L71.39730329768553,37.82142502259203L72.51441076232045,37.79699140531176L71.21731935987374,35.87276271568297ZM80.60945628748863,32.99938679352893L81.99261938766286,33.08233891040144L81.10671627510257,34.479851261607934L84.3550265498834,33.134966226601136L84.54116523929984,34.90603641450482L84.89149167517189,34.63344060244759L85.95665630348363,35.9495090061415L87.86857876000926,37.11988868316924L87.61003558729617,37.953521235996035L90.26478490609612,39.42763009979022L90.73249794497167,42.255396285379554L93.02699401855998,43.05432413235327L91.28834581330817,43.238673439839495L92.03322715148207,44.53002752553691L93.34335270997393,43.67537197497126L90.24807572751567,52.38487934528689L91.31338097454065,59.24148196052458L88.1668409598453,59.31563238645239L85.21026258368599,56.5372371120935L82.82315929552169,52.57855352827562L83.21656250587236,49.057279069874795L81.72542173481868,49.813979584690735L81.46812314873198,48.36269834473047L82.74517811455846,48.37226710240601L80.62663883558467,47.52441578081377L80.7600793854267,46.36316994032532L78.61193870040827,43.286582150393286L75.46110310336336,42.91801996514869L74.59510617126611,41.85180298326654L75.89896916626053,41.407781738166655L74.1335420385165,40.65689947052859L76.00139075557227,39.13878872675888L75.43097742171805,38.365286381115716L76.33374498807706,36.49578031020733L79.55255652004732,35.8897949293793L78.7017041237536,35.06570836435606Z"/><path class="graticule" d="M9.06404915354814,43.67189143956685L10.804235750831637,40.5630360138747L12.962346474836849,37.67837042795121L15.524331698610204,35.036674290700205L18.473512511169957,32.65514544319637L21.79068929973711,30.549287998140855L25.454266742116246,28.732811405744556L29.440394395506466,27.217541203135468L33.72312196648845,26.01334202832482L38.27456825135624,25.128053399922898L43.065102646966935,24.567438680688092L48.06353805044492,24.335147557164433L53.23733389193475,24.43269227967062L58.552807978628564,24.859437817321847L63.975355770931294,25.612605992176952L69.46967566324312,26.687293565596548L74.9999988027467,28.07650415906761M3.8602467056235383,91.37484354780995L3.2970830987935074,88.07693851969391L3.109034030108816,84.7106213548732L3.4552087886658995,80.06455530233464L4.490398966351037,75.36971481583306L6.204635116303308,70.67131377370646L8.581408208035072,66.01460034438836L11.597828618413068,61.44442122183001L15.224846571232312,57.00478972734113L19.42753190242867,52.738461937264326L24.16541045663861,48.68652491860543L29.392853875423533,44.88800103813528L35.05951902328495,41.37947215568261L41.110832819558205,38.19472732084191L47.488517806988625,35.36443736596926L54.13115339547758,32.91585952931349L60.974767375914894,30.872574952923188L67.95345200749587,29.25426158336809L74.99999874526594,28.07650466236496M25.781490165481344,128.91232038847326L24.235207721335478,127.31178245462917L22.882934542277034,125.51132307889824L21.72983864956423,123.51782312860269L20.78032686289788,121.3389012197743L20.038027958751876,118.98288460087096L19.505778802173886,116.45877732829175L19.185613505056764,113.77622585531611L19.078755652314612,110.9454821659761L19.348031812387063,106.17308804864473L20.15326682476538,101.1004800657937L21.48670583643849,95.77651020309798L23.33550710136238,90.25245119843635L25.68186565348895,84.581502757419L28.503184778314626,78.81827921116333L31.7722936315841,73.01828355045342L35.45770890936177,67.23737290162151L39.52393804944595,61.53122059191069L43.93182104412969,55.9547799849232L48.63890757246541,50.56175524971192L53.59986582004313,45.40408416029767L58.76691904912474,40.531437906535466L64.09030571472542,35.9907427334245L69.51875869547295,31.82572801573633L74.99999902399017,28.07650512024967M55.39414124905524,145.31792305406924L54.17365095735707,144.71383629053938L53.098146808227575,143.62442489393385L52.17511610525404,142.0572729854896L51.41098468240403,140.0232905576187L50.81107216949775,137.5366375221552L50.379554958707786,134.61462513374L50.03252953722618,127.54877983971616L50.15275476918164,122.69643628108969L50.51227254496909,117.38474998795087L51.9330651442431,105.59189803594961L54.24030707466666,92.62341665064312L57.3453323266978,78.97767727678192L61.12881652650546,65.17907800265304L65.44536250453474,51.75789123652574L70.12908782694568,39.22988563628466L74.99999956423544,28.07650541003187M84.77168458605372,147.34303131850834L85.43149730753969,146.97960659023602L86.01362184061126,146.08011641767388L86.51372283444853,144.65125972044407L86.92807580549069,142.70367785568257L87.48785575297207,137.31411196206886L87.67631696968591,130.0716741727212L87.43274506122178,119.85916760733215L86.71138975358521,107.92274846447637L85.53997232547985,94.72112661747128L83.96350968973502,80.7616329678669L82.04258441866804,66.58072300427747L79.8510165899084,52.72336111971505L77.47302692233879,39.72207793651334L75.00000022124347,28.07650545406468M114.47228282344838,136.40797088901166L116.1820027159144,135.08780858942998L117.68180272557348,133.46135652962877L118.96403781766537,131.53690533666034L120.02217196619543,129.32426464925646L120.85081147047387,126.83471311447568L121.44573244880107,124.08094089627201L121.80390236915301,121.07698498904108L121.92349550711737,117.83815766587347L121.69754598051574,113.0325734217327L121.02187357861806,107.86071472108699L119.90298539572575,102.37238938823717L118.35165693620803,96.62045299401512L116.38282834050898,90.66029982776554L114.01546050343434,84.54932942008146L111.27235247037754,78.34639375397161L108.17992187005919,72.1112304881173L104.76795049833225,65.903887650589L101.06929750322051,59.784145343536096L97.11958293337447,53.81094002814967L92.95684469754612,48.04179693434844L88.62117223875038,42.532276061392785L84.15432045103078,37.335437104743406L79.59930755702231,32.50132846221142L75.00000081896948,28.076505240549544M140.93595084645187,106.32810856043315L142.09613163680743,103.47125794872375L142.92889986064353,100.47547462346402L143.4301918145121,97.35537726807631L143.5975613173713,94.12619118777562L143.267245207325,89.43478657886062L142.2794782364564,84.60436709050767L140.6437731402409,79.68145230089962L138.37588265222283,74.71345256849392L135.49764779658693,69.74821244437383L132.0367875471652,64.83354990308746L128.02663187857817,60.01679582943329L123.50580078037325,55.344338196186214L118.5178323254304,50.861175322581246L113.11076337453835,46.61048251591996L107.33666695518629,42.63319626977761L101.25115076986526,38.96762002320936L94.9128216635188,35.649055277709785L88.38272120761339,32.709461624470784L81.72373783646259,30.17714895606119L75.0000011972533,28.076504826697658M146.13975329437648,58.62515645219005L144.93467341788983,54.681600904240355L143.17436866531602,50.899357050031206L140.8728144359864,47.30845285384203L138.0482832133393,43.93739719746107L134.7231994961454,40.812953542668026L130.92396176608258,37.959927450943255L126.68073290509192,35.40096964732531L122.02720072643419,33.156396191931286L117.00031052063537,31.244027186832604L111.6399717396913,29.67904529882381L105.98874114822222,28.47387522129921L100.0914849571009,27.638085032212928L93.9950226219414,27.17831023126046L87.74775513440032,27.098201059365408L81.39928075735833,27.39839351871185L75.00000125473406,28.076504323400307M124.21850983451866,21.08767961152673L122.32304760045149,19.58074211541915L120.21358236616305,18.324420081727872L117.89965349802749,17.324394815822828L115.39172498230911,16.585188604793558L112.70113810520823,16.11014426688537L109.84006016560457,15.901410034697491L106.82142945242894,15.959929840503989L103.65889673548456,16.285439047628877L100.36676353430666,16.87646564717887L96.95991744421936,17.730336914722074L93.45376481205656,18.843191496809737L89.86416106599891,20.209996872683966L82.49983543915624,23.679615827092206L75.00000097600983,28.076503865515605M94.60585875094476,4.68207694593076L93.7025176002639,4.550900871741405L92.73960670305921,4.64411357063608L90.64752358076524,5.501803954145501L88.35624229578222,7.24422941353329L85.89493161847929,9.849208295048257L83.29492484975827,13.283578353919616L80.58932093774575,17.503618920727043L77.81256311721016,22.455607480016738L75.00000043576456,28.076503575733398M65.2283154139462,2.656968681491662L66.17403663598054,2.9746321535529034L67.22649099316526,4.163304602600334L68.37295106430996,6.208611310326077L69.59955260902852,9.085818206549177L72.23305675049085,17.187115851201895L74.99999977875653,28.076503531700588M35.527717176551604,13.592029110988364L37.188668168363954,12.693661311755754L38.99712640406143,12.03835917171228L40.94603683752141,11.6286791152923L43.02779649913951,11.466219361153279L45.23428415606722,11.551613687303409L47.55689199426641,11.884528958645788L49.98655919878448,12.463666426584567L52.51380730124869,13.286766795623208L57.82126740540603,15.651072916301153L63.39653253168397,18.940589359857327L69.15268800274822,23.104034751540603L74.99999918103052,28.076503745215724M29.13623017211404,131.79361422884352L30.296812194207007,132.70637636189048L32.289285388948954,134.16751278389265L34.363060856471385,135.5606812527766L36.51419104730614,136.8832297931792L38.73858116287274,138.13264085878512L41.03199695016014,139.30653612461907L43.390072761867984,140.40268101432272L45.80831986666442,141.41898895379768L48.28213499374132,142.353525343118L50.806809095401796,143.20451123915103L53.37753631100024,143.97032674187682L55.98942311517123,144.6495140779598L58.637497632933034,145.24078037570325L61.316719103934375,145.74300012610405L64.02198747782823,146.155217325323L66.74815312250747,146.47664729449247L69.49002662672235,146.7066781733973L72.24238867841966,146.8448720851854L75,146.89096596989117L77.75761132158033,146.8448720851854L80.50997337327763,146.7066781733973L83.25184687749253,146.47664729449247L85.97801252217177,146.155217325323L88.68328089606563,145.74300012610405L91.36250236706697,145.24078037570325L94.01057688482877,144.6495140779598L96.62246368899973,143.97032674187682L99.19319090459817,143.20451123915106L101.71786500625868,142.353525343118L104.19168013333555,141.41898895379768L106.60992723813199,140.40268101432275L108.96800304983987,139.30653612461907L111.26141883712725,138.13264085878512L113.48580895269384,136.88322979317923L115.63693914352861,135.5606812527766L117.71071461105105,134.16751278389265L119.703187805793,132.70637636189048L120.86376982788596,131.79361422884352M2,75L2.069479824524379,77.4392504191533L2.2777870393025808,79.8738575864958L2.6245251197118336,82.29918708891046L3.109034030108802,84.7106221738427L3.7303914802448617,87.10357253755133L4.487414680897999,89.47348306301265L5.3786625953794385,91.81584249084456L6.4024386826286985,94.1261920067451L7.556794126676067,96.40013372909912L8.839531546324551,98.63333908059572L10.248209177989821,100.82155702792122L11.780145523735968,102.9606221738427L13.432424455659337,105.04646268627839L15.201900766903584,107.07510804926146L17.085206158739815,109.0426966210428L19.07875565231462,110.9454829849456L21.178754412860947,112.77984507897885L23.381204973382033,114.54229109063823L25.681914844056806,116.2294661037697L28.076504492882634,117.83815848484295L30.560415682363384,119.36530599647855L33.12892014637362,120.80800162659071L35.777128590681855,122.16349912205004L38.5,123.4292182163325L41.29235123384251,124.60274954120334L44.148866892928936,125.68185921308651L47.06410943734845,126.66449308538901L50.032529537226175,127.54878065868564L53.048476636188056,128.33303864132102L56.10620970751597,129.0157741536509L59.19990818251849,129.59568756982338L62.32368303031408,130.07167499169068L65.47158796793623,130.44283035014192L68.63763077942095,130.70844712985718L71.81578472233046,130.86801971419962L75,130.9212443476854L78.18421527766952,130.86801971419962L81.36236922057904,130.70844712985718L84.52841203206376,130.44283035014192L87.67631696968591,130.07167499169068L90.80009181748152,129.59568756982338L93.893790292484,129.0157741536509L96.95152336381193,128.33303864132102L99.9674704627738,127.54878065868566L102.93589056265154,126.66449308538903L105.85113310707106,125.68185921308651L108.70764876615746,124.60274954120334L111.5,123.4292182163325L114.22287140931815,122.16349912205004L116.87107985362637,120.80800162659071L119.4395843176366,119.36530599647855L121.92349550711737,117.83815848484295L124.3180851559432,116.2294661037697L126.61879502661796,114.54229109063823L128.82124558713906,112.77984507897885L130.9212443476854,110.9454829849456L132.91479384126018,109.04269662104281L134.7980992330964,107.07510804926147L136.56757554434066,105.0464626862784L138.21985447626403,102.96062217384271L139.75179082201018,100.82155702792122L141.16046845367543,98.63333908059572L142.44320587332393,96.40013372909912L143.5975613173713,94.1261920067451L144.62133740462056,91.81584249084456L145.512585319102,89.47348306301268L146.26960851975514,87.10357253755134L146.89096596989117,84.7106221738427L147.37547488028815,82.29918708891046L147.72221296069742,79.87385758649582L147.93052017547564,77.4392504191533L147.99999999999864,75.00001399751349M15.592769261495711,34.97448409094119L14.706153162150827,36.97530546333214L13.93430982714002,39.00384823262853L13.278708504120196,41.056250952374164L12.740597167471648,43.12860675734106L12.321000142707952,45.21697080046947L12.020716156614071,47.31736776210845L11.840316816824576,49.42579941726273L11.780145523735975,51.53825224644132L11.840316816824583,53.65070507561991L12.020716156614078,55.75913673077419L12.321000142707952,57.85953369241315L12.740597167471634,59.94789773554156L13.278708504120189,62.020253540508456L13.93430982714002,64.07265626025409L14.70615316215084,66.1011990295505L15.592769261495718,68.10202040194146L16.592470401037616,70.07131170022538L17.703353592838106,72.00532426648877L18.92330420760311,73.90037659788969L20.249999999999993,75.75286135460756L21.68091552918345,77.55925222661963L23.21332696611576,79.31611064623247L24.844317278530127,81.02009233359105L26.570781783667513,82.6679536627055L28.389434058216473,84.25655783587752L30.296812194207007,85.78288085477311L32.28928538894896,87.2440172767753L34.36306085647138,88.63718574565922L36.514191047306134,89.95973428606185L38.73858116287275,91.20914535166776L41.03199695016014,92.38304061750173L43.390072761867984,93.47918550720536L45.80831986666443,94.49549344668031L48.28213499374131,95.43002983600064L50.8068090954018,96.28101573203368L53.377536311000256,97.04683123475945L55.98942311517122,97.72601857084244L58.63749763293302,98.31728486858589L61.31671910393437,98.81950461898668L64.02198747782822,99.23172181820563L66.74815312250746,99.55315178737511L69.49002662672234,99.78318266627994L72.24238867841966,99.92137657806802L75,99.96747046277382L77.75761132158033,99.92137657806802L80.50997337327765,99.78318266627994L83.25184687749251,99.55315178737511L85.97801252217178,99.23172181820563L88.68328089606563,98.81950461898668L91.36250236706698,98.31728486858589L94.01057688482877,97.72601857084244L96.62246368899973,97.04683123475947L99.1931909045982,96.2810157320337L101.71786500625868,95.43002983600064L104.19168013333555,94.49549344668033L106.60992723813202,93.47918550720537L108.96800304983985,92.38304061750173L111.26141883712725,91.20914535166777L113.48580895269384,89.95973428606185L115.63693914352862,88.63718574565922L117.71071461105103,87.2440172767753L119.703187805793,85.78288085477311L121.61056594178353,84.25655783587752L123.42921821633249,82.6679536627055L125.15568272146984,81.02009233359107L126.78667303388424,79.31611064623247L128.31908447081653,77.55925222661963L129.75,75.75286135460757L131.0766957923969,73.9003765978897L132.2966464071619,72.00532426648877L133.40752959896238,70.07131170022538L134.40723073850427,68.10202040194146L135.29384683784917,66.1011990295505L136.06569017285997,64.0726562602541L136.72129149587983,62.02025354050846L137.25940283252837,59.94789773554157L137.67899985729204,57.859533692413166L137.97928384338593,55.7591367307742L138.15968318317542,53.65070507561991L138.21985447626403,51.53825224644132L138.15968318317542,49.42579941726273L137.97928384338593,47.31736776210845L137.67899985729204,45.21697080046948L137.25940283252837,43.12860675734108L136.72129149587983,41.05625095237418L136.06569017286,39.00384823262854L135.29384683784917,36.97530546333214L134.4072307385043,34.97448409094119L133.40752959896238,33.00519279265727L132.29664640716192,31.071180226393864L131.0766957923969,29.176127894992952L129.75,27.323643138275067L128.31908447081653,25.517252266262993L126.78667303388423,23.760393846650153L125.15568272146986,22.056412159291575L123.4292182163325,20.408550830177134L121.61056594178353,18.819946657005126L120.86376982788599,18.206385771156505M29.136230172114004,18.206385771156505L28.38943405821646,18.819946657005126L26.5707817836675,20.408550830177134L24.84431727853014,22.056412159291575L23.213326966115766,23.760393846650153L21.68091552918346,25.517252266262993L20.24999999999998,27.323643138275095L18.923304207603124,29.176127894992923L17.703353592838084,31.071180226393885L16.592470401037623,33.00519279265725L15.592769261495704,34.9744840909412M40.70121934131434,24.799964853098835L40.18933129768972,25.955139611049105L39.743707340449006,27.126319324965046L39.36519574012243,28.311274587695706L39.0545170150544,29.50774976955003L38.81226255985591,30.713467312016157L38.63889351965129,31.926132063223484L38.53473991226219,33.143435646894744L38.49999999999999,34.363060856471385L38.53473991226219,35.58268606604803L38.63889351965129,36.799989649719286L38.81226255985591,38.012654400926614L39.054517015054394,39.21837194339273L39.365195740122424,40.41484712524706L39.743707340449,41.59980238797772L40.18933129768972,42.77098210189367L40.701219341314335,43.92615685984394L41.27839706333803,45.06312772102095L41.919765773162275,46.179730396769244L42.624104588994896,47.273839370432L43.39007276186798,48.34337194339273L44.21621222782966,49.38629219961058L45.100950383451796,50.400614881102115L46.0426030793699,51.38440916699278L47.039377826157306,52.33580234894419L48.08937720643047,53.25298339596081L49.19060248669101,54.13420640179051L50.3409574220284,54.97779390835623L51.53825224644131,55.78214009889287L52.78020784118169,56.54571385471067L54.06446007318681,57.26706166976675L55.38856429534093,57.94481041749642L56.75,58.57766996463764L58.146175616921255,59.16443562707306L59.57443344646447,59.70399046301465L61.03205471867422,60.195307399165905L62.516264768613084,60.63745118581422L64.02423831809404,61.02958017713191L65.55310485375799,61.37094793329685L67.09995409125925,61.66090464138309L68.66184151515704,61.89889835231674L70.23579398396811,62.08447603154236L71.81881538971047,62.21728442139998L73.40789236116522,62.2970707135712L75,62.32368303031409L76.59210763883476,62.2970707135712L78.18118461028952,62.21728442139998L79.76420601603188,62.08447603154236L81.33815848484296,61.89889835231674L82.90004590874075,61.66090464138309L84.44689514624201,61.37094793329685L85.97576168190596,61.02958017713191L87.4837352313869,60.63745118581422L88.96794528132578,60.195307399165905L90.42556655353553,59.70399046301465L91.85382438307875,59.16443562707306L93.25,58.57766996463765L94.61143570465907,57.94481041749642L95.93553992681318,57.26706166976675L97.21979215881831,56.54571385471067L98.46174775355868,55.78214009889287L99.65904257797159,54.97779390835623L100.809397513309,54.13420640179051L101.91062279356953,53.25298339596081L102.9606221738427,52.33580234894419L103.95739692063009,51.38440916699279L104.89904961654821,50.400614881102115L105.78378777217033,49.386292199610594L106.60992723813202,48.34337194339274L107.37589541100509,47.273839370432L108.08023422683772,46.179730396769244L108.72160293666197,45.06312772102095L109.29878065868567,43.92615685984394L109.81066870231028,42.77098210189367L110.25629265955098,41.599802387977725L110.63480425987757,40.414847125247064L110.9454829849456,39.21837194339274L111.18773744014408,38.012654400926614L111.36110648034872,36.79998964971929L111.46526008773782,35.58268606604803L111.5,34.363060856471385L111.46526008773782,33.143435646894744L111.36110648034871,31.926132063223484L111.18773744014409,30.713467312016164L110.94548298494561,29.507749769550045L110.63480425987757,28.31127458769572L110.25629265955101,27.126319324965053L109.81066870231028,25.955139611049105L109.29878065868566,24.799964853098835L108.72160293666197,23.662993991921823L108.08023422683773,22.546391316173526L107.3758954110051,21.452282342510784L106.60992723813202,20.382749769550045L105.78378777217033,19.339829513332177L104.8990496165482,18.32550683184064L103.95739692063009,17.34171254594999L102.9606221738427,16.390319363998586L101.91062279356953,15.473138316981967L100.809397513309,14.591915311152263L99.6590425779716,13.748327804586538L98.46174775355868,12.943981614049903L97.21979215881831,12.180407858232101L95.93553992681319,11.459060043176024L94.61143570465909,10.781311295446358L93.25,10.148451748305135L91.85382438307875,9.56168608586971L90.42556655353553,9.022131249928108L88.96794528132578,8.530814313776872L87.48373523138692,8.088670527128556L85.97576168190596,7.696541535810866L84.446895146242,7.355173779645924L82.90004590874075,7.065217071559687L81.33815848484295,6.8272233606260215L79.76420601603188,6.641645681400419L78.18118461028952,6.50883729154279L76.59210763883476,6.429050999371569L75,6.402438682628684L73.40789236116524,6.429050999371569L71.81881538971048,6.50883729154279L70.23579398396812,6.641645681400419L68.66184151515705,6.8272233606260215L67.09995409125924,7.065217071559687L65.55310485375799,7.355173779645924L64.02423831809404,7.696541535810866L62.516264768613084,8.088670527128556L61.03205471867422,8.530814313776872L59.57443344646447,9.022131249928108L58.146175616921255,9.56168608586971L56.75,10.148451748305135L55.38856429534093,10.781311295446358L54.064460073186815,11.459060043176024L52.78020784118169,12.180407858232101L51.53825224644132,12.943981614049903L50.340957422028396,13.748327804586538L49.19060248669101,14.591915311152263L48.08937720643046,15.473138316981967L47.039377826157306,16.390319363998586L46.04260307936991,17.34171254594999L45.1009503834518,18.32550683184064L44.21621222782967,19.339829513332177L43.39007276186797,20.382749769550045L42.62410458899491,21.45228234251077L41.91976577316227,22.546391316173533L41.278397063338026,23.66299399192181L40.701219341314335,24.799964853098842"/></svg>