<?xml version="1.0" standalone="no"?>
<!DOCTYPE svg PUBLIC "-//W3C//DTD SVG 20010904//EN"
 "http://www.w3.org/TR/2001/REC-SVG-20010904/DTD/svg10.dtd">
<svg version="1.0" xmlns="http://www.w3.org/2000/svg"
 width="700.000000pt" height="700.000000pt" viewBox="0 0 700.000000 700.000000"
 preserveAspectRatio="xMidYMid meet">
<metadata>
Created by potrace 1.14, written by Peter Selinger 2001-2017
</metadata>
<g transform="translate(0.000000,700.000000) scale(0.100000,-0.100000)"
fill="#000000" stroke="none">
<path d="M3311 6389 c-1209 -107 -2213 -933 -2546 -2094 -195 -677 -132 -1406
174 -2050 620 -1300 2130 -1948 3501 -1503 82 27 97 35 111 62 19 37 1703
3017 1731 3063 l19 32 -78 55 c-929 654 -2165 886 -3254 611 -810 -205 -1343
-692 -1419 -1299 -31 -240 34 -493 174 -690 56 -78 185 -200 259 -244 417
-250 934 -155 1068 196 81 214 -55 422 -276 422 -93 0 -152 25 -220 93 -78 78
-100 135 -93 241 8 117 71 211 176 263 53 26 66 28 172 27 416 -2 758 -274
872 -693 32 -118 30 -342 -5 -472 -110 -415 -454 -724 -917 -825 -67 -15 -127
-19 -285 -19 -173 0 -214 3 -305 23 -321 72 -565 205 -790 431 -277 278 -430
612 -460 1003 -15 196 7 396 65 593 98 335 266 607 536 871 445 433 1073 696
1900 795 243 29 709 32 954 5 605 -65 1181 -233 1682 -490 59 -30 108 -54 109
-53 2 1 -16 38 -38 82 -187 373 -486 728 -833 989 -157 118 -267 186 -455 280
-303 151 -582 236 -925 281 -147 19 -463 27 -604 14z"/>
<path d="M6431 3774 c0 -11 3 -14 6 -6 3 7 2 16 -1 19 -3 4 -6 -2 -5 -13z"/>
<path d="M6442 3635 c0 -16 2 -22 5 -12 2 9 2 23 0 30 -3 6 -5 -1 -5 -18z"/>
<path d="M6442 3365 c0 -16 2 -22 5 -12 2 9 2 23 0 30 -3 6 -5 -1 -5 -18z"/>
<path d="M6431 3224 c0 -11 3 -14 6 -6 3 7 2 16 -1 19 -3 4 -6 -2 -5 -13z"/>
<path d="M5719 1583 c-13 -16 -12 -17 4 -4 16 13 21 21 13 21 -2 0 -10 -8 -17
-17z"/>
<path d="M5459 1323 c-13 -16 -12 -17 4 -4 16 13 21 21 13 21 -2 0 -10 -8 -17
-17z"/>
</g>
</svg>
