<?xml version="1.0" standalone="no"?><!DOCTYPE svg PUBLIC "-//W3C//DTD SVG 1.1//EN" "http://www.w3.org/Graphics/SVG/1.1/DTD/svg11.dtd"><svg width="150" height="150" version="1.1" xmlns="http://www.w3.org/2000/svg" xmlns:xlink="http://www.w3.org/1999/xlink"><defs xmlns="http://www.w3.org/1999/xhtml"><style type="text/css"><![CDATA[
body { background: transparent; }
.stroke { fill: none; stroke: rgb(0, 0, 0); stroke-width: 3px; }
.fill { fill: rgb(255, 255, 255); }
.graticule { fill: none; stroke: gray; stroke-width: 1px; stroke-opacity: 0.5; }
.land { fill: rgb(34, 34, 34); }
.boundary { fill: none; stroke: rgb(255, 255, 255); stroke-width: 0.5px; }]]></style></defs><defs><path id="sphere" d="M62.32339340036124,146.89260854297703L54.87801328638895,145.17370710382204L47.65309386964742,142.68596784484527L40.72779287917804,139.45664695796097L34.17798536184479,135.52112555858477L28.075432379442937,130.92252204272899L22.486994779488953,125.71121967283295L17.4739006537837,119.94431456819645L13.091074510625816,113.6849901479483L9.386535510405025,107.00182488028459L6.400871357632411,99.9680409224201L4.166793613556123,92.66070188331112L2.708779301451102,85.15986849862912L2.0428027312298553,77.54772146858697L2.176160481560302,69.90766106898998L3.107391457022885,62.323393400361574L4.8262928961778755,54.87801328638929L7.314032155154607,47.65309386964772L10.54335304203883,40.72779287917833L14.478874441415044,34.177985361845074L19.07747795727081,28.075432379443193L24.28878032716679,22.486994779489173L30.05568543180329,17.47390065378392L36.31500985205144,13.091074510625972L42.998175119715114,9.386535510405182L50.031959077579586,6.400871357632539L57.33929811668856,4.166793613556209L64.84013150137055,2.7087793014511448L72.4522785314127,2.0428027312298553L80.09233893100969,2.1761604815602738L87.6766065996381,3.1073914570228425L95.1219867136104,4.82629289617779L102.34690613035197,7.314032155154493L109.27220712082138,10.543353042038703L115.82201463815466,14.478874441414852L121.92456762055656,19.077477957270602L127.51300522051059,24.288780327166585L132.52609934621594,30.055685431803077L136.9089254893739,36.315009852051226L140.61346448959475,42.99817511971493L143.59912864236742,50.03195907757943L145.83320638644375,57.33929811668843L147.29122069854884,64.84013150137045L147.95719726877013,72.45227853141263L147.82383951843974,80.09233893100965L146.8926085429772,87.67660659963809L145.1737071038222,95.12198671361043L142.6859678448455,102.34690613035202L139.45664695796125,109.27220712082146L135.52112555858508,115.82201463815477L130.9225220427293,121.92456762055669L125.7112196728333,127.51300522051072L119.94431456819679,132.52609934621603L113.68499014794864,136.90892548937398L107.00182488028493,140.61346448959478L99.96804092242044,143.59912864236748L92.66070188331145,145.8332063864438L85.15986849862944,147.29122069854884L77.54772146858727,147.95719726877013L69.90766106899028,147.82383951843974L62.323393400361844,146.89260854297714Z"/></defs><use class="stroke" xlink:href="#sphere"/><use class="fill" xlink:href="#sphere"/><path class="land" d="M68.46680586396737,71.16208473607244L69.06109934902149,71.59104874799671L68.21320382714913,72.02089378082783L68.1218936831127,71.12629364388538ZM72.16593783682845,82.47090169068721L72.44746936427894,82.46984168463518L72.56377213181388,83.34550733533578L72.15549189130984,83.37586795178535ZM68.54088031943317,68.57831544030725L69.79112748173121,69.47833844660542L69.22528904800843,70.8301528578485L68.16169671778948,68.98369982027235ZM64.20571884806824,81.53882516333158L64.16941764939753,81.23037438690825L63.92020176258222,81.07151090003873L64.49391347524946,81.12304329840657L64.47496350886077,81.7336977890615ZM64.7818412996082,81.89597256944768L64.93741924101673,82.66305951635152L64.70737075801718,82.63580567956777L64.72224850236508,82.34799276973233ZM61.333155439676304,77.16263480025926L61.70297626979877,76.4406724930708L61.455417534930305,77.96316147518726L61.28549803668964,77.83818208867699ZM61.42455182605063,69.64176941607468L62.33384681677086,70.66071642450565L61.43062114374453,71.3675227789621L61.28860059991301,70.56108418276304L59.73712139690825,69.52338225409136ZM57.952150965187116,64.60695709098881L57.82513613125218,65.87419154427346L59.55546891687258,68.01112791447686L61.976626723306666,68.01698120037764L64.11441862298119,68.92325422751446L65.39197730343075,71.61366454968783L65.11809664240346,72.76317840052488L66.15432014416993,72.4041833995458L66.94036509152447,73.29242894513516L70.61404226493964,72.28438601201779L71.4859330342894,68.53673437724245L70.32162864498179,68.47147572106017L69.80523508782704,67.78921372407568L71.58311742094085,64.1734123016674L71.56437692019637,62.58086562653192L73.25541626925333,60.49585475947498L81.81977484319127,61.668808644110925L84.20073020147849,61.28791604164798L84.68667493992606,62.88734769390744L90.17415549635092,64.18734604803596L89.88944542270538,66.89553898092096L90.82811395425007,68.89018218909736L89.95519880976477,69.4634431936846L87.87739219460825,69.78589701113727L87.74138168086937,70.32848546615111L89.83068821659782,70.7085120316879L93.32104004082906,74.35214641186069L92.30376077797337,76.75386199237836L93.3614364270136,79.18654288944373L92.04396440663331,79.94934860274152L92.03358167931938,82.44510320640161L90.17312927396314,83.70309629138015L88.45266504617723,88.48440271995541L86.99361332898953,88.06295937752554L85.06767450036689,89.63353163330834L77.1410707119187,88.8546601755684L77.96549391800963,85.06444167077704L76.92735031140155,83.35006676107199L77.57992865026894,82.83867922206755L77.37853360935976,81.46535456481668L75.86197497575,79.61257475530644L75,79.02104423255531L75,75L74.92714532804129,79.4588423251572L72.74171827252016,78.0073454277056L72.86282272148043,79.30029365642075L72.2392566267587,80.38413622878637L72.34028540360411,81.2204710827061L70.92973460949725,81.12824679665346L71.52776222448384,82.56223158377821L71.31499663999435,84.28917401754673L70.39309161954823,83.42905090177588L69.25159685924174,83.56117764924015L68.79141871542556,84.27168410297104L66.55103811142986,83.51157607865369L63.63160119193055,77.02666019895008L62.07211974311219,78.14487287134948L63.09790878946518,71.78979288501861L62.62810896765845,69.84519821918443L58.864207591037086,68.39563973685823L57.55768380476778,66.10820860593603L57.78800763331428,63.91941111510381ZM48.72381405895539,64.24518896267126L49.902517103447046,63.31844445103618L49.7362278492395,65.41173030265348L46.80135340677215,67.26110127951979L48.30635617393253,65.87379218547137L47.37893928148182,64.59642783481618ZM48.786288948538555,58.97386193073879L49.51381709424024,59.108960291928206L48.643361375253335,60.50319719248941L48.49824271862214,59.69920329959835ZM105.04485860342618,64.24062588858921L104.68540987744484,63.455304362690846L105.65060750042974,63.190669157233415L105.61256128683559,64.1673704811344ZM97.61731502996514,107.78632573691604L95.90649424981791,108.82517738605401L94.98828114586011,106.88975208404193L95.84750277759254,105.96432233067588ZM79.82951982951374,114.42031335530541L78.94820404578073,114.13717646274746L79.45964707343639,111.78421945257908L81.3970892055894,108.99524982246908L83.05439245460019,109.01590374888521ZM79.15802979122336,118.98293564678679L76.10069427087883,117.71333133081801L78.23314439616522,113.88931308507878L80.87555076510532,120.35861983539262ZM88.05289594964921,132.04093566998984L89.79007951418961,132.15010332778849L91.7457398971709,133.4547840152802L90.6097859172952,133.3481667505996ZM76.80871896946147,138.94690127769982L76.5841030838168,138.0098832560035L77.88932311512477,137.94267331379717L77.61049653707745,138.87705131314559ZM75.7307385375855,139.60225615907657L76.5878234064156,139.77797038584623L74.99999999999994,140.47995278801187L74.99999999999996,139.90373422883505ZM74.91835119031792,139.96752668213855L74.99999999999999,140.47995278801187L74.7528800461662,140.5437380170037ZM89.02647202551107,138.30462304031357L89.53354013598181,139.06650728983004L88.70411905922063,138.549340945228ZM89.53119094755453,139.24323785685036L90.5268927552274,140.3910244051484L89.9096153198963,140.15476807653212ZM127.52709285636706,31.022877161250953L115.65409271881336,37.23604606882672L113.53991806545604,35.16094446993639L120.73200979442845,28.375674308983783L128.29781090048743,28.992810354005293ZM115.54263865088407,129.91913547669216L107.14259888519351,126.77051894328996L99.52498463143974,123.42790038072619L97.14056980114094,118.24652925595615L96.48528404843778,112.22710821382515L98.00484910275388,109.49513781273808L101.89939947765792,107.80393252095337L105.57877264853128,109.20027978339346L105.81526727758543,107.85131157344574L106.79504388113321,110.06969762406271L106.52798017034183,107.65228506868382L111.59474367934392,107.17545475697773L113.41564130787695,101.71619909364028L114.92425376835337,96.26190347163602L116.74860608301337,94.47967296955215L118.79555287992473,96.07508837476044L124.8139413212498,96.47526242381507L128.79359859518763,99.11873887140119L127.60767628678387,106.41784701504248L129.99067618359322,114.47199022139375L126.44376715548262,117.60483309197403L127.86141320786547,123.21370095608546L123.61487685700806,126.24309315650453L121.78748284944439,122.61054038703142L115.66679132738578,123.83756154832798L118.89831225795416,132.2512833132778ZM97.23748716496591,143.87410996786292L97.57547348703595,143.30259562137718L98.30626753279472,143.91136293330504L97.46812601354948,143.84788293099604ZM137.9087899062279,112.03684207015797L137.50941331871607,112.11842847536214L137.50941331871607,112.11842847536214L137.7444515987412,111.6737568925878L138.33184308874596,111.30869274675428L138.33180678002157,111.30875607857911ZM135.02760445749755,116.54431635121662L135.04771949901337,116.18706742994675L135.04771949901337,116.18706742994675L135.6409678080343,115.09834796142604L135.72333562005952,115.5206123987453L135.72329509941682,115.52067312206059ZM111.32800072205035,138.32076974843602L110.37015523995254,138.01101455425635L112.04018325020854,137.90682270458993L112.04012034336742,137.90685974474167ZM31.528822539765955,16.352747308875756L31.79140725431367,21.039591104456903L36.48954112710726,30.627033940910614L33.94912435391585,37.582044104128244L36.140676981069745,41.0708472244546L37.97540396816432,47.909415609250246L35.51580901306091,50.72420975684792L38.6222328522513,51.19113829398897L38.09743643115994,55.658765136144574L39.785041398748064,56.852428897151185L39.09283415700027,58.34197779430177L40.807006343240644,57.91946168768395L42.20612471071194,61.28789606985017L44.598279250526964,61.449400106675014L46.000823266749656,63.95233090578648L47.48013922129233,63.95762111269992L48.13780686106398,65.75957269502305L46.291961023026666,67.27627650994374L43.21163651834454,66.85325112108265L41.987845109037224,65.60459399000166L41.500974634723214,66.43727036238563L38.34969833064344,63.5912075064789L38.77828213628296,64.83860870448109L28.6790675166717,59.927335954967006L17.441290018530275,54.22425532062354L9.802293744198863,58.77049316087711L3.361465381631689,60.95849453482339L3.3614794231729803,60.95842289629575L5.221667211059398,53.547079658200424L7.846361015036351,46.37077910468204L11.206804140534928,39.50814628634239L15.266178869454293,33.03436964443743L19.980009842785613,27.020377230580777L25.29665134195249,21.532059604167387L31.157853130111306,16.629547921616606ZM121.94376820531214,19.093594779473918L118.83584066263967,24.16921396717693L109.89840255934487,24.78306599897074L108.0698538877142,28.790728546950298L104.4133702198049,28.94609138114319L102.44434504960923,31.427924632039023L95.15516753124422,33.300680910937956L89.54298444587744,31.230757838070417L88.90170738129417,22.59651944442112L87.90115082332566,13.198144123260832L92.06386546079604,4.997865298665914L91.81341117125208,3.9609070808040343L91.81348221033662,3.960923894250726L99.14698165285253,6.107570843723735L106.21592171129906,9.009017663700533L112.94285359912502,12.633475495654665L119.25407564286637,16.9412340211127Z"/><path class="graticule" d="M75,75.00000075921822L75,90.34044790875387L74.99999999999999,106.66541081105717L74.99999999999999,125.22947367257017L74.99999999999999,148.00166791242333M74.9999996203909,75.00000065750227L67.32977604562306,88.28521759441273L59.167294594471414,102.42305018364593L49.88526316371491,118.50000021916742L38.499166043788335,138.22129893079395M74.99999934249773,75.00000037960912L61.71478240558727,82.67022395437694L47.57694981635408,90.8327054055286L31.499999780832567,100.11473683628509L11.778701069206058,111.50083395621166M74.99999924078178,75L59.65955209124612,75L43.33458918894283,75L24.770526327429813,75L1.9983320875766566,75M74.99999934249773,74.9999996203909L61.714782405587286,67.32977604562306L47.57694981635409,59.16729459447141L31.49999978083259,49.8852631637149L11.778701069206079,38.49916604378831M74.9999996203909,74.99999934249773L67.32977604562306,61.71478240558728L59.167294594471414,47.57694981635409L49.88526316371491,31.49999978083258L38.499166043788335,11.77870106920605M75,74.99999924078178L75,59.65955209124613L75,43.334589188942836L75,24.770526327429835L75,1.9983320875766566M75.0000003796091,74.99999934249773L82.67022395437694,61.71478240558728L90.83270540552859,47.57694981635409L100.11473683628509,31.49999978083258L111.50083395621166,11.77870106920605M75.00000065750227,74.9999996203909L88.28521759441271,67.32977604562306L102.42305018364591,59.16729459447141L118.50000021916742,49.8852631637149L138.22129893079392,38.49916604378831M75.00000075921822,75L90.34044790875387,75L106.66541081105717,75L125.22947367257018,75L148.00166791242333,75M75.00000065750227,75.00000037960912L88.28521759441273,82.67022395437694L102.42305018364593,90.8327054055286L118.50000021916743,100.11473683628509L138.22129893079395,111.50083395621166M75.0000003796091,75.00000065750227L82.67022395437694,88.28521759441273L90.83270540552859,102.42305018364593L100.11473683628509,118.50000021916742L111.50083395621166,138.22129893079395M75,98.31157974150767L73.98316317315725,98.28939228301692L72.96826195300764,98.22287214263291L71.9572282617069,98.1121459452236L70.95198665934986,97.9574244643991L69.95445068046078,97.7590022212919L68.9665191914717,97.51725692391932L67.99007277612232,97.23264874819485L67.02697015566179,96.90571946195705L66.07904465066734,96.53709139368371L65.14810069121432,96.12746624785423L64.23591038204091,95.67762376921529L63.344210129246164,95.18842025849233L62.47469733494217,94.66078694237254L61.62902716615279,94.09572820086187L60.808809404109034,93.49431965539061L60.015605379939124,92.8577061213069L59.2509250025858,92.18709942865561L58.516223884608976,91.48377611539102L57.81290057134437,90.7490749974142L57.142293878693096,89.98439462006088L56.50568034460939,89.19119059589096L55.904271799138144,88.37097283384722L55.33921305762746,87.52530266505784L54.81157974150767,86.65578987075384L54.32237623078471,85.76408961795909L53.87253375214577,84.85189930878568L53.462908606316304,83.92095534933266L53.09428053804295,82.97302984433821L52.76735125180515,82.00992722387768L52.48274307608069,81.0334808085283L52.24099777870812,80.04554931953922L52.04257553560091,79.04801334065014L51.88785405477639,78.0427717382931L51.777127857367105,77.03173804699237L51.710607716983084,76.01683682684275L51.68842025849232,75L51.710607716983084,73.98316317315727L51.777127857367105,72.96826195300764L51.88785405477639,71.9572282617069L52.04257553560091,70.95198665934986L52.24099777870812,69.95445068046078L52.48274307608069,68.96651919147172L52.76735125180515,67.99007277612232L53.09428053804296,67.02697015566179L53.462908606316304,66.07904465066736L53.87253375214577,65.14810069121432L54.32237623078471,64.23591038204091L54.81157974150767,63.344210129246164L55.33921305762746,62.47469733494217L55.90427179913814,61.62902716615279L56.50568034460939,60.80880940410905L57.142293878693096,60.01560537993913L57.81290057134437,59.25092500258581L58.516223884608976,58.516223884608976L59.2509250025858,57.81290057134438L60.015605379939124,57.1422938786931L60.80880940410904,56.50568034460939L61.62902716615279,55.904271799138144L62.47469733494217,55.33921305762746L63.344210129246164,54.81157974150767L64.23591038204091,54.32237623078471L65.14810069121432,53.87253375214577L66.07904465066736,53.462908606316304L67.02697015566179,53.09428053804296L67.99007277612232,52.76735125180515L68.96651919147172,52.482743076080695L69.95445068046078,52.24099777870813L70.95198665934986,52.04257553560091L71.9572282617069,51.8878540547764L72.96826195300764,51.777127857367105L73.98316317315725,51.71060771698309L75,51.68842025849232L76.01683682684275,51.71060771698309L77.03173804699236,51.777127857367105L78.0427717382931,51.8878540547764L79.04801334065014,52.04257553560091L80.04554931953922,52.24099777870813L81.03348080852828,52.482743076080695L82.00992722387768,52.76735125180515L82.97302984433821,53.09428053804296L83.92095534933264,53.462908606316304L84.85189930878568,53.87253375214577L85.76408961795909,54.32237623078471L86.65578987075384,54.81157974150767L87.52530266505784,55.33921305762746L88.37097283384722,55.904271799138144L89.19119059589096,56.50568034460939L89.98439462006088,57.1422938786931L90.7490749974142,57.81290057134438L91.48377611539102,58.516223884608976L92.18709942865563,59.25092500258581L92.8577061213069,60.01560537993913L93.49431965539061,60.80880940410905L94.09572820086186,61.62902716615279L94.66078694237254,62.47469733494217L95.18842025849233,63.344210129246164L95.67762376921529,64.23591038204091L96.12746624785423,65.14810069121432L96.5370913936837,66.07904465066736L96.90571946195703,67.02697015566179L97.23264874819485,67.99007277612232L97.51725692391932,68.96651919147172L97.75900222129188,69.95445068046078L97.95742446439908,70.95198665934986L98.1121459452236,71.9572282617069L98.2228721426329,72.96826195300764L98.28939228301692,73.98316317315727L98.31157974150767,75L98.28939228301692,76.01683682684275L98.2228721426329,77.03173804699237L98.1121459452236,78.0427717382931L97.95742446439908,79.04801334065014L97.75900222129188,80.04554931953922L97.51725692391932,81.0334808085283L97.23264874819485,82.00992722387768L96.90571946195705,82.97302984433821L96.5370913936837,83.92095534933266L96.12746624785423,84.85189930878568L95.67762376921529,85.76408961795909L95.18842025849233,86.65578987075384L94.66078694237254,87.52530266505784L94.09572820086186,88.37097283384722L93.49431965539061,89.19119059589096L92.8577061213069,89.98439462006088L92.18709942865563,90.7490749974142L91.48377611539102,91.48377611539102L90.7490749974142,92.18709942865561L89.98439462006088,92.8577061213069L89.19119059589096,93.49431965539061L88.3709728338472,94.09572820086187L87.52530266505784,94.66078694237254L86.65578987075384,95.18842025849233L85.76408961795909,95.67762376921529L84.85189930878568,96.12746624785423L83.92095534933266,96.53709139368371L82.97302984433821,96.90571946195705L82.00992722387768,97.23264874819485L81.0334808085283,97.51725692391932L80.04554931953922,97.7590022212919L79.04801334065014,97.9574244643991L78.0427717382931,98.1121459452236L77.03173804699236,98.22287214263291L76.01683682684275,98.28939228301692L75,98.31157974150767M75,125.22947341949745L72.8090211417581,125.18166609074211L70.62221293629995,125.03833510844362L68.4437380973347,124.79975331127312L66.27774347553475,124.46637485324172L64.12835216476978,124.03883433919218L61.99965565356321,123.51794561679287L59.895706036711374,122.90470022733221L57.820508301890605,122.20026551826368L55.778012705935666,121.40598242109341L53.77210725530132,120.52336289884096L51.80661030502105,119.55408706793179L49.88526329025128,118.5L48.01172360423683,117.36310820968987L46.189557636255074,116.14557583514092L44.42223398279118,114.84972051842811L42.71311684486766,113.47800899379843L41.06545962409642,112.03305239210198L39.482398729643904,110.51760127035607L37.96694760789801,108.93454037590357L36.521991006201574,107.28688315513233L35.15027948157189,105.57776601720882L33.8544241648591,103.81044236374494L32.63689179031015,101.9882763957632L31.499999999999993,100.11473670974871L30.445912932068218,98.19338969497895L29.47663710115905,96.22789274469868L28.594017578906595,94.22198729406432L27.79973448173633,92.17949169810939L27.095299772667786,90.10429396328863L26.48205438320715,88.00034434643678L25.961165660807822,85.87164783523022L25.53362514675829,83.72225652446525L25.20024668872687,81.5562619026653L24.96166489155638,79.37778706370005L24.818333909257888,77.1909788582419L24.770526580502555,75L24.818333909257888,72.8090211417581L24.96166489155638,70.62221293629995L25.20024668872687,68.4437380973347L25.53362514675829,66.27774347553475L25.961165660807822,64.12835216476978L26.482054383207142,61.999655653563224L27.095299772667786,59.89570603671139L27.79973448173633,57.82050830189061L28.594017578906595,55.77801270593568L29.47663710115905,53.77210725530132L30.445912932068232,51.80661030502107L31.5,49.885263290251274L32.636891790310145,48.01172360423683L33.8544241648591,46.189557636255074L35.15027948157189,44.422233982791184L36.521991006201574,42.71311684486767L37.96694760789801,41.065459624096434L39.482398729643926,39.48239872964391L41.065459624096434,37.96694760789801L42.71311684486767,36.521991006201574L44.42223398279119,35.15027948157189L46.189557636255074,33.8544241648591L48.01172360423683,32.63689179031014L49.88526329025129,31.499999999999993L51.80661030502107,30.445912932068218L53.77210725530132,29.47663710115905L55.77801270593568,28.594017578906595L57.82050830189063,27.79973448173631L59.89570603671139,27.095299772667786L61.999655653563224,26.482054383207142L64.12835216476978,25.961165660807822L66.27774347553475,25.533625146758283L68.4437380973347,25.20024668872687L70.62221293629995,24.96166489155638L72.8090211417581,24.818333909257888L75,24.770526580502555L77.1909788582419,24.818333909257888L79.37778706370005,24.96166489155638L81.5562619026653,25.20024668872687L83.72225652446525,25.533625146758283L85.87164783523022,25.961165660807822L88.00034434643678,26.482054383207142L90.10429396328861,27.095299772667786L92.17949169810937,27.79973448173631L94.22198729406432,28.594017578906595L96.22789274469868,29.47663710115905L98.19338969497893,30.445912932068218L100.11473670974871,31.499999999999993L101.98827639576317,32.63689179031014L103.81044236374493,33.8544241648591L105.5777660172088,35.15027948157189L107.28688315513233,36.521991006201574L108.93454037590357,37.96694760789801L110.51760127035607,39.48239872964391L112.033052392102,41.065459624096434L113.47800899379843,42.71311684486767L114.84972051842811,44.422233982791184L116.1455758351409,46.189557636255074L117.36310820968986,48.01172360423683L118.5,49.885263290251274L119.55408706793176,51.80661030502107L120.52336289884096,53.77210725530132L121.4059824210934,55.77801270593568L122.20026551826368,57.82050830189061L122.90470022733221,59.89570603671139L123.51794561679286,61.999655653563224L124.03883433919218,64.12835216476978L124.46637485324172,66.27774347553475L124.79975331127312,68.4437380973347L125.03833510844362,70.62221293629995L125.18166609074211,72.8090211417581L125.22947341949745,75L125.18166609074211,77.1909788582419L125.03833510844362,79.37778706370005L124.79975331127312,81.5562619026653L124.46637485324172,83.72225652446525L124.03883433919218,85.87164783523022L123.51794561679284,88.00034434643678L122.90470022733221,90.10429396328863L122.20026551826368,92.17949169810939L121.4059824210934,94.22198729406432L120.52336289884096,96.22789274469868L119.55408706793179,98.19338969497895L118.5,100.11473670974871L117.36310820968984,101.9882763957632L116.1455758351409,103.81044236374494L114.84972051842811,105.57776601720882L113.47800899379843,107.28688315513233L112.033052392102,108.93454037590357L110.5176012703561,110.51760127035607L108.93454037590358,112.03305239210198L107.28688315513233,113.47800899379843L105.57776601720883,114.84972051842811L103.81044236374493,116.14557583514092L101.98827639576317,117.36310820968987L100.11473670974871,118.5L98.19338969497895,119.55408706793179L96.22789274469868,120.52336289884096L94.22198729406433,121.40598242109341L92.17949169810939,122.20026551826368L90.10429396328863,122.90470022733221L88.00034434643679,123.51794561679287L85.87164783523022,124.03883433919218L83.72225652446525,124.46637485324172L81.5562619026653,124.79975331127312L79.37778706370005,125.03833510844362L77.1909788582419,125.18166609074211L75,125.22947341949745"/></svg>