<?xml version="1.0" standalone="no"?><!DOCTYPE svg PUBLIC "-//W3C//DTD SVG 1.1//EN" "http://www.w3.org/Graphics/SVG/1.1/DTD/svg11.dtd"><svg width="150" height="150" version="1.1" xmlns="http://www.w3.org/2000/svg" xmlns:xlink="http://www.w3.org/1999/xlink"><defs xmlns="http://www.w3.org/1999/xhtml"><style type="text/css"><![CDATA[
body { background: transparent; }
.stroke { fill: none; stroke: rgb(0, 0, 0); stroke-width: 3px; }
.fill { fill: rgb(255, 255, 255); }
.graticule { fill: none; stroke: gray; stroke-width: 1px; stroke-opacity: 0.5; }
.land { fill: rgb(34, 34, 34); }
.boundary { fill: none; stroke: rgb(255, 255, 255); stroke-width: 0.5px; }]]></style></defs><defs><path id="sphere" d="M62.32339340036124,146.89260854297703L54.87801328638895,145.17370710382204L47.65309386964742,142.68596784484527L40.72779287917804,139.45664695796097L34.17798536184479,135.52112555858477L28.075432379442937,130.92252204272899L22.486994779488953,125.71121967283295L17.4739006537837,119.94431456819645L13.091074510625816,113.6849901479483L9.386535510405025,107.00182488028459L6.400871357632411,99.9680409224201L4.166793613556123,92.66070188331112L2.708779301451102,85.15986849862912L2.0428027312298553,77.54772146858697L2.176160481560302,69.90766106898998L3.107391457022885,62.323393400361574L4.8262928961778755,54.87801328638929L7.314032155154607,47.65309386964772L10.54335304203883,40.72779287917833L14.478874441415044,34.177985361845074L19.07747795727081,28.075432379443193L24.28878032716679,22.486994779489173L30.05568543180329,17.47390065378392L36.31500985205144,13.091074510625972L42.998175119715114,9.386535510405182L50.031959077579586,6.400871357632539L57.33929811668856,4.166793613556209L64.84013150137055,2.7087793014511448L72.4522785314127,2.0428027312298553L80.09233893100969,2.1761604815602738L87.6766065996381,3.1073914570228425L95.1219867136104,4.82629289617779L102.34690613035197,7.314032155154493L109.27220712082138,10.543353042038703L115.82201463815466,14.478874441414852L121.92456762055656,19.077477957270602L127.51300522051059,24.288780327166585L132.52609934621594,30.055685431803077L136.9089254893739,36.315009852051226L140.61346448959475,42.99817511971493L143.59912864236742,50.03195907757943L145.83320638644375,57.33929811668843L147.29122069854884,64.84013150137045L147.95719726877013,72.45227853141263L147.82383951843974,80.09233893100965L146.8926085429772,87.67660659963809L145.1737071038222,95.12198671361043L142.6859678448455,102.34690613035202L139.45664695796125,109.27220712082146L135.52112555858508,115.82201463815477L130.9225220427293,121.92456762055669L125.7112196728333,127.51300522051072L119.94431456819679,132.52609934621603L113.68499014794864,136.90892548937398L107.00182488028493,140.61346448959478L99.96804092242044,143.59912864236748L92.66070188331145,145.8332063864438L85.15986849862944,147.29122069854884L77.54772146858727,147.95719726877013L69.90766106899028,147.82383951843974L62.323393400361844,146.89260854297714Z"/></defs><use class="stroke" xlink:href="#sphere"/><use class="fill" xlink:href="#sphere"/><path class="land" d="M86.47839470193489,146.95222609717513L85.45732488967369,147.24879150648508L85.21396621046927,147.1660644684937L86.09872039274634,146.00557260409607ZM58.93277543397059,3.7884292215055524L57.614541735118735,5.716034394013363L57.450227760987886,4.498480352027926L57.450227760987886,4.498480352027926L57.62839753944445,4.095339039325765L57.62846844411413,4.095321667758753ZM64.28270187634841,2.7893149255284015L63.223398968439206,4.730922305895106L62.82864854921522,3.7495069197287023L63.38052894094169,2.928983562714677L63.38060101196396,2.9289719432796772ZM60.45600649854485,5.925186674468264L58.89604402284483,5.875590773608323L59.94017593292928,4.138150633939702L60.15915878849692,5.383707472875969ZM56.23766132998719,7.301831300540428L55.51389528209917,6.039163091520791L56.38567580317693,4.579862881966349L57.81027130572188,7.396525854980837ZM61.27431716451397,6.172938578016058L62.7240485863086,7.490194686287282L61.69876608518645,7.639491433008402L61.18686157453443,7.288673661795059ZM62.71182968220834,13.582553937205127L61.08744826477982,12.256196221607368L61.24211941586762,8.834281540304787L58.557643028715276,8.769704404591323L58.01729413866795,7.321070237767927L63.3390928655755,9.230278799855014ZM79.85048792338365,137.75930603576836L78.09043011607925,138.20471646391698L78.0265992575986,137.70704507718764L79.0791963486013,137.48090269289156ZM67.02408691305219,138.04982272204512L65.88520504786437,137.28304938076366L68.15722250496518,137.9722523796441L67.40337940975064,137.90683243255495ZM72.26663457311345,136.00974425574114L75.067427293105,136.31605447421057L76.83608870523564,137.48327533508962L70.1000967276606,137.6302401527007L72.44107644662027,137.37492381697035ZM74.63714110321376,12.57366305519826L76.48515035358079,12.403695216120916L76.46214394386735,13.373372280084965L74.1495836642675,14.179501066093216ZM13.234042660794799,79.80299921421965L13.16121742629067,79.37885998260764L14.533661860149593,79.35805566923568L13.773386390173073,80.57477381206797ZM14.942069909720388,79.1010688261508L14.839117136901606,78.76640501498237L15.223965208119587,78.44072880718242L15.231509152495661,78.89268159487692ZM15.50290429869176,78.3871635941029L15.380420387111023,78.35655267644486L15.37151310854756,77.79351359400096L15.515513941222395,77.86169376537852ZM15.617403137785026,77.44550819957844L15.579370710255994,76.96099932345916L15.873633050430627,76.76533488408431L16.041624021227996,77.01992454870333ZM16.385695085408145,75.20257756093251L16.56754783536448,75.64258852711836L16.309793018178432,75.68230763952624L16.188864891699524,75.53587424246165ZM65.26009374977662,132.01693239983558L66.54807207575703,132.5013457092564L70.57693579683648,135.44126200617518L66.76201262794417,135.53336571471965L63.160784797168766,131.75931863004672L59.796462353052185,131.79390392098097L62.82692843283702,131.06470632697472ZM67.55752199413415,131.27503368056318L66.84000318388443,130.27381062431266L67.14427645976133,129.63775735517726L67.4137750067001,129.71454069723166ZM63.8021595591131,18.29155988226671L65.01745153145514,18.901635160029855L64.01958081452688,21.001292448247L63.51124835143504,20.77376819677442ZM66.6505751809813,127.87207848593292L67.68718351130585,127.9873615203649L67.68454902646045,128.25351812857826L66.6556791888522,128.27421978680854ZM68.19502337745155,129.06638026309005L67.78436303090143,127.77284893315473L68.45724637119558,128.33493878773794ZM55.77431714706517,33.076044141075684L55.716100059120244,32.09822649226848L57.01992185219467,31.306160166359568L57.02012423147167,32.4507780198622ZM118.20626220500239,63.76054137377734L119.53182657248189,64.72122831258237L119.17053072708944,65.41672188542223L118.77633658680692,64.92457901455673ZM119.51629002373613,72.11472962810099L119.8146710551481,71.67093349831805L119.73557254848376,70.06064887162256L120.21823898236248,71.26929631118689ZM117.09166522136677,78.2864063980625L118.57338111235589,78.73286727283266L117.42331978368993,80.63090753189496L116.96704911023406,80.46303800430384ZM113.75218126640078,82.39313105572394L115.65811978944672,82.41305037253113L115.78846906842995,83.07420353363187L113.85318992821715,83.14883715224015ZM52.74903579937265,37.92729338724852L52.246440997352,35.98699682117149L54.64488434482749,32.8701147147542L55.643803576331315,33.61786846888353L58.38406466291232,31.711975974141694L57.35448117603518,31.34160632676553L58.14382899280976,29.203586213509375L59.39408147438062,30.721451228011524L57.743159578616336,33.5823551837747L55.59407892765567,34.64064887894091L54.54146759821054,41.441592235019755ZM113.61122351759394,82.34109652777815L112.73322309970992,82.64203939888803L112.1670068119171,81.96975845675605L112.95831362749982,81.99476547843838ZM54.47347824903257,44.48138689488853L53.14898652315739,44.416342628979876L55.46028242330641,41.10704929433609L56.17434185077722,44.84946690472605ZM78.82122557109449,109.45984876107437L79.26759959599532,109.51918077840787L79.82877484433844,109.42915607476297L79.36017406477792,109.90764986046244L78.37239046403009,109.34762741239237ZM79.62700112092298,107.10987798324484L78.58655161128802,106.97664188914531L78.02526047411044,106.62944974519685L78.97532224725425,106.66471968610577ZM48.504333507895446,94.59835523358419L48.016486317060455,93.42722384435928L48.60347213877173,91.25777866344072L49.03250305693661,92.68556547108746ZM82.44085841683511,105.17462550367009L82.26852410773354,105.97900301642079L84.18754451208247,105.98356116531633L85.07945419057991,108.07430486783264L81.27601389481757,108.15120303767135L82.64457666150957,104.33022526636447ZM49.89856010329545,87.94069167878351L50.18824407985856,88.328949185908L48.88670849880617,89.36829966219173L49.36710109864788,88.03171577908145ZM57.81912328517376,49.17627386680416L56.4955822691755,48.22080509669897L57.344848322580525,47.98751087944653L55.666311098619246,45.78150609955317L56.31211477052757,45.1953345547065L60.04121036524286,51.242369002278664ZM101.53870895490172,88.39792272933705L101.07924948816309,90.0513996361171L99.63516087168631,89.0533403550158L99.37109698198887,87.28440423837357L100.05914724967306,87.04430250944944ZM102.32936367858856,78.80237162074282L101.4447503276921,79.23998115483435L101.27849184775718,78.52159486403276L101.69852000192172,78.42429452298607ZM49.1506335617241,77.71441451130282L49.71337722000451,77.36648473942387L49.95939242073154,78.45987754789935L49.512384928079584,78.1307049370925ZM97.47871412107197,84.54456547837536L98.10459438532513,85.32860781399887L98.37535171331061,84.42631922352528L99.48119815959781,85.44934415102234L102.84496877226914,84.22277244766087L103.96943820846494,84.71657534102823L103.67065218708137,88.51493809640715L102.94338663799579,87.09353828997504L102.09022236150211,87.79075767564517L101.09228062195064,86.94072349626482L101.05019310063628,86.02241110033333L98.29327900044483,86.43073185047648L97.14236107787357,85.33574155096356ZM51.62853060039298,72.45666228377934L52.053251402698294,71.99092118518142L52.04284852804406,72.72048166480297L51.71798914325701,72.73253935358856ZM71.52841036960572,96.28842842934945L71.31068275741724,96.67914712815912L71.09610169767392,96.31668549393984L71.30705390056782,96.05979604869896ZM70.64841495940186,95.66728951160638L70.11916829732043,96.01015472202698L69.84925902899278,95.69172527275627L70.19269473195169,95.40260604853142ZM55.168162619451365,70.88610285069304L55.01395412689649,71.29759147844672L54.593807609868506,71.87928379018547L54.38458626195923,71.54167265090135ZM70.09161217133067,93.10768527035256L70.05598516373774,93.4687215643494L71.4414950262708,94.99752978211289L68.9446553387031,94.53905417885198ZM89.9452026404727,85.26826954806008L90.97924304245242,85.62758699765342L90.99406238128861,87.79893955221429L89.77249112468131,88.6662058552378L89.74239205110322,88.16464283895226L88.94800139161316,88.4508087871711L89.06078804698923,87.76396089576413L88.4532429879029,88.13783939128392ZM73.20002736695847,92.48486377725183L72.85459168880858,92.48884757762265L72.82609503122605,92.09848082221549L73.4905032785641,91.84215869279825ZM57.5840855747021,70.32315490875624L56.77074200818913,71.82406220217379L55.62532145261019,70.54719557185065L57.568060506889246,69.09830152402722L56.85889547078139,68.39717793465263L59.81538057278731,69.47325050983427ZM68.05572948530991,89.46557439912522L67.78275108749234,89.63151129200662L67.14870474856916,88.71802774975632L67.79573298661317,88.4157531421969ZM61.19307889290607,69.97469169015605L61.2509085294395,69.70015055982684L61.50336128793704,69.74869805346515L61.69453530127491,70.15720689658434ZM61.13619338765208,70.30631652389506L61.19307889290607,69.97469169015605L61.69453530127491,70.15720689658434L61.328583142773454,70.66638571306123ZM68.59319259053626,147.71998581417478L72.88063478756185,144.87986831106056L72.82017413823105,147.9691159135706L72.82010116911619,147.96911373370824ZM73.50673298421188,147.98639374304844L75.07725165729677,145.24999238299029L77.25932870809946,147.24728364519365L85.19008329456707,146.3509488433556L86.23643685000668,147.1317267567577L86.23636471827436,147.13173799315848L78.63499101141754,147.91111272187976ZM55.23425905804774,145.27488173601841L54.29203238019909,140.65031028202065L50.456064049847875,137.53370129847485L46.85049523756018,134.28248408286825L43.47028263939152,130.90932428698298L40.31046545143998,127.42537824967576L40.36384499544884,118.05683903522666L40.90232610809879,109.38276141043102L38.54691606768107,119.32672353308979L37.607802426983866,116.28239868610142L40.32549717566548,107.01718999326116L39.69573220434061,103.96824332105022L42.245693424348545,98.4407533074989L47.87382372889044,94.20749102492476L47.85541214435779,95.77293608006633L49.07589662696554,94.65872870109109L48.91153819866204,91.66198610368977L52.647527666882524,85.85599058366309L52.979599970956954,80.0317321702061L51.25716244843655,78.46321020744993L53.03035981611376,78.62875340669842L48.40688522315051,75.72709297589888L47.17283249427487,72.67772652059031L50.832404764316934,76.25400709079499L50.62266372851491,74.16482808168772L53.03403770565778,72.63754195590309L55.55296187950796,74.73725065031628L56.42689218722424,72.35043341246521L56.60398249985712,74.46232023730597L58.489099489485696,73.0456088861536L60.739507096607426,75.84781391317095L60.141338631833634,81.45837076656426L62.29162290451286,82.89340929645338L64.07988455882908,88.53688471182122L65.39110398548121,88.14977186904297L66.03173294132884,89.66925845093407L67.36068467756766,89.57561118991956L67.31394620069811,90.6811434480521L68.40068056401769,89.65717009859546L68.1933244933051,88.669014016211L69.10601974118124,87.51881089496906L69.48138096665119,89.73586516512299L69.48138096665119,89.73586516512299L69.76307917423047,91.74920106821148L70.86718245748726,89.8756848958426L71.59241790379457,90.23183201409444L71.64249213353648,91.8914662605713L66.47694659623643,94.92483533379996L64.91081369698128,96.96426958944757L65.25222141289346,98.77317788501213L69.1891749869003,101.68165973605015L69.72815201946821,105.17525868649513L70.58391299232817,104.15231222446972L70.26488201508988,102.30547101575681L72.0274969474113,100.9858794058405L71.40748130304274,99.0213245493778L72.00029607906103,98.243371129383L71.97556808423671,96.22471182948108L73.57643819530226,96.29011991427697L75.16580725965925,97.45610772519177L76.02332950339945,99.75421870117466L77.17935659309165,97.9374906061412L78.75381920904424,101.05028043510109L81.08233621028872,102.06815702849917L82.37971794575242,103.9087113063706L80.44425427001492,105.98976041758593L76.97092687266054,106.40255726144886L74.34550475924617,109.42750122546741L77.79520196218681,107.21155766235657L78.37048914944239,109.77765501689626L80.65213392427626,108.79049464981337L81.22600472788804,109.67205496150265L78.01803314687163,112.22240784802817L77.44696474949197,111.42373252213855L78.47428951502008,110.6155882636393L76.79894718625383,110.86746248951644L74.5427861934486,112.79585025108503L75.0184144358772,114.07273603058903L71.05520041057672,115.8371814681899L71.2988172198991,116.88783700404406L70.52533402681364,117.93692624619688L70.42843709280942,116.1084859508841L70.52783577227842,119.54120249247552L65.39949026352467,122.82801567070719L65.0562254552195,129.29657695422856L62.79706878239311,123.63072654695283L54.57730395775977,121.20965360709968L51.75214348822202,121.4660944822119L47.789024290851046,126.44514875299328L47.67721649286357,130.3037914983182L51.586185525907915,132.8256456381276L54.27570235598912,131.08814210924652L57.65549689337141,131.59455169955743L53.66960917331268,137.13497865440058L59.603063726122244,139.61786616698603L57.924818831580325,144.52617197739056L59.00107552118462,146.22694668113257L59.001004294245945,146.22693068217248ZM66.00531836565912,84.26578752548073L66.31835149678358,86.04318398708236L66.97208993427374,85.13275591906708L67.29910002460441,85.40084590824557L66.91327810251329,88.41604094828244L63.69012956248646,86.99279386780513L63.69559728866024,85.41178995399939L64.84172152377953,86.11645482971629L64.28019042434032,84.18606023433946ZM67.39714648196717,85.1081467671152L67.77949388258097,85.2143113688082L67.82006463806702,85.44669498743777L67.36418728956231,85.75872888163723ZM73.57117665778739,87.84828962918903L72.82522889711757,88.02671780008424L72.59371174542761,87.516749821702L73.24512778028671,87.37091356960765ZM71.32506166416672,87.35043451707503L72.34838199504645,87.13878665906685L72.44279942404162,88.48447961222477L74.4473696823264,89.1205126624675L75.84034836132598,90.95328201900273L75.33630704352454,91.33954815648525L77.52837655601088,92.62455355889259L77.041775952443,94.1826645815568L75.62911158064087,93.27884967974735L76.90716270598259,95.48267073835072L75.43012388777575,95.27829175581755L76.45747452160045,96.69490269266366L73.35277342429872,94.47976853942004L72.32778829094825,94.7283904022397L72.38408431258325,93.86691015176854L73.69039015388154,93.8731522352611L74.12617257862851,92.10020864142315L72.62690688407275,90.02742622389154L70.10801651939934,88.52650216558196L70.70445187853274,87.16333931105379ZM68.76228190514132,85.64894408552142L69.29386050736403,86.0215622163164L68.68315611401252,87.54672931986718L67.80929052881467,86.29400352889029ZM67.89234292751416,64.30226193715393L68.17712027757155,64.11842378078441L68.66868922321265,63.96991393710512L68.45054275103357,64.5398973756731ZM69.80921227402142,87.11374802166867L69.10698668663525,87.39527568417473L69.44854262318842,86.38035932833279L70.67896386321357,86.56018096190864ZM64.01721572514269,84.06960288049977L63.29850681633931,83.79265918998257L63.50433637866949,82.77654046661367L64.91019086209458,82.34618603276486L65.17479554811771,81.90155751404471L65.98587776258253,83.85272691773959ZM67.56516507946033,66.36507352369159L67.5453463488399,65.98148950293893L68.32395481309223,65.85177174921739L68.43209068728346,66.08259154644398ZM70.40530386701899,85.50316847083073L70.18121457464405,85.73861266007657L69.80656441086512,85.2671436250648L70.39802203334634,84.93613458959874ZM68.6674044401921,65.98177022242511L69.30833938832589,64.7133060941658L69.89427762112287,64.96893957574693L69.89749576611138,65.73692555993642ZM70.1673639336166,83.9051116493083L69.5955300002154,85.09459627830456L69.08176137298923,84.29541211560814L69.39114188854079,83.78509714327176ZM68.4930863810275,83.26619330015329L68.53092081355078,84.00646760384538L66.65255937155472,82.59191978976838L67.65636255550058,82.23939848981077ZM86.71554882150231,65.9935179525541L86.74228116216425,67.81357900639792L84.25997663664351,68.35985254412643L81.74824500126383,67.27608207328794L84.3873973816411,67.5361769356195L85.98969672728636,67.18207538354918ZM70.89217950581899,83.9427704127392L71.38993633532814,85.3673200145675L73.03169233188147,86.35041791000324L70.99897481108479,86.12852179520027L70.39399108007994,83.99329971324869ZM68.20644269623678,81.51441847293748L67.47624506989244,81.9910860493208L66.5583369559718,81.39311876046497L67.80016217479118,81.23275652448261ZM109.40470713020335,55.82941329785283L109.78785479139862,54.6006638518912L112.3870714443666,54.10599695990523L111.0532236440958,50.824916556773374L109.12139078701743,53.10179819097581L107.62075912774208,52.37567706070131L107.12525908869719,53.54644846148723L108.21697114359552,53.59371371765571L106.40319348622461,56.63840184477266L105.00745919959792,55.47470403875802L103.83524729483476,56.237440537624906L107.5045332240841,58.66708330298226ZM83.00939608646931,2.4390387858195908L86.80302455927185,7.3158464087432975L88.46674048488954,3.2511991827851006L88.46681223368364,3.2512126495614666L90.09897759807639,3.5768637380818404L89.3291687417553,12.15480102518395L92.8367954973827,11.95173548532376L93.41971738355683,20.168345223215667L98.17574451100236,20.489482182972807L107.49632002672897,17.930643082434692L111.40661493532215,12.260959615561603L112.03026842942555,12.08734039924532L112.03033134206669,12.087377429545228L114.94504847260714,13.896508933475772L111.04308750189816,27.79400099556789L113.14213837054925,28.767632696724775L112.92729186902037,35.210487277839384L118.40654105243414,41.8039002196844L117.73681087060447,43.367591266158584L119.69554255295007,47.60715581521649L118.33050005584192,49.88318803453973L119.37645622257261,51.429652087386316L123.00074382375817,45.248507710328376L118.43842279759559,43.016966898434134L120.01479662532533,41.285790722855275L119.80623105605397,37.64237446835222L127.3241726982863,37.974999484808684L133.19937691206292,42.31952662205289L138.89934749569758,47.24978435707246L134.66435891095693,50.10758048005534L129.27451253565354,56.35356810489525L124.03365890930533,61.94812054799753L126.0967121926125,62.323233335936465L124.19620749733102,64.16438977403133L134.5980578964646,56.211377829404356L140.30105518393313,47.65950492882456L140.8341487070353,44.8219859059474L135.30310024555274,38.612636157666756L136.83655369778475,37.793267616912864L137.77116708610902,37.73038636310372L137.77120435569128,37.73044913428948L141.32306600903968,44.49599316226955L144.14827827219924,51.595745472537615L146.21588752840103,58.95191969306369L147.5032406179591,66.48392003970926L147.99623303102834,74.10922434050407L147.6894634395658,81.74428816583111L146.58629287541123,89.30546015868028L144.69880790611882,96.70989853642095L142.04768821199372,103.87647872270824L138.66198001518723,110.7266821653179L135.29701498016902,116.15232074229857L131.3683840202429,116.88676771636209L121.9856194010012,110.37496775171344L118.60276643341277,102.05637446427126L115.07475068809958,94.47878477972492L116.36545908029717,88.66386848678765L117.33255633348466,82.82833620938695L117.95384638439688,81.72093142186549L120.8153764542675,82.78937057343583L124.95033415537563,75.78476104176424L122.3730342310472,73.719650109346L122.73212310341066,68.51983213419565L122.83073532152217,63.261045585970685L116.98737964244862,62.82885737129209L118.31156539465105,69.19579376431977L115.823868435584,70.59638272674609L112.64214290949272,65.9619828997064L112.6773285632834,62.49428823032314L111.0116567555008,60.66181565425178L109.31139707480301,64.72588424598558L107.16175191884034,63.85173361520643L108.72291512272787,65.97816581242472L109.47636487436236,64.88859087084562L110.53087053218937,66.20871632242186L109.91097308506721,67.28775010423428L109.14461239413485,66.93778692725235L109.02978704042806,68.529965416152L112.86378434011223,69.90163160930057L114.13114157949997,68.92757482627418L115.28533225966908,73.15074041869723L117.65558547695761,71.99298839856475L118.89733375348717,73.09549199418214L113.9893483130727,75.31850942576996L110.13389319352498,79.21476754947145L111.53559639160967,79.75600157335333L115.39673112040315,76.0663988418244L115.10183413253662,77.19452105680793L117.34180885847385,77.87795448476894L115.3981907982292,78.23081641036114L110.91449072838977,82.06249142974777L111.13788325481696,85.96966935468689L115.46016450083211,91.46390483146425L113.07306947821331,96.02690706016378L107.93749477259483,93.54337560350415L109.36698351312705,88.4586832498946L107.7523013891788,87.7078057845551L104.82529043090956,88.64907695848089L105.52531841728359,87.08715986396894L104.54733125436603,86.89364421423346L103.05034431852192,80.90151660964578L100.16818847930254,80.09726633871752L99.83437824193334,79.125976388719L101.59857895617588,79.84962429795038L102.9024014027869,79.45570928444049L102.9083794264772,75.15783563373616L100.41706530553634,74.29707001869865L100.68742794967848,73.15671476483865L98.93844451894641,73.5994553244397L97.99590763145447,71.31298409750617L97.7131742739534,74.47182100938397L95.72251169855457,74.43993315990868L94.11975323951364,73.19246936563802L93.70449056716285,74.28268189392386L96.07651143172475,75.79502197180474L97.19554895188124,76.11672241186817L98.24036850461214,75.49660525824507L101.44540769033098,76.89767654546428L101.9215360802311,78.33259823439789L98.40834648289491,78.97980545786103L98.7042141142445,81.05509817132153L95.97352715833709,80.62513710290051L91.99397082669196,76.56347843099446L89.49288941202843,73.85010638676923L91.17740530838675,68.76994801085328L92.54452370562606,69.16444842785022L92.51648616208732,70.89886049605326L94.32463292142468,69.08091048698154L93.32134018894558,69.3378061755595L91.84639478480342,67.51978776477698L90.09840612884537,68.4543363572742L89.98823948159954,67.60971592321204L91.0948062888268,67.02634592118733L88.4969191251447,65.9866298894907L87.8041310643309,64.283451242986L86.74369439508996,64.95573063416661L86.15839422604503,62.38912690450858L84.97134068902227,64.4199024723548L83.5782278857036,65.0687160720965L83.00440190550243,64.53019969226536L83.799512343285,63.79965048052527L84.82209868309666,61.63794219065214L86.40746169193656,60.77687320577758L86.19750633189767,60.44858488173273L84.79268722677773,60.98884299646412L83.5342217023029,63.63128945160849L82.60008059432363,64.2844855377992L83.00244389229493,62.98011295435502L81.6705303982394,62.71740240868452L81.14852919728598,64.12274539397252L79.82985355548813,63.71877532209747L79.40800256474799,64.52262369244241L75.52276574477303,65.07574746373155L75.52276574477303,65.07574746373155L74.21872361980233,64.23087870770726L75.12725482185449,62.91017267684447L71.33347572269281,62.982360444871595L69.6556111442368,61.2832473929103L67.944169975043,62.70769353073451L68.44714173719944,63.24418364533605L68.3458178908232,63.68902061828381L60.880250523453626,66.71432236863551L61.715050140095215,67.47119645304588L60.9270164781112,68.65040814282153L59.81538057278731,69.47325050983427L56.85889547078139,68.39717793465265L56.89785094516405,67.46767185309572L54.9387789343283,67.39705051384826L54.665055408040246,63.408221850704365L56.161218560287544,61.08360755719241L55.49094197363096,59.77659971613081L54.77419002850053,59.861627134286955L53.260879161693715,58.080340335341035L52.55496610813253,53.90624846074341L56.35191866352069,56.93732774988102L57.70322101050404,62.65433120635222L57.4518293697625,60.34098354770004L58.87771647349636,59.810140875870616L58.603732808153254,58.15195646939716L58.008557339721946,58.03789404089085L62.16059102143211,54.60838087909921L63.25243511775865,49.9665913087417L60.993451896474454,50.63398348552181L59.509179737600654,49.59019773411774L58.49957136143216,44.27297711979246L62.70409461285897,36.10359993073424L60.21144793853657,32.27128495271073L61.97119851002604,31.011696944667115L64.17996716127278,35.477164006148044L67.01871234800612,34.176139461722585L66.99159980330445,36.11762043262513L69.22353973164455,34.09420227595846L68.35405788291406,32.56905935794925L65.80806885534852,33.046911052642656L67.78191707795051,30.205953904450787L65.0008643674899,27.510400450659972L64.46789200435455,24.02664957831493L69.07871064915506,17.480826772200402L74.53397209995649,14.459786110906514L76.51044074611455,16.02637231788117L79.4086378746479,13.965578778825126L75.80921928825312,6.321380466166346L75.96845832228954,4.144864685255172L78.83782335992272,2.0992823776489047L78.83789626063847,2.099286215508741ZM71.1560879851579,83.69747276924844L70.81635129904497,83.50843684488737L70.8712951595092,83.30424656617886L71.16029741046668,83.45694833045806ZM68.56421781421365,81.77305044072928L69.13528570155641,82.02283630566001L68.95294918280952,82.15850078237716L68.57407199168304,82.1214026696952ZM84.22880131116187,74.23858328254879L84.55536939914096,74.58543547037716L84.39766051749639,74.881887485897L83.77936319648413,74.55828478652636ZM69.4614286233178,81.68334534203552L69.22053703023369,81.67833059434636L69.02993742950832,81.50850556200861L69.3781088195274,81.35771196350719ZM71.03849698346741,83.18616225347874L70.71908444702069,83.00808401737748L70.93989516073371,82.4369155659399L71.19378036585945,82.9543242561605ZM70.53984741785399,82.70283815616122L69.90300653207359,82.2295952801014L70.15058702951747,82.1323679630658L70.27091609464671,81.62783861776168ZM75.76511208682136,66.11814630432286L76.68946789490722,65.95149786536686L76.11694041073822,66.96279396348663ZM82.83508670072567,75.24132397133654L83.40097859258911,74.77294694762534L85.06446472736738,75.72220851648132L82.7711357700461,76.30615305218228ZM82.50003578980224,74.02368688239895L82.362809381525,75.33798271058873L82.0998788739316,74.63831164433815L82.26889517155335,74.30820924243164ZM81.15517044476006,71.28064379418622L81.74055413627516,71.47930486715121L81.50119924775639,71.99017242394129L81.03550041753773,71.29576492889292ZM76.48181111375386,66.65755429961284L77.16654706083301,66.93714009455066L77.37338151638743,68.03655765246178L76.61775733855747,68.5443744224506ZM72.6997445229336,82.52252863936124L72.78860960335392,82.80730358498556L71.80699078247335,83.39723049971667L71.62982802554455,81.69394974580484L72.46353660975716,81.15293376154207ZM75.13747882313922,80.23909619420711L75.79488475022812,80.54090284543925L74.02044484516628,83.06899227783478L74.17649275176343,83.69634002452143L73.0673247744707,85.36913506074427L71.55998896077972,84.7213283794228L72.11107892307871,83.75433897826395L72.54462224199862,84.17223949556495L72.26596807136129,83.42709602871487L72.88690093975237,82.83447822870723L72.837548117117,82.1037835622113L73.50854584559508,82.10561163125628L72.73463459189621,80.72891588708472ZM78.35333506099934,78.60769758164342L79.18366402064319,78.61482182347979L78.65582320452089,79.6653263828341L80.60692289214381,78.53404231611103L80.72752411296742,79.81209973884377L80.93814512799246,79.59478242052731L81.59231378597411,80.47537150195987L82.76804338110269,81.17629136126402L82.6175096994919,81.78508623766635L84.26899068896927,82.61036766161934L84.6015399913762,84.53090763791316L86.05380224678606,84.87081052294066L84.9657178746916,85.15697510461312L85.45802085767227,85.97150715115686L86.26611855028584,85.26584991745149L84.51583518346276,91.35114167284853L85.41410796114643,95.7660099571933L83.37624977433158,96.00889933370013L81.41818718383627,94.34694115045711L79.85141877369028,91.86489881502526L80.04951956540076,89.54525678006421L79.13730629378216,90.09390810658243L78.9642255980722,89.14813448741887L79.75046668686961,89.1117659707442L78.44026879438128,88.61937898468057L78.51281978790065,87.84728783213986L77.18711111041337,85.8428184254368L75.27886960469863,85.62727081375333L74.75559692795271,84.90730709300905L75.54223640792162,84.60439757408507L74.47802707014662,84.093173477537L75.60185734875985,83.05062361400249L75.25873508454715,82.51755310639248L75.79887632677476,81.2054956670026L77.72722747728254,80.72249332850156L77.21498623056489,80.1556875683577Z"/><path class="graticule" d="M6.40087135763234,50.03195907758009L27.79973424392574,57.82050821533464L45.24424712669525,64.16979165593604L60.58469430059336,69.75325780756805L74.99999928656824,74.99999974033207M3.107391457022942,87.67660659963873L25.533624897530295,83.72225656841086L43.8156579309543,80.49864088241479L59.89260796477927,77.66384082394958L74.99999925231602,75.00000013183686M19.077477957271107,121.92456762055716L36.52199081233662,107.28688331780435L50.74288800911005,95.35413372498175L63.248535124542954,84.86064984278877L74.9999994184051,75.00000048801606M50.0319590775801,143.59912864236767L57.82050821533465,122.20026575607426L64.16979165593605,104.75575287330474L69.75325780756805,89.41530569940663L74.99999974033207,75.00000071343176M87.67660659963873,146.8926085429771L83.72225656841086,124.46637510246971L80.49864088241479,106.18434206904571L77.66384082394958,90.10739203522073L75.00000013183686,75.00000074768398M121.92456762055716,130.92252204272893L107.28688331780435,113.47800918766339L95.35413372498175,99.25711199088997L84.86064984278877,86.75146487545706L75.00000048801607,75.00000058159489M143.59912864236765,99.96804092241992L122.20026575607426,92.17949178466536L104.75575287330474,85.83020834406396L89.41530569940663,80.24674219243195L75.00000071343176,75.00000025966793M146.8926085429771,62.32339340036128L124.4663751024697,66.27774343158914L106.1843420690457,69.50135911758521L90.10739203522073,72.33615917605042L75.00000074768398,74.99999986816314M130.9225220427289,28.07543237944285L113.47800918766339,42.71311668219566L99.25711199088995,54.64586627501826L86.75146487545705,65.13935015721123L75.0000005815949,74.99999951198393M99.9680409224199,6.400871357632326L92.17949178466534,27.79973424392574L85.83020834406395,45.24424712669524L80.24674219243195,60.58469430059336L75.00000025966793,74.99999928656824M62.32339340036127,3.1073914570229277L66.27774343158913,25.533624897530288L69.50135911758521,43.81565793095429L72.33615917605042,59.892607964779266L74.99999986816314,74.999999252316M28.075432379442844,19.077477957271107L42.71311668219565,36.52199081233662L54.64586627501825,50.74288800911003L65.13935015721123,63.24853512454295L74.99999951198393,74.9999994184051M27.79973448173633,57.82050830189061L27.095299772667786,59.89570603671138L26.48205438320715,61.99965565356322L25.961165660807822,64.12835216476977L25.53362514675829,66.27774347553475L25.20024668872687,68.44373809733469L24.96166489155638,70.62221293629995L24.818333909257888,72.8090211417581L24.770526580502555,75L24.818333909257888,77.1909788582419L24.96166489155638,79.37778706370005L25.20024668872687,81.55626190266528L25.533625146758283,83.72225652446524L25.961165660807822,85.87164783523022L26.482054383207142,88.00034434643676L27.095299772667786,90.10429396328863L27.79973448173633,92.17949169810939L28.594017578906595,94.22198729406432L29.47663710115905,96.22789274469868L30.445912932068232,98.19338969497893L31.499999999999993,100.11473670974871L32.63689179031013,101.98827639576317L33.85442416485908,103.81044236374493L35.15027948157188,105.5777660172088L36.52199100620158,107.28688315513233L37.966947607898014,108.93454037590357L39.482398729643926,110.5176012703561L41.065459624096434,112.033052392102L42.71311684486767,113.47800899379843L44.42223398279119,114.84972051842811L46.18955763625505,116.1455758351409L48.01172360423683,117.36310820968987L49.885263290251274,118.5L51.80661030502105,119.55408706793176L53.77210725530132,120.52336289884096L55.77801270593568,121.4059824210934L57.82050830189061,122.20026551826368L59.89570603671138,122.90470022733221L61.99965565356322,123.51794561679286L64.12835216476978,124.03883433919218L66.27774347553475,124.46637485324172L68.4437380973347,124.79975331127312L70.62221293629995,125.03833510844362L72.80902114175808,125.18166609074211L75,125.22947341949745L77.1909788582419,125.18166609074211L79.37778706370005,125.03833510844362L81.55626190266528,124.79975331127312L83.72225652446525,124.46637485324172L85.87164783523022,124.03883433919218L88.00034434643678,123.51794561679286L90.10429396328861,122.90470022733221L92.17949169810937,122.20026551826369L94.22198729406432,121.40598242109341L96.22789274469868,120.52336289884096L98.19338969497893,119.55408706793179L100.11473670974871,118.5L101.98827639576317,117.36310820968987L103.81044236374493,116.1455758351409L105.5777660172088,114.84972051842811L107.28688315513233,113.47800899379843L108.93454037590355,112.033052392102L110.51760127035607,110.5176012703561L112.03305239210198,108.93454037590357L113.47800899379843,107.28688315513233L114.84972051842811,105.57776601720882L116.1455758351409,103.81044236374493L117.36310820968986,101.98827639576317L118.5,100.11473670974873L119.55408706793176,98.19338969497895L120.52336289884096,96.22789274469868L121.4059824210934,94.22198729406432L122.20026551826368,92.17949169810939L122.90470022733221,90.10429396328863L123.51794561679284,88.00034434643679L124.03883433919218,85.87164783523022L124.46637485324172,83.72225652446525L124.79975331127312,81.5562619026653L125.03833510844362,79.37778706370005L125.18166609074211,77.1909788582419L125.22947341949745,75L125.18166609074211,72.8090211417581L125.03833510844362,70.62221293629995L124.79975331127315,68.44373809733472L124.46637485324172,66.27774347553476L124.03883433919218,64.12835216476978L123.51794561679286,61.99965565356323L122.90470022733221,59.89570603671138L122.20026551826368,57.82050830189061L121.4059824210934,55.77801270593567L120.52336289884096,53.77210725530132L119.55408706793179,51.80661030502105L118.5,49.88526329025129L117.36310820968984,48.01172360423681L116.1455758351409,46.18955763625506L114.84972051842811,44.422233982791184L113.47800899379843,42.71311684486767L112.033052392102,41.065459624096434L110.5176012703561,39.482398729643926L108.93454037590358,37.966947607898014L107.28688315513233,36.52199100620158L105.57776601720883,35.15027948157189L103.81044236374495,33.8544241648591L101.9882763957632,32.63689179031015L100.11473670974874,31.500000000000014L98.19338969497896,30.44591293206824L96.22789274469868,29.47663710115905L94.22198729406433,28.594017578906588L92.17949169810939,27.79973448173633L90.10429396328863,27.095299772667786L88.00034434643678,26.482054383207142L85.87164783523022,25.961165660807822L83.72225652446525,25.533625146758283L81.5562619026653,25.20024668872687L79.37778706370005,24.96166489155638L77.1909788582419,24.818333909257888L75,24.770526580502555L72.8090211417581,24.818333909257888L70.62221293629995,24.96166489155638L68.4437380973347,25.20024668872687L66.27774347553475,25.533625146758283L64.12835216476975,25.961165660807822L61.99965565356321,26.482054383207128L59.895706036711374,27.095299772667786L57.820508301890605,27.79973448173633L55.778012705935666,28.594017578906588L53.77210725530132,29.47663710115905L51.80661030502105,30.445912932068218L49.88526329025128,31.499999999999993L48.01172360423683,32.63689179031014L46.189557636255046,33.8544241648591L44.42223398279118,35.15027948157189L42.71311684486766,36.52199100620158L41.06545962409642,37.966947607898014L39.482398729643904,39.482398729643926L37.96694760789801,41.065459624096434L36.521991006201574,42.71311684486767L35.15027948157189,44.422233982791184L33.8544241648591,46.18955763625506L32.63689179031015,48.01172360423681L31.49999999999997,49.8852632902513L30.44591293206824,51.80661030502104L29.476637101159028,53.77210725530134L28.59401757890661,55.77801270593565L27.79973448173633,57.820508301890634M53.09428053804295,67.02697015566179L52.76735125180515,67.99007277612232L52.48274307608069,68.9665191914717L52.24099777870812,69.95445068046077L52.04257553560091,70.95198665934986L51.88785405477639,71.9572282617069L51.777127857367105,72.96826195300764L51.710607716983084,73.98316317315725L51.68842025849232,75L51.710607716983084,76.01683682684273L51.777127857367105,77.03173804699236L51.88785405477639,78.04277173829308L52.04257553560091,79.04801334065013L52.24099777870812,80.04554931953922L52.48274307608069,81.03348080852828L52.76735125180515,82.00992722387768L53.09428053804296,82.97302984433821L53.462908606316304,83.92095534933264L53.87253375214577,84.85189930878568L54.32237623078471,85.76408961795909L54.81157974150767,86.65578987075384L55.33921305762746,87.52530266505782L55.90427179913813,88.3709728338472L56.50568034460939,89.19119059589096L57.1422938786931,89.98439462006088L57.81290057134438,90.7490749974142L58.516223884608976,91.48377611539102L59.2509250025858,92.18709942865561L60.015605379939124,92.8577061213069L60.808809404109034,93.4943196553906L61.62902716615278,94.09572820086186L62.47469733494217,94.66078694237254L63.344210129246164,95.18842025849233L64.23591038204091,95.67762376921527L65.14810069121431,96.12746624785423L66.07904465066736,96.5370913936837L67.02697015566179,96.90571946195703L67.99007277612232,97.23264874819485L68.96651919147172,97.5172569239193L69.95445068046078,97.75900222129187L70.95198665934986,97.95742446439908L71.9572282617069,98.1121459452236L72.96826195300764,98.2228721426329L73.98316317315725,98.28939228301691L75,98.31157974150767L76.01683682684273,98.28939228301691L77.03173804699236,98.2228721426329L78.04277173829308,98.1121459452236L79.04801334065014,97.95742446439908L80.04554931953922,97.75900222129187L81.03348080852828,97.5172569239193L82.00992722387768,97.23264874819485L82.97302984433821,96.90571946195703L83.92095534933264,96.5370913936837L84.85189930878568,96.12746624785423L85.76408961795909,95.67762376921529L86.65578987075384,95.18842025849233L87.52530266505784,94.66078694237254L88.37097283384722,94.09572820086186L89.19119059589096,93.49431965539061L89.98439462006088,92.8577061213069L90.7490749974142,92.18709942865561L91.48377611539102,91.48377611539102L92.18709942865561,90.7490749974142L92.8577061213069,89.98439462006088L93.49431965539061,89.19119059589096L94.09572820086186,88.3709728338472L94.66078694237254,87.52530266505784L95.18842025849233,86.65578987075384L95.67762376921529,85.76408961795909L96.12746624785423,84.85189930878568L96.5370913936837,83.92095534933264L96.90571946195703,82.97302984433821L97.23264874819485,82.00992722387768L97.51725692391932,81.03348080852828L97.75900222129188,80.04554931953922L97.95742446439908,79.04801334065014L98.1121459452236,78.0427717382931L98.2228721426329,77.03173804699236L98.28939228301692,76.01683682684273L98.31157974150767,75L98.28939228301692,73.98316317315725L98.2228721426329,72.96826195300764L98.1121459452236,71.95722826170692L97.95742446439908,70.95198665934987L97.75900222129188,69.95445068046078L97.51725692391932,68.96651919147172L97.23264874819485,67.99007277612232L96.90571946195705,67.02697015566179L96.5370913936837,66.07904465066734L96.12746624785423,65.14810069121432L95.67762376921529,64.23591038204091L95.18842025849233,63.344210129246164L94.66078694237254,62.474697334942164L94.09572820086186,61.62902716615278L93.49431965539061,60.80880940410904L92.8577061213069,60.01560537993912L92.18709942865563,59.2509250025858L91.48377611539102,58.516223884608976L90.7490749974142,57.81290057134438L89.98439462006088,57.142293878693096L89.19119059589096,56.50568034460939L88.37097283384722,55.90427179913814L87.52530266505784,55.33921305762746L86.65578987075385,54.81157974150767L85.76408961795909,54.32237623078471L84.85189930878568,53.87253375214577L83.92095534933266,53.4629086063163L82.97302984433821,53.09428053804295L82.00992722387768,52.76735125180515L81.03348080852828,52.48274307608068L80.04554931953922,52.24099777870811L79.04801334065014,52.0425755356009L78.0427717382931,51.88785405477639L77.03173804699236,51.77712785736709L76.01683682684275,51.71060771698308L75,51.68842025849232L73.98316317315725,51.71060771698308L72.96826195300764,51.77712785736709L71.9572282617069,51.88785405477639L70.95198665934986,52.0425755356009L69.95445068046077,52.24099777870812L68.9665191914717,52.48274307608069L67.99007277612232,52.76735125180515L67.02697015566179,53.09428053804295L66.07904465066734,53.4629086063163L65.14810069121432,53.87253375214577L64.23591038204091,54.32237623078471L63.344210129246164,54.811579741507664L62.47469733494217,55.33921305762746L61.629027166152774,55.90427179913814L60.808809404109034,56.50568034460939L60.015605379939124,57.142293878693096L59.2509250025858,57.81290057134438L58.516223884608976,58.516223884608976L57.81290057134437,59.2509250025858L57.142293878693096,60.01560537993912L56.50568034460939,60.80880940410904L55.904271799138144,61.62902716615278L55.33921305762746,62.474697334942164L54.811579741507664,63.34421012924617L54.32237623078471,64.23591038204091L53.87253375214577,65.14810069121432L53.462908606316304,66.07904465066734L53.09428053804295,67.0269701556618"/></svg>